<svg width="48" height="64" viewBox="0 0 48 64" fill="none" xmlns="http://www.w3.org/2000/svg">
<path d="M47.1495 31.7755C47.1722 31.4502 47.1335 31.1022 47.0615 30.7555C46.9762 30.4062 46.8322 30.0608 46.6362 29.7462C46.4322 29.4382 46.1842 29.1675 45.9095 28.9435C45.6362 28.7288 45.3469 28.5448 45.0522 28.4128C44.4642 28.1328 43.8735 28.0022 43.2988 27.9208C42.7255 27.8462 42.1629 27.8328 41.6135 27.8595C40.5122 27.9115 39.4615 28.1222 38.4375 28.3888C37.4148 28.6568 36.4229 28.9942 35.4562 29.3835C31.5935 30.9515 28.1188 33.3062 25.1428 36.1755C23.6855 37.6022 22.2962 39.0568 20.9362 40.5528C19.5789 42.0488 18.2642 43.5755 16.9749 45.1195C14.3922 48.2035 11.9416 51.3755 9.35222 54.3622C9.11222 54.6368 8.86018 54.8995 8.61752 55.1715C9.76418 53.2995 10.7615 51.3248 11.5309 49.2422C12.0402 47.8648 12.4429 46.4408 12.7135 44.9848C12.9802 43.5275 13.1162 42.0368 13.0762 40.5435C13.0628 39.7955 13.0002 39.0502 12.8962 38.3088C12.8495 37.9368 12.7775 37.5688 12.7122 37.2008C12.6322 36.8355 12.5575 36.4675 12.4589 36.1075C12.3709 35.7422 12.2548 35.3875 12.1482 35.0288C12.0268 34.6742 11.9109 34.3182 11.7722 33.9715L11.3815 32.9768C11.2562 32.6528 11.1215 32.3328 11.0042 32.0048C10.5095 30.7088 10.0762 29.3942 9.69219 28.0702C9.31086 26.7462 8.9922 25.4088 8.76954 24.0622C8.3162 21.3715 8.23085 18.6382 8.67885 15.9888C9.11351 13.3355 10.1095 10.7982 11.4655 8.44218C11.6135 8.18751 11.7775 7.94484 11.9309 7.69418C11.8309 8.02485 11.7242 8.35551 11.6282 8.68884C10.8575 11.4408 10.2695 14.2688 10.1068 17.1835C10.0295 18.6408 10.0602 20.1195 10.2908 21.6022C10.5188 23.0782 10.9482 24.5675 11.7015 25.9395C12.0788 26.6222 12.5362 27.2702 13.0695 27.8528C13.6015 28.4382 14.2069 28.9542 14.8589 29.3915C15.5122 29.8262 16.2068 30.1888 16.9242 30.4688C17.6415 30.7462 18.3762 30.9635 19.1282 31.1168C20.6375 31.4035 22.2068 31.4235 23.7068 31.1488C24.4588 31.0155 25.1922 30.8235 25.9068 30.5795C26.6175 30.3315 27.3055 30.0355 27.9722 29.7048C28.6389 29.3755 29.2789 29.0022 29.8975 28.6048C30.5175 28.2088 31.1149 27.7835 31.6895 27.3355C32.8455 26.4462 33.9189 25.4688 34.9335 24.4462C36.9602 22.3955 38.7509 20.1555 40.3869 17.8222C41.2042 16.6542 41.9829 15.4608 42.7229 14.2448C43.0922 13.6368 43.4535 13.0222 43.8042 12.4022C43.9802 12.0915 44.1522 11.7795 44.3229 11.4648C44.4949 11.1462 44.6575 10.8395 44.8295 10.4995C44.9922 10.1715 44.9882 9.76884 44.7815 9.43417C44.4628 8.92217 43.7908 8.76617 43.2788 9.0835L43.2682 9.09018C43.1028 9.19284 42.8989 9.3115 42.7082 9.42084C42.5149 9.53151 42.3162 9.63951 42.1202 9.74618C41.7215 9.95951 41.3215 10.1688 40.9148 10.3675C40.1028 10.7675 39.2762 11.1382 38.4389 11.4782C36.7629 12.1582 35.0429 12.7235 33.2949 13.1155C32.4215 13.3195 31.5402 13.4662 30.6589 13.5715C29.7762 13.6835 28.8922 13.7222 28.0135 13.7168L27.3549 13.7008L26.7015 13.6515C26.4828 13.6395 26.2682 13.6075 26.0522 13.5795L25.7282 13.5368L25.5669 13.5155L25.4068 13.4848L24.7682 13.3622C24.5562 13.3208 24.3495 13.2568 24.1389 13.2062L23.8255 13.1262C23.7229 13.0955 23.6216 13.0582 23.5189 13.0262C23.3149 12.9568 23.1095 12.8928 22.9068 12.8222C21.3095 12.2155 19.7149 11.3315 18.7362 10.1502C18.4949 9.8555 18.2962 9.54618 18.1615 9.22885C18.0295 8.91285 17.9482 8.59284 17.9428 8.27284C17.9148 7.63551 18.1708 6.98618 18.6268 6.39551C19.0788 5.80485 19.7242 5.29284 20.4348 4.87151C21.1482 4.44617 21.9428 4.11284 22.7628 3.84351C24.4122 3.31284 26.1829 3.05285 27.9615 2.99418C28.8522 2.96885 29.7469 2.99551 30.6415 3.04351C31.5349 3.09285 32.4428 3.16484 33.3268 3.27284C34.2108 3.38218 35.0855 3.53684 35.9095 3.77017C36.3215 3.8875 36.7202 4.02351 37.0882 4.18884C37.4549 4.35551 37.7962 4.54884 38.0602 4.77017C38.3255 4.9915 38.5055 5.22885 38.5829 5.46351C38.6615 5.69685 38.6535 5.96217 38.5442 6.27151C38.4389 6.57684 38.2308 6.89818 37.9762 7.19818C37.7175 7.49952 37.4122 7.78351 37.0775 8.04218C36.4095 8.56218 35.6388 8.99417 34.8348 9.34218C34.0268 9.69284 33.1775 9.95418 32.3095 10.1302C32.1002 10.1768 31.8589 10.2088 31.6335 10.2555C31.4042 10.3035 31.1882 10.3382 30.9695 10.3715C30.5295 10.4382 30.0855 10.4768 29.6389 10.4968C28.7455 10.5328 27.8456 10.4875 26.9549 10.3568C26.0656 10.2262 25.1842 10.0142 24.3509 9.69685C23.9375 9.53551 23.5322 9.34752 23.1749 9.11418C22.9949 9.00085 22.8242 8.87417 22.6842 8.73283C22.5455 8.5955 22.4282 8.44217 22.3869 8.30217C22.3415 8.16217 22.3508 8.04618 22.4348 7.91018C22.5175 7.77818 22.6695 7.64751 22.8428 7.53951C23.1922 7.31817 23.6269 7.17284 24.0589 7.05284C24.9322 6.8155 25.8522 6.69551 26.7722 6.61151C27.6935 6.52885 28.6229 6.49418 29.5522 6.47952C30.4802 6.46618 31.4108 6.4755 32.3428 6.50217C30.4882 6.33017 28.6255 6.21284 26.7509 6.26218C25.8149 6.29151 24.8749 6.35418 23.9362 6.54752C23.8189 6.57018 23.7015 6.59818 23.5842 6.62885C23.4669 6.65685 23.3508 6.69285 23.2348 6.72885C23.0015 6.80485 22.7669 6.8915 22.5389 7.01817C22.3135 7.1435 22.0815 7.29817 21.9015 7.5515C21.8082 7.67284 21.7415 7.83151 21.7068 7.99551C21.6802 8.16218 21.6855 8.33551 21.7309 8.48884C21.8109 8.79951 21.9855 9.03018 22.1615 9.23018C22.3415 9.43018 22.5389 9.59284 22.7415 9.74084C23.1495 10.0382 23.5842 10.2662 24.0255 10.4688C24.9135 10.8648 25.8402 11.1408 26.7829 11.3342C27.7269 11.5248 28.6869 11.6275 29.6562 11.6408C30.1402 11.6475 30.6269 11.6315 31.1109 11.5862C31.3522 11.5622 31.6002 11.5355 31.8282 11.5022C32.0615 11.4662 32.2842 11.4502 32.5309 11.4115C33.4989 11.2715 34.4495 11.0248 35.3695 10.6808C36.2909 10.3355 37.1842 9.89685 38.0162 9.31552C38.4322 9.02485 38.8309 8.69284 39.2002 8.30484C39.5655 7.91417 39.9068 7.46617 40.1428 6.9035C40.2602 6.6235 40.3495 6.3155 40.3829 5.98484C40.4162 5.6555 40.3935 5.30751 40.3055 4.97684C40.2189 4.64751 40.0709 4.34218 39.8949 4.07684C39.7162 3.81418 39.5135 3.57817 39.2962 3.3835C38.8655 2.9835 38.3988 2.69817 37.9295 2.45417C37.4602 2.21417 36.9842 2.02618 36.5095 1.86351C35.5562 1.54218 34.5989 1.32751 33.6442 1.15951C32.6869 0.992844 31.7402 0.87418 30.7762 0.811512C29.8135 0.748844 28.8455 0.748844 27.8749 0.792843C25.9389 0.886177 23.9869 1.15283 22.0895 1.76617C21.1429 2.07683 20.2082 2.46351 19.3202 2.99151C18.4375 3.51951 17.5842 4.17284 16.8988 5.05951C16.5588 5.50351 16.2562 6.00084 16.0535 6.55951C15.9482 6.83685 15.8749 7.13151 15.8189 7.42884C15.7749 7.72885 15.7429 8.03551 15.7589 8.33951C15.7722 8.95284 15.9256 9.55017 16.1522 10.0902C16.3856 10.6288 16.6975 11.1088 17.0455 11.5342C17.7455 12.3862 18.5828 13.0248 19.4455 13.5608C19.8775 13.8275 20.3202 14.0622 20.7682 14.2808C21.2108 14.5022 21.6842 14.6782 22.1469 14.8702C22.3829 14.9542 22.6215 15.0288 22.8589 15.1088C22.9775 15.1475 23.0962 15.1875 23.2162 15.2248L23.5775 15.3182C23.8202 15.3768 24.0602 15.4475 24.3042 15.4982L25.0362 15.6382L25.2202 15.6728L25.4042 15.6968L25.7722 15.7462C26.0175 15.7782 26.2642 15.8142 26.5109 15.8275L27.2482 15.8835L27.9856 15.8995C28.9669 15.9075 29.9482 15.8635 30.9122 15.7408C31.8788 15.6262 32.8362 15.4662 33.7762 15.2475C35.6615 14.8235 37.4882 14.2208 39.2615 13.5022C39.8895 13.2475 40.5015 12.9568 41.1135 12.6702C41.0269 12.8168 40.9442 12.9635 40.8562 13.1088C40.1402 14.2848 39.3869 15.4422 38.5975 16.5675C37.0175 18.8222 35.2948 20.9728 33.3815 22.9088C32.4228 23.8755 31.4175 24.7875 30.3535 25.6088C29.8242 26.0208 29.2789 26.4075 28.7175 26.7662C28.1575 27.1235 27.5855 27.4595 26.9962 27.7502C26.4068 28.0422 25.8055 28.2995 25.1949 28.5128C24.5815 28.7235 23.9588 28.8862 23.3295 28.9968C22.0735 29.2275 20.7935 29.2075 19.5509 28.9728C18.9309 28.8462 18.3175 28.6648 17.7282 28.4382C17.1389 28.2088 16.5869 27.9155 16.0749 27.5755C15.0495 26.8928 14.2135 25.9742 13.6162 24.8848C13.0162 23.7955 12.6482 22.5542 12.4495 21.2675C12.2469 19.9782 12.2162 18.6408 12.2895 17.3022C12.4375 14.6168 12.9908 11.9222 13.7322 9.28218C14.1055 7.96218 14.5309 6.65418 15.0002 5.36084C15.2349 4.71418 15.4802 4.0715 15.7375 3.43417C15.8642 3.11417 15.9962 2.79817 16.1295 2.4835C16.2628 2.1715 16.4055 1.84751 16.5389 1.55817L16.5428 1.55017C16.7402 1.1235 16.6442 0.602177 16.2762 0.275509C15.8242 -0.125824 15.1335 -0.0831642 14.7348 0.3675C12.8295 2.51817 11.0348 4.8115 9.57351 7.35284C8.11084 9.8875 7.00419 12.6928 6.52286 15.6248C6.27886 17.0888 6.1762 18.5715 6.2002 20.0462C6.22553 21.5195 6.37488 22.9848 6.61622 24.4248C6.85355 25.8662 7.19086 27.2808 7.59219 28.6715C7.99486 30.0608 8.44816 31.4342 8.96016 32.7768C9.08016 33.1155 9.22018 33.4462 9.35085 33.7808L9.73353 34.7582C9.85887 35.0662 9.9602 35.3835 10.0695 35.6982C10.1629 36.0155 10.2669 36.3328 10.3442 36.6555C10.4322 36.9755 10.4975 37.3008 10.5695 37.6248C10.6269 37.9515 10.6908 38.2795 10.7322 38.6088C10.8242 39.2662 10.8802 39.9302 10.8935 40.5955C10.9628 43.2622 10.4188 45.9435 9.48151 48.4862C8.54018 51.0342 7.21216 53.4542 5.65749 55.7235C4.87883 56.8555 4.04019 57.9515 3.15352 59.0062C2.70952 59.5328 2.25355 60.0502 1.78555 60.5542C1.55222 60.8048 1.31484 61.0528 1.07351 61.2955L0.713547 61.6568C0.59488 61.7728 0.464193 61.8968 0.358859 61.9955L0.350852 62.0022C0.00418498 62.3235 -0.106453 62.8435 0.113547 63.2888C0.380214 63.8302 1.03488 64.0515 1.57487 63.7835C3.48688 62.8382 5.19487 61.5822 6.7362 60.2035C7.50554 59.5115 8.23885 58.7902 8.94818 58.0555C9.65218 57.3142 10.3335 56.5582 11.0015 55.7955C12.3282 54.2675 13.6002 52.7088 14.8615 51.1528C16.1242 49.5982 17.3762 48.0475 18.6522 46.5195C19.9269 44.9942 21.2229 43.4888 22.5535 42.0208C23.8842 40.5582 25.2602 39.1182 26.6628 37.7462C29.4402 35.0622 32.7149 32.8528 36.2722 31.4102C37.1589 31.0488 38.0682 30.7528 38.9829 30.5222C39.8975 30.2982 40.8242 30.1448 41.7229 30.1008C42.1709 30.0808 42.6135 30.0822 43.0309 30.1275C43.4482 30.1688 43.8468 30.2515 44.1708 30.3875C44.3402 30.4475 44.4735 30.5342 44.6029 30.6155C44.7215 30.7048 44.8175 30.7995 44.8988 30.9022C44.9708 31.0088 45.0322 31.1248 45.0749 31.2608C45.1082 31.4022 45.1442 31.5528 45.1375 31.7275C45.1442 32.0742 45.0668 32.4742 44.9295 32.8782C44.7922 33.2822 44.6002 33.6928 44.3815 34.0968C43.9428 34.9062 43.3815 35.6875 42.7802 36.4408C42.6322 36.6302 42.4708 36.8155 42.3122 37.0022L41.8375 37.5608C41.5135 37.9288 41.1789 38.2875 40.8495 38.6515C40.5042 39.0022 40.1682 39.3582 39.8175 39.7035L39.2868 40.2182C39.1109 40.3902 38.9322 40.5595 38.7482 40.7248C37.3002 42.0595 35.7735 43.3222 34.1802 44.5008C32.5855 45.6795 30.9229 46.7715 29.2189 47.7995C25.8029 49.8408 22.2269 51.6502 18.4895 53.0835C20.4069 52.5075 22.2842 51.7942 24.1348 51.0208C25.9855 50.2448 27.8069 49.3915 29.5869 48.4528C33.1429 46.5742 36.5655 44.3915 39.6842 41.7848C41.2428 40.4822 42.7202 39.0782 44.0882 37.5462C44.7736 36.7702 45.4295 35.9528 45.9935 35.0302C46.2735 34.5675 46.5348 34.0822 46.7455 33.5488C46.9562 33.0155 47.1215 32.4315 47.1495 31.7755Z" fill="#0B4F6C"/>
</svg>
