<svg width="22" height="22" viewBox="0 0 22 22" fill="none" xmlns="http://www.w3.org/2000/svg">
<path d="M22 11.2355C22 10.4944 21.9266 9.72949 21.8044 9.01236H11.2169V13.2435H17.2809C17.0364 14.606 16.2295 15.8012 15.0313 16.5662L18.6501 19.3152C20.7774 17.3789 22 14.5582 22 11.2355Z" fill="#4280EF"/>
<path d="M11.2171 21.9447C14.2491 21.9447 16.792 20.9646 18.6503 19.2913L15.0315 16.5662C14.029 17.2355 12.7331 17.618 11.2171 17.618C8.28292 17.618 5.81333 15.6818 4.90863 13.1001L1.19202 15.8969C3.09923 19.6021 6.96254 21.9447 11.2171 21.9447Z" fill="#34A353"/>
<path d="M4.90862 13.0761C4.44404 11.7136 4.44404 10.2315 4.90862 8.86894L1.19201 6.04822C-0.397335 9.1558 -0.397335 12.8132 1.19201 15.8969L4.90862 13.0761Z" fill="#F6B704"/>
<path d="M11.2171 4.35103C12.8064 4.32713 14.3713 4.92474 15.5205 6.00044L18.7237 2.84505C16.6942 0.9805 14.0045 -0.0234873 11.2171 0.000417202C6.96254 0.000417202 3.09923 2.34306 1.19202 6.04825L4.90863 8.86898C5.81333 6.26339 8.28292 4.35103 11.2171 4.35103Z" fill="#E54335"/>
</svg>
