<svg width="328" height="47" viewBox="0 0 328 47" fill="none" xmlns="http://www.w3.org/2000/svg">
<path d="M210.137 13.0546C228.957 11.489 193.13 8.87961 176.804 7.96632C160.478 7.05304 148.914 5.35694 182.926 6.00929C216.939 6.53117 213.538 3.79132 161.839 1.31241C109.912 -1.29697 24.6535 0.790532 24.6535 0.790532C-11.8536 0.660063 3.79229 19.7085 1.07126 25.3187C-1.64976 30.9289 2.20502 35.3648 5.83306 38.8875C9.46109 42.2797 4.92605 43.0625 18.7579 46.0633C32.5898 49.064 60.4803 43.9757 143.698 43.0625C222.835 42.1492 185.648 38.4961 167.507 37.4523C149.367 36.4086 157.304 35.4953 187.688 34.582C218.073 33.7992 183.607 31.8421 186.555 29.7546C189.729 27.6671 227.143 27.6671 198.572 25.1882C193.13 24.6663 210.364 21.6656 196.758 21.1437C183.153 20.6218 187.688 19.4476 205.148 19.0562C222.381 18.6648 210.817 16.0554 201.067 15.664C191.543 15.4031 191.316 14.6202 210.137 13.0546Z" fill="#0B4F6C"/>
<path d="M322.672 11.314C341.493 9.95712 305.666 7.69566 289.34 6.90415C273.014 6.11264 261.449 4.64269 295.462 5.20805C329.475 5.66034 326.074 3.28581 274.374 1.13742C222.448 -1.12404 137.189 0.685128 137.189 0.685128C100.682 0.572055 116.328 17.0807 113.607 21.9429C110.886 26.805 114.741 30.6495 118.369 33.7025C121.997 36.6424 117.462 37.3208 131.293 39.9215C145.125 42.5222 173.016 38.1123 256.234 37.3208C335.37 36.5293 298.183 33.3633 280.043 32.4587C261.903 31.5541 269.839 30.7626 300.224 29.9711C330.609 29.2926 296.142 27.5965 299.09 25.7874C302.265 23.9782 339.679 23.9782 311.108 21.8298C305.666 21.3775 322.899 18.7768 309.294 18.3245C295.689 17.8722 300.224 16.8546 317.684 16.5154C334.917 16.1761 323.353 13.9147 313.602 13.5755C304.079 13.3493 303.852 12.6709 322.672 11.314Z" fill="#0B4F6C"/>
</svg>
