<svg width="87" height="94" viewBox="0 0 87 94" fill="none" xmlns="http://www.w3.org/2000/svg">
<path d="M22.79 23.0298C23.22 22.2398 22.79 21.5197 22.73 20.8097C22.44 18.2797 22.43 18.2698 24.83 19.1998C25.411 19.4068 25.974 19.6647 26.51 19.9697C27.29 20.4397 27.46 20.3698 27.7 19.5298C28.506 16.8688 28.943 14.1098 29 11.3298C29.023 10.7568 29.077 10.1867 29.16 9.61974C29.26 8.81974 29.48 8.70976 30.16 9.13976C30.761 9.50676 31.33 9.92576 31.86 10.3898C32.899 11.2768 34.002 12.0857 35.16 12.8097C36.322 13.6947 37.388 14.7007 38.34 15.8097C38.56 16.0297 38.69 16.3298 39.15 16.4598C39.803 15.2998 40.243 14.0337 40.45 12.7197C40.601 12.3737 40.678 12.0017 40.678 11.6247C40.678 11.2477 40.601 10.8748 40.45 10.5298C40.28 10.2598 40.15 9.92975 40.55 9.74975C40.95 9.56975 41.38 9.47975 41.55 9.93975C41.85 10.5798 42.38 11.0898 42.65 11.6998C43.29 13.1398 44.65 13.7597 45.78 14.7897C46.32 13.5897 46.69 12.4298 47.18 11.3298C48.059 9.21577 49.194 7.21675 50.56 5.37975C51.64 3.94975 52.56 2.37978 53.48 0.839776C54.09 -0.160224 54.38 -0.25027 55.35 0.47973C56.997 1.75773 58.359 3.36576 59.35 5.19976C60.15 6.60976 60.9 8.05975 61.66 9.49975C62.883 11.7927 63.701 14.2787 64.08 16.8497C64.078 17.3687 64.239 17.8767 64.54 18.2997C65.106 18.1257 65.632 17.8437 66.09 17.4697C68.99 15.7237 71.797 13.8277 74.5 11.7897C75.26 11.1497 75.7 11.2398 76 12.2098C76.3 13.1798 76.52 14.3397 76.79 15.4097C77.454 18.2257 77.912 21.0867 78.16 23.9697C78.262 26.4417 77.857 28.9097 76.97 31.2197C76.89 31.4597 76.7 31.6798 76.77 31.9998C77.17 32.2998 77.58 32.1297 77.98 31.9998C78.934 31.6147 79.952 31.4187 80.98 31.4197C81.86 31.3397 82.71 31.0558 83.46 30.5898C84.11 30.2798 84.81 30.1797 85.46 29.9097C85.613 29.8187 85.794 29.7868 85.969 29.8198C86.144 29.8528 86.301 29.9488 86.41 30.0898C86.542 30.2388 86.62 30.4287 86.633 30.6277C86.646 30.8267 86.592 31.0248 86.48 31.1898C86.028 31.8998 85.719 32.6908 85.57 33.5198C85.359 34.9098 85.025 36.2787 84.57 37.6097C83.531 41.0237 81.833 44.1998 79.57 46.9598C78.971 47.6128 78.3 48.1968 77.57 48.6998C77.195 48.9878 76.859 49.3238 76.57 49.6998C76.57 50.0398 76.81 50.1597 77.01 50.3097C79.104 52.0327 80.521 54.4417 81.01 57.1097C81.48 59.1097 81.94 61.0497 82.55 62.9897C83.274 64.8977 84.147 66.7468 85.16 68.5198C85.16 68.5898 85.27 68.6597 85.31 68.7297C85.63 69.2297 85.97 69.8397 85.49 70.2897C85.01 70.7397 84.49 70.3397 83.93 70.0497C82.31 69.1497 80.98 67.7897 79.28 67.0497C77.88 66.4397 76.41 65.9498 74.96 65.4498C74.41 65.2598 74.29 65.6597 74.24 66.0997C74.08 67.8097 73.78 69.5098 73.57 71.2098C73.067 74.8328 72.363 78.4247 71.46 81.9697C70.98 83.9697 69.97 85.8597 69.57 87.8697C69.23 89.5997 68.57 90.4797 66.75 90.5597C66.099 90.6647 65.464 90.8527 64.86 91.1197C62.421 91.7037 59.945 92.1248 57.45 92.3798C53.255 92.9408 49.019 93.1397 44.79 92.9697C41.044 92.8697 37.312 92.4678 33.63 91.7698L31.03 91.3398C30.279 91.2818 29.558 91.0217 28.943 90.5867C28.329 90.1517 27.844 89.5587 27.54 88.8697C26.231 86.1737 25.101 83.3947 24.16 80.5497C23.88 79.5497 23.68 78.5497 23.49 77.5497C22.895 74.6867 22.468 71.7918 22.21 68.8798C21.03 69.1248 19.894 69.5458 18.84 70.1298C15.51 71.5598 12.16 72.9698 8.75013 74.0698L8.36013 74.1797C7.45013 74.3897 7.12013 74.0997 7.22013 73.1797C7.37013 71.8597 7.55013 70.5497 7.66013 69.2397C7.77013 67.9297 7.84013 66.5997 7.87013 65.2397C7.94743 61.1737 8.85963 57.1677 10.5501 53.4697C11.2754 51.5747 12.378 49.8468 13.79 48.3898C14.666 47.5068 15.776 46.8917 16.99 46.6197C19.013 46.1567 21.085 45.9377 23.16 45.9697C23.82 45.9697 24.41 46.4298 25.16 46.1998C24.738 45.3828 24.199 44.6307 23.56 43.9697C23.36 43.6897 23.15 43.7597 22.88 43.8697C21.707 44.3087 20.456 44.4978 19.206 44.4258C17.956 44.3528 16.734 44.0208 15.62 43.4498C13.17 42.3998 11.6201 40.4498 10.0801 38.5098C9.19353 37.2978 8.59813 35.8987 8.34013 34.4197C7.50013 29.9597 7.08013 25.4197 6.27013 20.9797C6.01013 19.5297 6.00013 17.9798 5.09013 16.6898C5.00113 16.5108 4.95483 16.3137 4.95483 16.1147C4.95483 15.9147 5.00113 15.7177 5.09013 15.5397C5.28013 14.9297 5.58013 14.7898 6.19013 15.0198C6.35663 15.0828 6.51453 15.1668 6.66013 15.2698C8.86403 16.6418 11.1867 17.8128 13.6 18.7698C16.65 20.1698 19.81 21.3698 22.79 23.0298ZM47.57 72.0898C49.036 72.1738 50.507 72.1098 51.96 71.8998C55.308 71.7368 58.646 71.4028 61.96 70.8998C62.735 70.7408 63.52 70.6378 64.31 70.5898C66.31 70.5898 68.31 69.8398 70.31 69.5898C70.947 69.4478 71.567 69.2397 72.16 68.9697C72.38 68.9127 72.574 68.7828 72.711 68.6008C72.847 68.4198 72.917 68.1967 72.91 67.9697C72.91 67.3097 73.07 66.6597 73.12 65.9697C73.19 64.8097 73.12 64.8897 72.12 64.6197C70.26 64.2907 68.433 63.7988 66.66 63.1498C65.66 62.6998 64.77 62.0297 63.81 61.4997C63.006 61.0377 62.321 60.3937 61.81 59.6197C60.9 58.5307 60.398 57.1587 60.39 55.7397C60.39 55.0997 60.12 54.7397 59.39 54.8097C58.66 54.8797 58.08 54.8098 57.39 54.9498C56.313 55.1288 55.221 55.2017 54.13 55.1697C53.07 55.1197 51.9 54.9997 51.13 56.0497C50.95 56.2997 50.55 56.4698 50.34 56.1298C49.8 55.2498 48.97 55.4997 48.21 55.4797C46.59 55.4797 44.97 55.4797 43.35 55.3597C41.998 55.1737 40.634 55.0968 39.27 55.1298C38.143 55.1848 37.013 55.0707 35.92 54.7897C34.49 54.4397 33.05 54.3498 31.62 54.0798C30.53 53.8798 30.28 54.2197 30.44 55.3097C30.611 55.9617 30.695 56.6347 30.69 57.3097C30.22 61.4297 28.69 64.9498 24.96 67.1998C24.655 67.3798 24.367 67.5878 24.1 67.8198C23.46 68.3998 23.59 69.1298 24.41 69.2798C25.93 69.5598 27.41 70.1398 28.89 70.3798C31.59 70.7998 34.28 71.2197 36.99 71.5497C39.387 71.8977 41.8 72.1217 44.22 72.2197C45.332 72.0917 46.452 72.0488 47.57 72.0898ZM47.57 91.9297C48.8 91.9297 50.03 91.9297 51.26 91.9297C52.67 91.9297 54.08 91.9297 55.48 91.7297C57.14 91.5397 58.77 91.0798 60.48 90.9598C62.759 90.6868 65 90.1568 67.16 89.3798C67.395 89.3048 67.608 89.1747 67.782 89.0007C67.956 88.8267 68.085 88.6138 68.16 88.3798C69.334 85.6238 70.238 82.7598 70.86 79.8298C70.99 79.1698 70.86 79.0697 70.17 79.2197C67.974 79.6777 65.754 80.0117 63.52 80.2197C60.33 80.5597 57.1 80.6898 53.93 81.1398C51.744 81.3688 49.543 81.4088 47.35 81.2598C45.547 81.3598 43.738 81.2798 41.95 81.0198C41.782 80.9588 41.598 80.9588 41.43 81.0198C40.36 81.6798 39.34 81.0198 38.3 80.8898C37.913 80.8158 37.523 80.7617 37.13 80.7297C33.6 80.8397 30.13 80.1397 26.59 80.1797C25.44 80.1797 25.44 80.1197 25.71 81.2997C26.463 83.9237 27.542 86.4427 28.92 88.7997C29.169 89.2977 29.555 89.7147 30.034 90.0007C30.513 90.2857 31.063 90.4277 31.62 90.4097C32.501 90.4457 33.375 90.5737 34.23 90.7897C38.609 91.7687 43.098 92.1647 47.58 91.9697L47.57 91.9297ZM8.53013 72.6898C9.06153 72.7278 9.59483 72.6458 10.0901 72.4498C11.8195 71.9508 13.513 71.3357 15.16 70.6097C17.987 69.5127 20.748 68.2538 23.43 66.8398C25.373 65.8618 26.986 64.3358 28.07 62.4498C28.828 61.0488 29.3 59.5117 29.458 57.9268C29.616 56.3428 29.457 54.7417 28.99 53.2197C28.68 52.0897 28.27 51.9198 27.14 52.3898C26.861 52.5188 26.59 52.6658 26.33 52.8298C25.475 53.3698 24.654 53.9607 23.87 54.5997C19.991 57.3427 17.12 61.2858 15.7 65.8198C15.59 66.1498 15.48 66.4898 15.34 66.8198C15.308 66.9268 15.24 67.0197 15.146 67.0817C15.053 67.1437 14.941 67.1707 14.83 67.1597C14.55 67.1597 14.49 66.8797 14.51 66.6697C14.547 66.2757 14.611 65.8848 14.7 65.4997C15.34 63.2457 16.391 61.1308 17.8 59.2598C20.08 55.8698 23.34 53.5197 26.73 51.3597C26.847 51.2997 26.967 51.2468 27.09 51.1998C28.03 50.7498 28.09 50.6298 27.5 49.7598C26.958 48.8758 26.183 48.1587 25.261 47.6857C24.338 47.2137 23.304 47.0038 22.27 47.0798C21.083 47.1138 19.9 47.2347 18.73 47.4398C16.81 47.7798 15.03 48.3898 13.89 50.0898C11.8304 53.1718 10.3809 56.6207 9.62013 60.2497C9.28283 62.0237 9.09543 63.8238 9.06013 65.6298C8.95013 67.9697 8.80013 70.2698 8.53013 72.6898ZM74.99 13.6898C74.725 13.9628 74.554 14.3128 74.5 14.6898C74.305 16.2228 73.776 17.6938 72.95 18.9998C72.719 19.4727 72.528 19.9647 72.38 20.4697C72.1 21.4657 71.69 22.4207 71.16 23.3097C69.94 25.1397 68.65 26.9198 67.27 28.6398C64.43 32.1698 61.43 35.5697 58.92 39.3597C57.886 40.7377 57.129 42.3037 56.69 43.9697C56.52 44.8497 56.56 44.8997 57.37 45.2497C57.59 45.3507 57.828 45.4037 58.07 45.4037C58.312 45.4037 58.551 45.3507 58.77 45.2497C59.373 44.9907 59.991 44.7668 60.62 44.5798C61.933 44.2038 63.193 43.6627 64.37 42.9697C65.647 42.1957 66.882 41.3538 68.07 40.4498C72.27 37.2398 75.49 33.3698 76.58 28.0098C76.905 26.5978 77.023 25.1458 76.93 23.6998C76.673 20.8538 76.198 18.0328 75.51 15.2598C75.477 14.7118 75.298 14.1837 74.99 13.7297V13.6898ZM41.52 14.0597C41.063 14.9507 40.669 15.8728 40.34 16.8198C38.68 20.0198 37.08 23.2498 35.34 26.3998C33.867 28.9458 33.443 31.9658 34.16 34.8198C34.765 37.2188 36.054 39.3897 37.87 41.0687C39.686 42.7487 41.951 43.8638 44.39 44.2798C46.65 44.6698 46.72 44.5197 46.63 42.1597C46.495 40.0527 46.089 37.9717 45.42 35.9697C44.81 34.0377 44.389 32.0517 44.16 30.0397C43.992 28.0267 43.718 26.0237 43.34 24.0397C42.589 21.0177 42.081 17.9418 41.82 14.8398C41.836 14.7008 41.817 14.5608 41.765 14.4308C41.712 14.3018 41.628 14.1877 41.52 14.0997V14.0597ZM42.98 14.0597C42.884 14.2217 42.822 14.4028 42.798 14.5898C42.774 14.7778 42.788 14.9678 42.84 15.1498C42.96 16.6898 43.49 18.1497 43.71 19.6797C44.22 23.2097 45.03 26.6798 45.31 30.2498C45.469 32.0488 45.845 33.8208 46.43 35.5298C47.313 37.9328 47.776 40.4698 47.8 43.0298C47.8 44.0298 48.19 44.3697 49.1 43.9297C50.308 43.4967 51.303 42.6157 51.88 41.4697C51.925 41.2517 52.05 41.0597 52.23 40.9297C53.4 40.3897 53.69 39.2397 54.1 38.1898C54.583 36.9018 54.899 35.5578 55.04 34.1898C55.479 30.5368 54.962 26.8328 53.54 23.4398C53.011 21.9838 52.116 20.6877 50.94 19.6797C49.5 18.5997 48.07 17.4998 46.56 16.5298C45.56 15.9038 44.604 15.2088 43.7 14.4498C43.501 14.2628 43.25 14.1417 42.98 14.0997V14.0597ZM24.25 21.7598C23.98 22.0498 24.12 22.3698 24.13 22.6498C24.189 26.7398 23.972 30.8288 23.48 34.8898C23.099 37.3358 23.301 39.8368 24.07 42.1898C24.771 44.0578 26.014 45.6738 27.64 46.8298C29.712 48.1758 31.983 49.1878 34.37 49.8298C35.785 50.2388 37.27 50.3507 38.73 50.1597C38.73 49.5697 38.43 49.2598 38.22 48.8798C37.42 47.4698 36.44 46.1698 35.52 44.8798C33.08 41.2248 31.237 37.2037 30.06 32.9697C29.609 30.9927 28.849 29.0997 27.81 27.3597C26.81 25.8297 25.81 24.2598 24.95 22.6398C24.77 22.3298 24.64 21.9698 24.25 21.7598ZM73.25 14.4498C73.146 14.4028 73.03 14.3868 72.917 14.4028C72.804 14.4188 72.698 14.4657 72.61 14.5397C70.658 15.9647 68.628 17.2797 66.53 18.4797C65.858 18.8037 65.218 19.1918 64.62 19.6398C63.845 20.3558 62.965 20.9498 62.01 21.3998C60.45 22.2208 59.037 23.2948 57.83 24.5798C56.83 25.5198 56.83 26.9698 56.07 28.0198C55.98 28.1298 56.07 28.3697 56.07 28.5397C56.275 29.8017 56.335 31.0837 56.25 32.3597C56.307 35.6457 55.381 38.8738 53.59 41.6298C53.13 42.2898 53.59 43.2597 54.49 43.7497C55.13 44.0798 55.49 43.9297 55.84 43.0397C57.031 40.3397 58.568 37.8047 60.41 35.4997C63.23 31.9697 66.29 28.5698 68.86 24.8198C69.864 23.5918 70.658 22.2057 71.21 20.7197C71.608 19.3637 72.169 18.0608 72.88 16.8398C73.302 16.1188 73.435 15.2638 73.25 14.4498ZM84.47 32.9697C83.89 33.0497 83.75 33.4098 83.47 33.6498C81.72 35.4398 80.22 37.4798 78.34 39.1498C77.34 40.0198 76.34 40.8597 75.34 41.6797C73.599 43.1597 71.761 44.5228 69.84 45.7598C67.887 47.0308 65.841 48.1547 63.72 49.1197C62.42 49.6397 61.18 50.3097 59.85 50.7897C59.57 50.8897 59.15 50.7897 59.09 51.1797C59.03 51.5697 59.39 51.8097 59.67 51.9997C59.982 52.2227 60.317 52.4097 60.67 52.5597C61.88 53.1007 63.195 53.3638 64.52 53.3298C67.222 53.2938 69.863 52.5227 72.16 51.0997C73.913 50.0397 75.585 48.8497 77.16 47.5397C78.304 46.5607 79.313 45.4338 80.16 44.1898C81.145 42.6227 81.992 40.9738 82.69 39.2598C83.506 37.2328 84.103 35.1237 84.47 32.9697ZM22.09 39.5798C22.262 39.2368 22.321 38.8477 22.26 38.4697C22.225 37.3237 22.275 36.1777 22.41 35.0397C22.787 32.1107 22.994 29.1628 23.03 26.2098C23.067 25.7948 22.994 25.3777 22.818 25.0007C22.643 24.6227 22.371 24.2987 22.03 24.0597C21.286 23.5127 20.496 23.0307 19.67 22.6197C18.37 21.9697 16.95 21.6197 15.67 20.9297C13.73 19.9297 11.6701 19.1297 9.67013 18.2197C8.82163 17.6897 7.88783 17.3107 6.91013 17.0997C7.45013 17.8197 7.86013 18.3797 8.29013 18.9297C10.2901 21.4697 12.06 24.1198 13.79 26.8298C15.52 29.5398 16.79 32.3998 18.37 35.1498C19.378 36.8068 20.632 38.3008 22.09 39.5798ZM7.55013 19.6797C7.46063 19.7697 7.39463 19.8818 7.35803 20.0038C7.32143 20.1258 7.31523 20.2548 7.34013 20.3798C7.93013 24.4298 8.52013 28.4698 9.14013 32.5198C9.24063 33.5678 9.47243 34.5988 9.83013 35.5898C10.4573 36.9358 11.2392 38.2047 12.16 39.3697C13.695 41.2947 15.793 42.6927 18.16 43.3697C18.874 43.5957 19.627 43.6708 20.371 43.5878C21.115 43.5058 21.834 43.2678 22.48 42.8898C23.01 42.6198 23.07 42.2598 22.58 41.8898C21.22 40.8898 20.46 39.3098 19.2 38.1998C18.902 37.8798 18.647 37.5238 18.44 37.1398C17.014 35.1838 15.819 33.0698 14.88 30.8398C14.776 30.5958 14.645 30.3648 14.49 30.1498C13.14 28.1498 12.24 25.9798 10.7801 24.0898C9.72013 22.6698 8.68013 21.2097 7.55013 19.6797ZM81.24 66.5298C80.36 63.6598 78.51 61.5297 76.91 59.3097C76.481 58.7487 75.972 58.2538 75.4 57.8398C73.459 56.3378 71.368 55.0417 69.16 53.9697C68.992 53.8687 68.804 53.8048 68.609 53.7828C68.414 53.7598 68.217 53.7798 68.03 53.8398C66.207 54.3648 64.288 54.4638 62.42 54.1298C61.82 54.0398 61.59 54.2697 61.55 54.7997C61.409 56.2017 61.744 57.6107 62.5 58.7997C63.566 60.2587 65.047 61.3637 66.75 61.9697C67.493 62.4327 68.307 62.7707 69.16 62.9697C70.953 63.1757 72.72 63.5718 74.43 64.1498C76.596 64.7298 78.697 65.5307 80.7 66.5397C80.84 66.5697 80.99 66.5298 81.24 66.5298ZM57.1 23.6298C58.755 22.0808 60.592 20.7368 62.57 19.6298C62.838 19.4928 63.051 19.2688 63.173 18.9938C63.295 18.7188 63.319 18.4097 63.24 18.1197C62.858 15.3697 62.044 12.6968 60.83 10.1998C60.356 9.40976 59.938 8.58774 59.58 7.73974C58.86 5.58974 57.34 3.96976 55.97 2.25976C55.75 1.99976 55.46 1.68976 55.09 1.75976C54.72 1.82976 54.68 2.27974 54.64 2.61974C54.377 4.54174 54.393 6.49172 54.69 8.40972C55.46 13.1397 56.4 17.8398 56.82 22.6298C56.793 22.8068 56.804 22.9877 56.852 23.1597C56.901 23.3317 56.985 23.4928 57.1 23.6298ZM83.1 32.1097C82.271 32.3607 81.415 32.5148 80.55 32.5698C79.71 32.5068 78.87 32.6868 78.13 33.0898C77.67 33.3098 77.21 33.7297 76.66 33.5597C75.91 33.3197 75.66 33.7598 75.31 34.2698C73.858 36.5898 72.03 38.6507 69.9 40.3697C68.9 41.1497 67.9 41.7597 66.9 42.4897C64.304 44.2327 61.444 45.5468 58.43 46.3798C58.14 46.4648 57.871 46.6127 57.644 46.8127C57.417 47.0127 57.236 47.2608 57.115 47.5378C56.994 47.8158 56.936 48.1158 56.943 48.4188C56.951 48.7218 57.025 49.0187 57.16 49.2897C57.269 49.5817 57.483 49.8228 57.761 49.9658C58.038 50.1077 58.359 50.1417 58.66 50.0597C59.518 49.9287 60.357 49.6977 61.16 49.3697C64.486 47.9657 67.642 46.1908 70.57 44.0798C74.08 41.3698 77.75 38.8298 80.57 35.3398C81.36 34.3398 82.51 33.6097 83.16 32.1097H83.1ZM25.36 20.7498C25.11 21.1198 25.36 21.4097 25.52 21.7498C26.435 23.6548 27.484 25.4928 28.66 27.2498C29.334 28.1637 29.863 29.1747 30.23 30.2498C30.68 31.6297 31.08 33.0198 31.55 34.3998C32.563 37.5368 33.967 40.5338 35.73 43.3198C36.79 44.6668 37.758 46.0837 38.63 47.5597C38.96 48.2497 39.51 48.8597 39.91 49.5597C40.05 49.7997 40.27 50.0197 40.54 49.7897C41.86 48.8777 42.808 47.5217 43.21 45.9697C43.33 45.3397 43.21 45.0797 42.61 44.9197C41.287 44.5647 40.031 43.9977 38.89 43.2397C37.059 42.1707 35.555 40.6218 34.54 38.7598C33.843 37.2888 33.268 35.7638 32.82 34.1998C32.584 33.4398 32.506 32.6407 32.59 31.8497C32.64 30.3097 32.979 28.7938 33.59 27.3798C33.774 27.0618 33.845 26.6917 33.792 26.3287C33.74 25.9657 33.566 25.6318 33.3 25.3798C32.95 24.9788 32.534 24.6398 32.07 24.3798C31.257 24.0468 30.477 23.6387 29.74 23.1597C28.49 22.0397 26.85 21.5598 25.44 20.6898C25.46 20.7098 25.41 20.7397 25.36 20.7498ZM55.61 25.2698C55.86 25.1598 55.82 24.9198 55.83 24.7098C55.921 22.7298 55.78 20.7467 55.41 18.7997C54.76 15.0197 54.27 11.2198 53.69 7.43975C53.51 6.27975 53.46 5.10975 53.34 3.87975C52.63 4.22975 52.5 4.87978 52.1 5.33978C50.21 7.61278 48.725 10.1937 47.71 12.9697C46.81 15.1397 46.96 15.5598 48.88 16.8798C49.03 16.9798 49.16 17.0998 49.31 17.1898C52.224 18.9118 54.352 21.7027 55.24 24.9697C55.257 25.0547 55.303 25.1318 55.37 25.1868C55.438 25.2418 55.523 25.2708 55.61 25.2698ZM83.37 68.1298C83.365 67.6678 83.229 67.2178 82.98 66.8298C81.846 64.6838 80.993 62.4017 80.44 60.0397C80.098 58.4047 79.671 56.7898 79.16 55.1998C78.638 53.3658 77.413 51.8128 75.75 50.8798C75.57 50.7628 75.36 50.6998 75.145 50.6998C74.93 50.6998 74.72 50.7628 74.54 50.8798C73.35 51.5998 72.16 52.2697 70.99 52.9697C70.44 53.2997 70.43 53.5397 70.99 53.9697C71.347 54.2287 71.729 54.4538 72.13 54.6398C73.578 55.3478 74.932 56.2348 76.16 57.2798C77.964 58.9568 79.511 60.8908 80.75 63.0198C81.55 64.2598 81.75 65.7498 82.48 67.0198C82.71 67.4098 82.78 67.9697 83.37 68.1298ZM34.54 25.2498C34.734 25.1047 34.879 24.9057 34.958 24.6777C35.036 24.4487 35.044 24.2027 34.98 23.9697C34.949 23.3987 34.882 22.8318 34.78 22.2698C34.1 18.2458 32.539 14.4208 30.21 11.0698C30.21 11.1398 30.08 11.1998 30.08 11.2698C29.961 14.0408 29.508 16.7868 28.73 19.4498C28.33 20.8198 28.42 20.9197 29.56 21.7297L29.67 21.7997C30.486 22.3877 31.361 22.8907 32.28 23.2997C33.24 23.6697 33.82 24.5798 34.54 25.2498ZM62.78 79.3898C63.48 79.2998 64.18 79.1998 64.87 79.1298C65.046 79.1188 65.218 79.0708 65.375 78.9908C65.531 78.9098 65.669 78.7967 65.78 78.6597C66.85 77.3197 67.94 75.9997 69.01 74.6597C69.157 74.5237 69.257 74.3448 69.293 74.1478C69.329 73.9518 69.3 73.7478 69.21 73.5698C68.86 72.9098 68.56 72.2298 68.21 71.5698C68.07 71.2998 67.89 70.9597 67.53 71.0397C66.91 71.1897 66.19 71.0998 65.72 71.6898C64.678 72.9398 63.516 74.0857 62.25 75.1097C61.25 76.0197 60.4 76.9898 61.52 78.3898C61.527 78.4328 61.527 78.4768 61.52 78.5198C61.534 78.6648 61.579 78.8048 61.653 78.9308C61.727 79.0568 61.827 79.1647 61.947 79.2477C62.067 79.3307 62.204 79.3868 62.348 79.4108C62.492 79.4358 62.639 79.4278 62.78 79.3898ZM53.61 80.2798C54.49 80.1998 55.36 80.1297 56.23 80.0397C56.386 80.0417 56.541 80.0087 56.681 79.9407C56.822 79.8727 56.945 79.7728 57.04 79.6498C57.921 78.2958 58.969 77.0597 60.16 75.9697C60.247 75.9057 60.321 75.8247 60.376 75.7317C60.432 75.6387 60.468 75.5358 60.483 75.4288C60.498 75.3208 60.491 75.2117 60.463 75.1077C60.435 75.0027 60.387 74.9048 60.32 74.8198C59.93 74.2398 59.63 73.5997 59.32 72.9897C59.207 72.7797 59.044 72.5997 58.846 72.4667C58.648 72.3337 58.421 72.2507 58.184 72.2247C57.946 72.1997 57.706 72.2318 57.484 72.3198C57.263 72.4078 57.065 72.5487 56.91 72.7297C55.769 74.0617 54.514 75.2937 53.16 76.4097C51.83 77.6597 51.81 77.6398 52.53 79.2598C52.608 79.4198 52.672 79.5878 52.72 79.7598C52.734 79.8578 52.771 79.9508 52.826 80.0328C52.881 80.1148 52.955 80.1838 53.04 80.2338C53.126 80.2838 53.221 80.3138 53.32 80.3218C53.418 80.3298 53.518 80.3148 53.61 80.2798ZM39.33 80.0597C39.545 80.1197 39.772 80.1217 39.988 80.0657C40.205 80.0097 40.402 79.8967 40.56 79.7397C41.62 78.8007 42.622 77.7987 43.56 76.7397C43.7 76.5697 43.94 76.3497 43.84 76.1697C43.379 75.1617 42.816 74.2027 42.16 73.3097C42.02 73.1397 41.68 73.1298 41.42 73.0898C41.16 73.0498 40.62 73.0398 40.24 72.9598C40.027 72.9118 39.805 72.9238 39.598 72.9938C39.392 73.0648 39.209 73.1907 39.07 73.3597C38.16 74.2897 37.16 75.1798 36.16 76.0798C35.16 76.9798 35.25 77.0098 35.76 78.0798C35.95 78.4698 36.13 78.8798 36.32 79.2798C36.393 79.4628 36.518 79.6197 36.68 79.7317C36.842 79.8437 37.033 79.9057 37.23 79.9097C37.933 79.9037 38.635 79.9537 39.33 80.0597ZM30.7 79.4797C30.872 79.5347 31.056 79.5427 31.232 79.5027C31.408 79.4617 31.57 79.3747 31.7 79.2497C32.54 78.4697 33.34 77.6497 34.15 76.8497C34.32 76.7017 34.436 76.5008 34.477 76.2798C34.519 76.0578 34.485 75.8288 34.38 75.6298C33.963 74.7038 33.628 73.7438 33.38 72.7598C33.347 72.5878 33.269 72.4287 33.155 72.2967C33.04 72.1647 32.893 72.0648 32.729 72.0068C32.564 71.9488 32.387 71.9358 32.215 71.9678C32.043 71.9998 31.883 72.0758 31.75 72.1898C30.44 73.2998 29.17 74.4498 27.89 75.5898C27.712 75.7198 27.568 75.8918 27.472 76.0908C27.376 76.2897 27.331 76.5087 27.34 76.7297C27.427 77.5627 27.7 78.3668 28.14 79.0798C28.43 79.5998 29.2 79.2597 29.75 79.3597C30.04 79.4097 30.35 79.4397 30.7 79.4797ZM47.21 80.4797C47.518 80.5377 47.837 80.5037 48.125 80.3807C48.414 80.2577 48.659 80.0527 48.83 79.7897C49.6 78.7157 50.485 77.7297 51.47 76.8497C51.617 76.7497 51.719 76.5967 51.754 76.4227C51.79 76.2497 51.756 76.0687 51.66 75.9197C51.32 75.2997 51.06 74.6398 50.73 74.0198C50.636 73.7748 50.481 73.5577 50.279 73.3907C50.077 73.2227 49.835 73.1097 49.577 73.0627C49.319 73.0157 49.053 73.0357 48.805 73.1207C48.557 73.2057 48.335 73.3537 48.16 73.5497C46.94 74.5497 45.86 75.7198 44.74 76.8398C44.572 76.9828 44.446 77.1698 44.378 77.3798C44.309 77.5898 44.299 77.8148 44.35 78.0298C44.56 78.7978 44.935 79.5117 45.45 80.1197C45.81 80.5797 46.44 80.3298 47.21 80.4398V80.4797ZM49.68 48.3898C49.655 47.4988 49.571 46.6097 49.43 45.7297C49.43 45.4597 49.36 45.1198 49.02 45.1898C48.332 45.2788 47.659 45.4597 47.02 45.7297C46.46 45.9897 46.71 46.6697 46.61 47.1697C46.51 47.6697 46.44 47.9498 46.39 48.3398C46.17 50.0798 45.95 51.8298 45.76 53.5798C45.69 54.2998 45.89 54.4797 46.67 54.4997C47.45 54.5197 48.08 54.4997 48.78 54.4997C49.21 54.4997 49.58 54.2898 49.54 53.7798C49.38 52.0798 49.79 50.4697 49.68 48.3497V48.3898ZM42.77 54.3398C44.36 54.2798 44.35 54.2798 44.63 52.8798C45.04 50.8798 45.14 48.7797 45.36 46.7297C45.36 46.3197 45.64 45.7298 45.06 45.5898C44.48 45.4498 44.42 46.0497 44.29 46.4297C43.847 47.9627 42.904 49.3047 41.61 50.2397C41.323 50.4387 41.046 50.6518 40.78 50.8798C40.57 51.0498 40.33 51.2298 40.36 51.5198C40.433 52.3988 40.756 53.2378 41.29 53.9398C41.7 54.4098 42.33 54.2797 42.77 54.2997V54.3398ZM32.32 12.4197C33.982 15.5817 35.158 18.9767 35.81 22.4897C36.15 22.4897 36.28 22.3297 36.32 22.1697C36.818 21.0407 37.435 19.9677 38.16 18.9697C38.8 17.7997 38.78 17.8097 37.89 16.8097C36.323 15.0127 34.434 13.5237 32.32 12.4197ZM50.72 52.9097L51 53.0497L51.18 52.6998C52.18 50.4298 53.18 48.1297 54.36 45.9197C54.46 45.7197 54.59 45.4897 54.42 45.2997C53.857 44.5737 53.182 43.9427 52.42 43.4297C52.255 43.3687 52.075 43.3687 51.91 43.4297C51.44 43.5437 51.031 43.8327 50.765 44.2377C50.5 44.6417 50.398 45.1327 50.48 45.6097C50.64 46.9497 50.72 48.2997 50.77 49.6097C50.697 50.7077 50.68 51.8097 50.72 52.9097ZM24.72 77.3898C25.79 76.4448 26.808 75.4438 27.77 74.3898C27.862 74.2968 27.927 74.1808 27.958 74.0538C27.99 73.9278 27.987 73.7947 27.95 73.6697C27.806 72.7787 27.365 71.9638 26.698 71.3558C26.032 70.7478 25.18 70.3828 24.28 70.3198C23.72 70.2298 23.53 70.4197 23.57 70.9097C23.756 73.1017 24.147 75.2708 24.74 77.3898H24.72ZM28.29 48.5397C28.99 50.3797 29 50.3697 30.02 50.5397C32.255 50.9987 34.37 51.9177 36.23 53.2397C36.765 53.5977 37.41 53.7537 38.05 53.6797C36.59 52.2397 35.32 50.9697 33.41 50.4997C31.66 49.9837 29.955 49.3277 28.31 48.5397H28.29ZM52.16 54.0898C54.39 54.2758 56.635 54.1248 58.82 53.6398C58.99 53.6398 59.18 53.5698 59.25 53.3798C59.32 53.1898 59.13 52.9897 58.95 52.8697C58.543 52.6427 58.186 52.3367 57.9 51.9697C57.842 51.8757 57.754 51.8048 57.652 51.7648C57.549 51.7248 57.436 51.7197 57.33 51.7497C55.436 52.0767 53.656 52.8818 52.16 54.0898ZM52.81 52.0898L55.92 50.8898C56.38 50.7098 56.33 50.4097 56.14 50.0497C55.884 49.5637 55.751 49.0237 55.751 48.4747C55.751 47.9257 55.884 47.3848 56.14 46.8998C56.197 46.7808 56.244 46.6568 56.28 46.5298C56.28 46.3998 56.35 46.2597 56.22 46.1697C56.19 46.1387 56.154 46.1138 56.115 46.0978C56.075 46.0808 56.033 46.0718 55.99 46.0718C55.947 46.0718 55.905 46.0808 55.865 46.0978C55.826 46.1138 55.79 46.1387 55.76 46.1697C55.566 46.3447 55.398 46.5468 55.26 46.7698C54.263 48.4498 53.451 50.2338 52.84 52.0898H52.81ZM71.93 72.9697L69.5 75.6298C69.344 75.7887 69.257 76.0017 69.257 76.2247C69.257 76.4467 69.344 76.6608 69.5 76.8198C69.675 77.0698 69.876 77.3008 70.1 77.5098C70.3 77.7098 70.42 78.0897 70.81 77.9797C71.2 77.8697 71.32 77.5398 71.42 77.1998C71.472 77.0198 71.47 76.8288 71.413 76.6507C71.356 76.4727 71.247 76.3158 71.1 76.1998C70.53 75.6098 70.61 75.3598 71.38 75.1998C71.55 75.1798 71.707 75.0987 71.821 74.9717C71.935 74.8447 71.999 74.6808 72 74.5098C72.145 74.0018 72.12 73.4617 71.93 72.9697ZM34.4 72.4097C34.505 73.3737 34.797 74.3077 35.26 75.1597C35.275 75.2137 35.305 75.2628 35.346 75.3008C35.387 75.3388 35.439 75.3647 35.494 75.3747C35.549 75.3857 35.606 75.3807 35.659 75.3597C35.711 75.3397 35.756 75.3048 35.79 75.2598C36.577 74.4948 37.278 73.6467 37.88 72.7297C36.76 72.3577 35.573 72.2317 34.4 72.3597V72.4097ZM63.94 71.8497C62.827 71.7777 61.71 71.8627 60.62 72.0997C60.31 72.0997 60.12 72.3398 60.27 72.6398C60.51 73.3488 60.846 74.0218 61.27 74.6398C62.16 74.1798 62.55 73.2797 63.27 72.7397C63.605 72.5237 63.845 72.1867 63.94 71.7997V71.8497ZM70.23 73.2997L72.3 70.9697C72.384 70.8727 72.448 70.7608 72.49 70.6398C72.63 70.2298 72.38 69.9498 71.97 70.0698C71.21 70.2798 70.48 70.5498 69.72 70.7598C69.28 70.8798 69.14 71.1198 69.32 71.5198C69.5 71.9198 69.87 72.5697 70.23 73.2497V73.2997ZM55.23 73.0397C55.055 72.8967 54.845 72.8037 54.622 72.7687C54.399 72.7337 54.171 72.7578 53.96 72.8398C53.25 72.9598 52.28 72.4697 51.87 73.1298C51.46 73.7898 52.37 74.4597 52.38 75.2197C52.38 75.3197 52.53 75.4098 52.72 75.6298L55.23 73.0397ZM47 73.4097C46.026 73.1247 45 73.0667 44 73.2397C43.93 73.2397 43.86 73.3397 43.81 73.4097C43.59 73.7797 44.04 74.9598 44.55 75.2698C45.06 75.5798 45.14 75.0597 45.37 74.8597C45.9 74.3897 46.38 73.9697 47 73.3597V73.4097ZM58.35 79.6298C58.63 79.6548 58.911 79.6548 59.19 79.6298C59.7 79.5498 60.41 79.8598 60.67 79.3998C61.02 78.7898 60.38 78.2997 60.06 77.7897C60.06 77.7897 59.92 77.7897 59.81 77.7197C59.212 78.2427 58.717 78.8738 58.35 79.5798V79.6298ZM33.06 79.4997C33.61 79.5997 34.19 79.7497 34.78 79.8097C35.37 79.8697 35.39 79.6497 35.23 79.1697C34.79 77.8097 34.42 77.7197 33.43 78.7897C33.26 78.9697 32.97 79.0798 33.06 79.4997ZM30.36 71.7197C30.025 71.5237 29.637 71.4357 29.25 71.4697C28.25 71.3897 28.12 71.6497 28.45 72.4697C28.78 73.2897 28.92 73.2397 29.58 72.7197C29.91 72.4797 30.31 72.2597 30.36 71.7197ZM37.36 51.5098C38.116 52.3918 38.938 53.2137 39.82 53.9697C39.32 51.8197 39.03 51.5098 37.33 51.5098H37.36ZM41.87 80.0298C42.63 80.0298 43.35 80.3698 44.16 80.0298C44.022 79.4238 43.744 78.8587 43.35 78.3798C42.689 78.7607 42.162 79.3378 41.84 80.0298H41.87ZM33.55 53.0298C32.655 52.5608 31.722 52.1697 30.76 51.8597C30.631 51.8337 30.499 51.8337 30.37 51.8597C30.2 51.8597 30 51.8597 29.97 52.0997C29.959 52.1867 29.972 52.2757 30.007 52.3567C30.042 52.4377 30.098 52.5077 30.17 52.5597C30.303 52.6737 30.46 52.7567 30.63 52.7997C31.579 53.0037 32.551 53.0808 33.52 53.0298H33.55ZM49.59 80.3198C50.315 80.4588 51.063 80.4208 51.77 80.2098C51.18 78.6298 51.07 78.5998 50.02 79.7098C49.866 79.9048 49.722 80.1088 49.59 80.3198ZM67.16 78.6398C67.59 78.8108 68.07 78.8108 68.5 78.6398C69.38 78.4698 69.43 78.3198 68.88 77.5798C68.33 76.8398 68.16 76.9498 67.71 77.5798C67.446 77.8848 67.258 78.2478 67.16 78.6398ZM26.16 79.0198C26.48 79.0198 26.72 79.0197 26.69 78.6097C26.707 78.4337 26.659 78.2577 26.556 78.1147C26.453 77.9707 26.302 77.8698 26.13 77.8298C25.85 77.8298 25.29 78.2998 25.35 78.5698C25.45 78.9698 25.84 78.9698 26.16 79.0198Z" fill="#537F4D"/>
<path d="M63.6701 71.9695C63.7501 71.9655 63.8311 71.9775 63.9061 72.0065C63.9811 72.0345 64.0501 72.0785 64.1071 72.1345C64.1651 72.1915 64.2101 72.2595 64.2391 72.3335C64.2691 72.4085 64.2831 72.4885 64.2801 72.5695C64.2801 72.9495 63.8401 73.3495 63.4001 73.3895C63.3321 73.4035 63.2611 73.4035 63.1931 73.3875C63.1251 73.3725 63.0611 73.3415 63.0051 73.2995C62.9501 73.2565 62.9051 73.2015 62.8731 73.1395C62.8411 73.0775 62.8231 73.0095 62.8201 72.9395C62.8241 72.7035 62.9121 72.4765 63.0681 72.2985C63.2231 72.1215 63.4371 72.0045 63.6701 71.9695Z" fill="#537F4D"/>
<path d="M55.48 73.3699C55.587 73.3509 55.698 73.3579 55.803 73.3879C55.907 73.4179 56.004 73.4719 56.085 73.5449C56.166 73.6189 56.229 73.7089 56.27 73.8109C56.31 73.9119 56.328 74.0209 56.32 74.1299C56.32 74.5099 56.17 74.8299 55.73 74.8799C55.614 74.8979 55.496 74.893 55.382 74.864C55.268 74.835 55.161 74.784 55.068 74.713C54.974 74.642 54.896 74.5529 54.838 74.4509C54.78 74.3489 54.743 74.2359 54.73 74.1199C54.722 74.0189 54.737 73.9189 54.772 73.8239C54.807 73.7299 54.862 73.6439 54.933 73.5729C55.004 73.5019 55.09 73.4469 55.184 73.4119C55.279 73.3769 55.38 73.3619 55.48 73.3699Z" fill="#537F4D"/>
<path d="M14.28 74.5599C13.99 74.4699 13.58 74.5599 13.36 74.1899C13.256 74.0439 13.2 73.8689 13.2 73.6899C13.2 73.5099 13.256 73.3359 13.36 73.1899C13.465 73.0299 13.624 72.9149 13.809 72.8649C13.993 72.8149 14.189 72.8349 14.36 72.9199C14.61 72.9999 14.73 73.2199 14.88 73.3899C15.03 73.5599 15.33 73.8899 15.14 74.2399C14.95 74.5899 14.66 74.6099 14.28 74.5599Z" fill="#537F4D"/>
<path d="M4.99996 73.8702C4.60996 73.8202 4.53996 73.5402 4.55996 73.2002C4.55996 72.6902 5.02996 72.2002 5.41996 72.2002C5.59766 72.2132 5.76345 72.2942 5.88275 72.4262C6.00205 72.5582 6.06556 72.7322 6.05996 72.9102C6.09996 73.3902 5.51996 73.8902 4.99996 73.8702Z" fill="#537F4D"/>
<path d="M21.87 74.6798C21.43 74.6798 21.05 74.6798 20.87 74.2498C20.834 74.0958 20.841 73.9348 20.891 73.7848C20.94 73.6358 21.03 73.5018 21.15 73.3998C21.47 73.0598 21.78 73.2098 22.08 73.3998C22.174 73.4718 22.279 73.5288 22.39 73.5698C22.63 73.6598 22.8 73.7898 22.77 74.0798C22.74 74.3698 22.52 74.4499 22.3 74.5299C22.16 74.5889 22.016 74.6388 21.87 74.6798Z" fill="#537F4D"/>
<path d="M1.16 71.1998C1.1697 71.3068 1.157 71.4148 1.1228 71.5168C1.0886 71.6198 1.0336 71.7138 0.961197 71.7928C0.888897 71.8728 0.800799 71.9368 0.702499 71.9808C0.604099 72.0258 0.497799 72.0487 0.389999 72.0497C0.0799994 72.0497 0.01 71.8297 0 71.5697C0 71.0397 0.289998 70.5698 0.669998 70.6398C0.807898 70.6518 0.935701 70.7178 1.0269 70.8218C1.118 70.9258 1.1657 71.0608 1.16 71.1998Z" fill="#537F4D"/>
</svg>
