<svg width="89" height="96" viewBox="0 0 89 96" fill="none" xmlns="http://www.w3.org/2000/svg">
<path d="M20.2551 6.03003C19.6531 5.60403 19.1481 5.05598 18.7751 4.41998C19.1451 4.12998 19.3651 4.31 19.6351 4.56C20.8251 5.69 22.155 6.66003 23.295 7.84003C23.535 8.18603 23.889 8.43799 24.295 8.54999C24.338 8.48699 24.3681 8.41698 24.3831 8.34198C24.3981 8.26798 24.3981 8.19103 24.3831 8.11603C24.3681 8.04203 24.3391 7.97102 24.2961 7.90802C24.2531 7.84502 24.1991 7.791 24.1351 7.75C22.4751 6.44 21.255 4.75 19.595 3.38C19.465 3.233 19.3511 3.07202 19.2551 2.90002C19.1911 2.84102 19.1511 2.76203 19.1401 2.67603C19.1291 2.59003 19.1481 2.50299 19.1951 2.42999C19.3751 2.17999 19.5951 2.32999 19.7451 2.42999C20.5551 3.13999 21.3651 3.86003 22.1451 4.59003C22.5851 5.00003 22.9751 5.43998 23.4951 5.97998C23.5941 5.76298 23.6121 5.51802 23.5461 5.28802C23.4801 5.05902 23.3341 4.86098 23.1351 4.72998C22.1351 3.81998 21.235 2.86999 20.295 1.92999C20.135 1.77999 19.9751 1.62997 19.8351 1.46997C19.6951 1.30997 19.6151 1.06997 19.8351 0.909973C19.8771 0.875973 19.9251 0.849984 19.9771 0.833984C20.0291 0.818984 20.0831 0.81297 20.1371 0.81897C20.1911 0.82397 20.2441 0.841004 20.2911 0.867004C20.3391 0.893004 20.381 0.927971 20.415 0.969971C20.805 1.36997 21.1751 1.79001 21.5551 2.20001C21.7651 2.41001 21.935 2.69002 22.345 2.65002C22.585 2.02002 22.0951 1.53999 21.9451 0.98999C21.8851 0.77999 21.7951 0.550012 22.0551 0.450012C22.3151 0.350012 22.4751 0.55 22.5751 0.75C22.7951 1.23 22.995 1.75 23.235 2.31C23.945 1.63 23.3851 0.61 24.1451 0C24.9551 1.32 23.6451 2.52999 24.1451 3.85999C24.4931 3.20599 24.7201 2.49501 24.8151 1.76001C24.9251 1.38001 24.715 0.64001 25.235 0.76001C25.755 0.88001 25.4751 1.49997 25.4051 1.90997C25.2351 2.90997 25.0051 3.90997 24.8351 4.90997C24.6851 5.49097 24.713 6.10498 24.915 6.66998C25.535 5.81998 25.3751 4.84 25.6951 4C25.9241 3.09 26.229 2.20003 26.605 1.34003C27.285 1.72003 26.935 2.22003 26.795 2.59003C26.269 4.08203 25.91 5.62901 25.725 7.20001C25.635 7.68901 25.635 8.19099 25.725 8.67999C26.075 7.41999 26.3951 6.15002 26.7751 4.90002C26.9951 4.17002 27.2951 3.45999 27.5551 2.73999C27.6251 2.54999 27.7651 2.44 27.9451 2.5C27.9851 2.514 28.0221 2.53698 28.0541 2.56598C28.0851 2.59498 28.1101 2.63098 28.1271 2.66998C28.1441 2.70998 28.153 2.75198 28.152 2.79498C28.152 2.83798 28.1421 2.88098 28.1251 2.91998C27.9851 3.40998 27.8351 3.92 27.6551 4.38C26.9291 6.432 26.433 8.55897 26.175 10.72C26.685 10.72 26.675 10.33 26.725 10.07C27.015 8.51001 27.4951 6.99999 27.9351 5.48999C28.0651 5.03999 28.1051 4.48999 28.9351 4.29999C28.2351 7.29999 26.9351 9.98001 26.9351 13.14C27.2961 12.839 27.535 12.415 27.605 11.95C28.211 10.077 28.8281 8.21299 29.4551 6.35999C29.5151 6.15399 29.5921 5.95301 29.6851 5.76001C29.7351 5.71401 29.7971 5.68401 29.8641 5.67401C29.9311 5.66401 30 5.674 30.061 5.703C30.122 5.732 30.1731 5.77798 30.2081 5.83698C30.2421 5.89498 30.2591 5.96203 30.2551 6.03003C30.1951 6.28003 30.0951 6.51001 30.0151 6.76001L27.7051 13.41C27.5471 13.704 27.4771 14.037 27.5021 14.37C27.5271 14.703 27.646 15.022 27.845 15.29C29.095 12.72 29.515 9.97 30.925 7.62C31.455 7.89 31.3951 8.22002 31.2151 8.52002C29.9851 10.66 29.4751 13.07 28.5651 15.33C28.3511 15.804 28.3121 16.34 28.4551 16.84C29.1661 15.822 29.7701 14.733 30.2551 13.59C30.8651 12.32 31.365 10.99 31.975 9.71997C32.175 9.29997 32.4151 8.46997 32.9051 8.71997C33.3951 8.96997 32.9051 9.62002 32.6451 10.02C31.3851 12.29 30.3851 14.7 29.2551 17.03C29.0051 17.58 28.685 18.21 29.165 18.85C29.595 18.85 29.6751 18.54 29.7551 18.3C30.6551 15.76 32.0251 13.43 33.0751 10.95C33.1481 10.796 33.2351 10.648 33.3351 10.51C33.3751 10.459 33.4311 10.421 33.4941 10.403C33.5561 10.385 33.6231 10.388 33.6851 10.41C33.7281 10.416 33.7691 10.432 33.8051 10.456C33.8411 10.48 33.8711 10.512 33.8931 10.55C33.9161 10.587 33.929 10.629 33.933 10.672C33.936 10.716 33.93 10.759 33.915 10.8C33.82 11.084 33.7071 11.361 33.5751 11.63C32.7251 13.35 31.8251 15.06 31.0151 16.8C30.5141 17.832 30.1771 18.935 30.0151 20.07C30.6751 19.98 30.705 19.45 30.845 19.07C31.775 16.91 32.9151 14.84 33.9551 12.73C34.1671 12.183 34.5361 11.71 35.0151 11.37C35.2851 11.7 35.0951 11.92 35.0151 12.14C33.7651 14.48 32.5251 16.82 31.4651 19.26C31.1651 19.96 30.8751 20.68 30.6351 21.41C30.5341 21.646 30.4871 21.901 30.4971 22.157C30.5081 22.413 30.5751 22.663 30.6951 22.89C31.3411 22.058 31.8661 21.139 32.2551 20.16C33.2551 18.16 34.1851 16.16 35.1551 14.16C35.2351 14.01 35.3451 13.87 35.4351 13.73C35.5251 13.59 35.8351 13.01 36.2151 13.26C36.5951 13.51 36.215 13.86 36.045 14.13C34.463 16.77 33.06 19.513 31.845 22.34C31.627 22.668 31.4791 23.036 31.4091 23.423C31.3381 23.81 31.3471 24.207 31.4351 24.59C31.8651 23.82 32.1951 23.25 32.5051 22.67L36.0251 16.11C36.0851 15.993 36.152 15.88 36.225 15.77C36.405 15.49 36.565 15.05 36.985 15.29C37.405 15.53 37.055 15.84 36.915 16.08C36.325 17.03 35.7251 18.03 35.1951 19.03C34.1251 21.03 32.9351 22.97 32.0151 25.03C31.8351 25.344 31.7611 25.708 31.8021 26.068C31.8431 26.427 31.9981 26.765 32.2451 27.03C32.8281 26.421 33.2801 25.7 33.5751 24.91C34.5751 22.71 35.5751 20.48 36.5751 18.26C36.6991 17.94 36.875 17.643 37.095 17.38C37.245 17.22 37.4351 17.05 37.6451 17.19C37.8551 17.33 37.8151 17.54 37.6451 17.75C36.4251 19.67 35.6451 21.8 34.5851 23.82C33.7481 25.319 33.0781 26.905 32.5851 28.55C33.0151 28.64 33.095 28.32 33.225 28.08C34.605 25.62 35.9951 23.16 37.3651 20.69C37.7521 20.173 38.084 19.616 38.355 19.03C38.368 18.977 38.3931 18.928 38.4261 18.885C38.4601 18.843 38.502 18.808 38.55 18.782C38.598 18.757 38.6511 18.742 38.7051 18.738C38.7591 18.734 38.8141 18.742 38.8651 18.76C39.1751 18.89 39.125 19.17 39.035 19.42C38.944 19.611 38.8341 19.792 38.7051 19.96C36.7051 22.85 35.195 26.05 33.425 29.08C33.4011 29.114 33.3811 29.151 33.3651 29.19C33.2651 29.46 32.9751 29.8 33.3651 29.98C33.7551 30.16 33.8151 29.7 33.9551 29.46C35.6151 26.673 37.2811 23.88 38.9551 21.08C39.0651 20.9 39.1351 20.69 39.5051 20.67C39.7951 21.06 39.5051 21.4 39.3351 21.75C38.2351 23.54 37.125 25.31 36.045 27.11C35.405 28.18 34.825 29.27 34.225 30.36C34.109 30.54 34.0181 30.735 33.9551 30.94C33.8751 31.3 33.725 31.82 34.105 31.94C34.485 32.06 34.675 31.57 34.845 31.27C36.405 28.53 37.9551 25.77 39.5051 23.02C39.6951 22.69 39.855 22.15 40.295 22.37C40.735 22.59 40.3851 23.06 40.2051 23.37C39.3851 24.83 38.325 26.14 37.545 27.62C36.655 29.32 35.7151 30.99 34.8151 32.69C34.5551 33.18 34.275 33.69 34.985 34.28C35.91 32.468 36.9351 30.708 38.0551 29.01C39.1651 27.36 39.9051 25.48 41.1551 23.89C41.5551 24.25 41.325 24.47 41.225 24.68C40.495 26.23 39.555 27.68 38.675 29.14C37.795 30.6 37.1451 31.81 36.3251 33.14C35.8151 33.96 35.8551 34.96 35.3251 35.76C35.1951 35.95 35.3851 36.16 35.4551 36.36C36.4551 39 37.365 41.65 38.355 44.29C38.595 44.92 39.2551 45.41 38.9951 46.21C38.9891 46.274 38.9991 46.338 39.0231 46.397C39.0481 46.456 39.0861 46.509 39.1351 46.55C40.0551 46.76 39.8951 47.32 39.6551 47.94C39.6051 48.05 39.5851 48.26 39.6551 48.31C40.6551 49.07 40.0351 50.31 40.7451 51.31C41.2151 51.92 41.1651 52.91 41.425 53.73C42.272 56.466 42.8841 59.27 43.2551 62.11C43.3441 62.579 43.458 63.043 43.595 63.5C44.285 63.24 44.3151 62.75 44.2151 62.22C44.1151 61.69 43.9851 60.87 43.8151 60.22C42.9991 56.809 42.9611 53.258 43.7051 49.83C44.0251 48.27 43.3651 47.24 42.7051 46.09C41.5151 44.16 40.345 42.22 39.175 40.28C39.126 40.161 39.0931 40.037 39.0751 39.91C39.5271 40.099 39.8861 40.458 40.0751 40.91C41.2011 42.723 42.335 44.53 43.475 46.33C43.57 46.429 43.6821 46.51 43.8051 46.57C44.0851 46.28 43.9651 46.02 43.8051 45.78C42.5651 43.94 41.6851 41.89 40.3751 40.07C39.3751 38.66 38.5451 37.07 37.5151 35.69C37.3951 35.53 37.205 35.3 37.425 35.13C37.6451 34.96 37.915 35.18 38.035 35.39C39.365 37.71 41.1951 39.73 42.3251 42.19C42.8351 43.221 43.4841 44.176 44.2551 45.03C44.3971 44.791 44.4731 44.518 44.4731 44.24C44.4731 43.962 44.3971 43.689 44.2551 43.45C43.4101 41.773 42.461 40.15 41.415 38.59C40.535 37.03 39.695 35.52 38.845 34.03C38.725 33.82 38.525 33.6 38.845 33.23C40.175 34.61 40.455 36.54 41.595 38.01C42.735 39.48 43.5951 41.14 44.6551 42.66C44.8551 41.66 43.9851 40.9 43.9651 39.95C44.4451 40.01 44.4751 40.48 44.7151 40.76C44.9551 41.04 44.965 41.14 45.225 41.03C45.323 40.983 45.402 40.904 45.449 40.806C45.497 40.707 45.509 40.596 45.485 40.49C45.414 40.148 45.31 39.813 45.175 39.49C44.423 37.494 43.5551 35.544 42.5751 33.65C42.3561 33.281 42.2231 32.867 42.1851 32.44C43.2351 33.44 43.5351 34.76 44.1851 35.92C44.3961 36.335 44.5731 36.767 44.7151 37.21C44.7601 37.385 44.852 37.544 44.98 37.671C45.109 37.797 45.2691 37.887 45.4451 37.93C45.5221 37.467 45.422 36.993 45.165 36.6C44.695 35.74 44.545 34.76 44.035 33.91C43.962 33.753 43.9241 33.583 43.9241 33.41C43.9241 33.237 43.962 33.067 44.035 32.91C44.432 33.294 44.7191 33.777 44.8651 34.31C45.1851 35.15 45.565 35.96 45.925 36.79C45.995 36.95 46.105 37.11 46.295 37.06C46.348 37.047 46.3981 37.022 46.4401 36.987C46.4821 36.951 46.515 36.906 46.537 36.856C46.558 36.805 46.5671 36.75 46.563 36.695C46.5601 36.64 46.5431 36.587 46.5151 36.54C46.0791 35.567 45.711 34.564 45.415 33.54C44.595 31.44 43.7951 29.32 42.9951 27.21C42.7661 26.732 42.6201 26.217 42.5651 25.69C43.1351 25.69 43.2151 26.06 43.3051 26.43C44.1491 29.472 45.253 32.436 46.605 35.29C46.605 35.29 46.6851 35.29 46.8151 35.37C47.6551 34.37 46.3151 33.43 46.6451 32.44C47.2151 32.31 47.145 33.03 47.735 33.2C47.235 31.08 46.5151 29.14 46.1451 27.1C45.7751 25.06 45.075 23.23 44.855 21.22C45.078 21.378 45.264 21.584 45.399 21.823C45.534 22.061 45.6141 22.327 45.6351 22.6C46.0501 25.547 46.75 28.448 47.725 31.26C47.815 31.49 47.8651 31.8 48.2051 31.75C48.5451 31.7 48.5751 31.42 48.6351 31.18C48.6801 31.016 48.6801 30.844 48.6351 30.68C47.6351 27.63 47.235 24.45 46.475 21.34C46.315 20.7 45.905 20.07 46.225 19.34C46.755 19.42 46.6951 19.91 46.7651 20.2C47.2051 22.2 47.5651 24.2 48.0051 26.2C48.0541 26.987 48.306 27.748 48.735 28.41C48.854 28.246 48.931 28.056 48.959 27.855C48.987 27.654 48.9651 27.45 48.8951 27.26C48.5351 24.95 48.1551 22.63 47.7751 20.32C47.7701 20.237 47.7701 20.153 47.7751 20.07C47.7751 19.63 47.4151 18.91 47.9551 18.84C48.4951 18.77 48.3351 19.53 48.3951 19.92C48.6251 21.52 48.7751 23.13 49.0151 24.73C49.1811 25.802 49.4561 26.854 49.8351 27.87C50.2351 26.23 49.705 24.64 49.605 23.04C49.505 21.44 49.515 19.76 49.415 17.9C49.65 18.056 49.8381 18.274 49.9581 18.53C50.0781 18.785 50.125 19.069 50.095 19.35C50.095 20.63 50.0951 21.91 50.1451 23.19C50.1321 24.096 50.2951 24.996 50.6251 25.84C50.7221 25.829 50.817 25.799 50.902 25.75C50.987 25.701 51.0611 25.635 51.1191 25.556C51.1771 25.477 51.2181 25.387 51.2401 25.291C51.2621 25.195 51.2631 25.096 51.2451 25C51.1151 23.43 51.065 21.855 51.095 20.28C51.095 19.64 51.0151 19 50.9451 18.37C50.8861 18.134 50.8881 17.888 50.951 17.653C51.014 17.419 51.1361 17.204 51.3051 17.03C51.8451 19.11 51.4851 21.03 51.675 23.13C51.926 22.982 52.1241 22.758 52.2391 22.49C52.3541 22.222 52.3811 21.924 52.3151 21.64C52.2431 20.277 52.337 18.91 52.595 17.57C52.618 17.398 52.6721 17.232 52.7551 17.08C52.8251 16.94 52.9251 16.76 53.1351 16.84C53.3451 16.92 53.3351 17.09 53.3051 17.26C53.1851 18.02 53.0451 18.77 52.9451 19.53C52.9231 19.923 52.9231 20.317 52.9451 20.71C53.6011 19.888 54.1521 18.988 54.5851 18.03C54.6851 17.8 54.7051 17.52 54.9351 17.37C55.0441 17.309 55.173 17.291 55.295 17.32C55.324 17.332 55.3501 17.351 55.3721 17.375C55.3931 17.398 55.4091 17.426 55.4191 17.457C55.4281 17.487 55.4311 17.519 55.4271 17.551C55.4231 17.583 55.4121 17.613 55.3951 17.64C54.9601 18.492 54.7081 19.425 54.6551 20.38L56.6551 19.04C56.8651 18.9 57.1051 18.67 57.3151 18.97C57.5251 19.27 57.2651 19.46 57.0551 19.62C56.0551 20.39 54.995 21.18 53.925 21.9C53.739 22.004 53.578 22.148 53.454 22.32C53.33 22.493 53.2451 22.691 53.2051 22.9C54.5151 22.03 55.675 21.24 56.855 20.48C57.195 20.25 57.685 19.79 57.975 20.22C58.265 20.65 57.6151 20.89 57.3051 21.11C55.8561 21.987 54.4691 22.962 53.1551 24.03C52.9731 24.132 52.819 24.276 52.704 24.45C52.589 24.624 52.5171 24.823 52.4951 25.03C53.3851 24.48 54.2051 24.03 54.9351 23.49C55.9351 22.74 57.0951 22.22 58.1351 21.49C58.3751 21.33 58.695 21.1 58.915 21.49C59.135 21.88 58.8451 22.06 58.5851 22.24C58.2971 22.425 58.0001 22.596 57.6951 22.75C55.6251 23.825 53.6601 25.091 51.8251 26.53C51.5751 26.73 51.225 26.87 51.225 27.38C51.781 27.138 52.3031 26.822 52.7751 26.44C54.5951 25.196 56.5071 24.093 58.4951 23.14C58.6861 23.042 58.892 22.978 59.105 22.95C59.167 22.948 59.229 22.962 59.285 22.99C59.341 23.018 59.389 23.059 59.425 23.11C59.455 23.162 59.47 23.22 59.47 23.28C59.47 23.34 59.455 23.398 59.425 23.45C59.155 23.666 58.8631 23.854 58.5551 24.01C55.9621 25.297 53.4751 26.785 51.1151 28.46C50.7561 28.687 50.4561 28.996 50.2391 29.36C50.0211 29.725 49.8931 30.136 49.8651 30.56C52.8651 28.38 55.705 26.14 59.105 24.78C59.265 24.71 59.4351 24.78 59.6951 25.02C57.8451 26.13 55.9951 27.2 54.1951 28.33C52.3731 29.422 50.7161 30.769 49.2751 32.33C49.9451 31.94 50.6351 31.59 51.2751 31.16C53.4851 29.64 55.8151 28.33 58.1551 27.02C58.4991 26.843 58.8531 26.686 59.2151 26.55C59.2931 26.509 59.384 26.498 59.47 26.518C59.556 26.538 59.6331 26.588 59.6851 26.66C59.8051 26.88 59.685 27.07 59.475 27.19C59.29 27.303 59.1001 27.407 58.9051 27.5C55.7081 29.159 52.6131 31.006 49.6351 33.03C49.2451 33.3 48.905 33.63 48.545 33.93C48.347 34.067 48.1931 34.257 48.0991 34.478C48.0051 34.699 47.9761 34.943 48.0151 35.18C49.8751 34.28 51.3451 32.89 53.0851 31.93C54.7901 30.791 56.6021 29.819 58.4951 29.03C58.5211 29.222 58.4831 29.417 58.3851 29.584C58.2871 29.751 58.1351 29.88 57.9551 29.95C54.5721 31.784 51.3001 33.814 48.1551 36.03C47.7451 36.31 47.2051 36.5 47.2451 37.27C47.7201 37.101 48.1651 36.858 48.5651 36.55C51.5771 34.601 54.722 32.864 57.975 31.35C58.19 31.21 58.4381 31.131 58.6951 31.12C58.7801 31.14 58.8611 31.174 58.9351 31.22C59.0351 31.55 58.7751 31.66 58.5551 31.78C57.9051 32.11 57.2451 32.45 56.5551 32.78C53.3321 34.352 50.2451 36.188 47.3251 38.27C46.6551 38.75 46.6651 38.76 46.4951 39.55C46.8651 39.73 47.0451 39.39 47.2651 39.24C50.2561 37.23 53.4181 35.487 56.7151 34.03C57.0351 33.88 57.3751 33.79 57.7151 33.67C58.0551 33.55 58.175 33.5 58.285 33.74C58.395 33.98 58.1651 34.18 57.925 34.3L56.3751 35.03C53.3941 36.309 50.5461 37.88 47.8751 39.72C47.8101 39.779 47.7361 39.827 47.6551 39.86C45.7651 40.38 45.7251 41.86 45.6551 43.47C46.6431 43.105 47.5831 42.622 48.4551 42.03C51.0051 40.65 53.6651 39.5 56.3351 38.36C56.5731 38.261 56.8211 38.187 57.0751 38.14C57.1151 38.124 57.1571 38.117 57.2001 38.119C57.2431 38.121 57.285 38.131 57.324 38.15C57.362 38.169 57.3961 38.195 57.4241 38.228C57.4521 38.261 57.473 38.299 57.485 38.34C57.496 38.403 57.4861 38.469 57.4551 38.525C57.4241 38.582 57.3741 38.626 57.3151 38.65C56.8781 38.923 56.4161 39.155 55.9351 39.34C52.2791 40.8 48.7511 42.559 45.3851 44.6C45.2851 44.66 45.245 44.81 45.285 45.08L49.035 43.34C50.325 42.74 51.625 42.15 52.915 41.54C54.284 41.089 55.5681 40.413 56.7151 39.54C56.9751 41.27 57.215 42.94 57.475 44.61C57.735 46.28 57.345 47.91 57.925 49.51C58.595 49.4 58.575 48.94 58.595 48.51C58.779 46.566 58.8591 44.613 58.8351 42.66C58.8241 40.805 58.6301 38.956 58.2551 37.14C58.1151 36.6 57.9051 36.54 57.4451 36.77C53.9651 38.49 50.2651 39.77 47.1451 42.19C46.9451 42.35 46.715 42.58 46.485 42.32C46.255 42.06 46.485 41.79 46.735 41.61C47.638 40.87 48.621 40.233 49.665 39.71L56.2551 36.45C56.4851 36.34 56.7151 36.21 56.9551 36.12C58.0451 35.72 58.4451 35.92 58.7051 37.04C58.8541 37.661 58.9541 38.293 59.0051 38.93C59.1351 40.63 59.1951 42.33 59.3351 44.02C59.4121 45.084 59.378 46.153 59.235 47.21C59.235 47.66 59.2351 48.11 59.1551 48.58C59.9251 48.52 59.8351 48 59.8651 47.58C59.9551 46.23 59.955 44.86 60.105 43.51C60.369 40.692 60.4461 37.859 60.3351 35.03C60.3351 34.74 60.3351 34.45 60.3351 34.03C60.4851 34.15 60.6061 34.302 60.6891 34.475C60.7721 34.648 60.8151 34.838 60.8151 35.03C60.9601 36.767 60.9601 38.513 60.8151 40.25C60.6551 42.49 60.615 44.75 60.535 47C60.535 47.21 60.5951 47.45 60.8751 47.43C61.1551 47.41 61.095 47.21 61.105 47.03C61.285 43.81 61.7951 40.61 61.9651 37.38C62.0251 36.27 61.9051 35.17 61.9651 34.07C61.9651 33.76 61.8351 33.39 62.3051 32.99C62.8551 35.15 62.3051 37.18 62.3051 39.21C62.3051 41.24 61.845 43.21 61.855 45.28C62.335 45.28 62.325 44.98 62.355 44.73C62.465 43.89 62.545 43.04 62.665 42.2C63.255 39.13 63.6351 36.03 64.2551 33.03C64.2581 32.752 64.3341 32.48 64.4741 32.24C64.6151 32 64.8141 31.8 65.0551 31.66C64.1101 36.123 63.561 40.661 63.415 45.22C63.945 44.348 64.2351 43.351 64.2551 42.33C64.5251 40.48 64.9551 38.67 65.2551 36.84C65.4131 35.354 65.6871 33.883 66.0751 32.44C66.2251 32.03 66.1751 31.23 66.6951 31.36C67.2151 31.49 66.8351 32.15 66.6951 32.54C66.4951 33.238 66.3471 33.95 66.2551 34.67C65.8451 36.58 65.455 38.5 65.1151 40.43C64.8851 41.72 64.7451 43.03 64.5851 44.34C64.5851 44.53 64.505 44.82 64.785 44.86C65.065 44.9 65.235 44.68 65.235 44.38C65.383 42.856 65.7471 41.362 66.3151 39.94C67.3311 36.867 68.1861 33.743 68.8751 30.58C68.9311 30.189 69.0601 29.813 69.2551 29.47C69.4051 29.24 69.5751 29.03 69.8651 29.16C70.1551 29.29 70.095 29.52 69.985 29.71C69.433 30.998 69.011 32.338 68.725 33.71C67.725 37.13 66.725 40.56 65.785 44.05C65.869 44.077 65.9591 44.087 66.0471 44.078C66.1361 44.07 66.222 44.043 66.3 44C66.3771 43.957 66.4451 43.898 66.5001 43.828C66.5541 43.757 66.593 43.676 66.6151 43.59C67.3651 41.69 68.135 39.79 68.795 37.86C69.552 35.381 70.4391 32.945 71.4551 30.56C71.6461 30.178 71.7931 29.775 71.8951 29.36C71.9851 28.99 72.105 28.61 72.675 28.61C72.776 29.503 72.525 30.4 71.975 31.11C70.803 33.304 69.8911 35.626 69.2551 38.03C68.7051 39.367 68.237 40.736 67.855 42.13C67.809 42.24 67.79 42.359 67.8 42.477C67.8111 42.596 67.85 42.71 67.915 42.81C68.113 42.808 68.3071 42.747 68.4711 42.635C68.6351 42.523 68.7611 42.364 68.8351 42.18C69.5481 40.453 70.301 38.743 71.095 37.05C71.645 35.9 72.3051 34.8 72.8851 33.66C73.4991 32.537 73.9601 31.336 74.2551 30.09C74.3041 29.838 74.3851 29.593 74.4951 29.36C74.6551 29.03 74.8251 28.5 75.2651 28.68C75.7051 28.86 75.3651 29.32 75.2651 29.68C74.0151 32.96 72.265 36.01 70.795 39.19C70.371 39.86 70.0981 40.614 69.9951 41.4C70.4751 41.53 70.6351 41.23 70.7451 40.97C72.5551 36.87 75.0951 33.11 76.6151 28.88C76.6931 28.68 76.8081 28.497 76.9551 28.34C77.0081 28.269 77.0821 28.217 77.1671 28.192C77.2511 28.167 77.342 28.17 77.425 28.2C77.4761 28.218 77.5211 28.248 77.5591 28.286C77.5961 28.325 77.6241 28.372 77.6411 28.423C77.6571 28.474 77.6621 28.529 77.6541 28.582C77.646 28.635 77.626 28.686 77.595 28.73C77.205 29.54 76.7851 30.33 76.3851 31.13C74.9651 33.863 73.5881 36.607 72.2551 39.36C72.2341 39.391 72.2201 39.427 72.2151 39.464C72.2091 39.501 72.212 39.539 72.222 39.575C72.233 39.611 72.2511 39.645 72.2751 39.673C72.3001 39.702 72.3311 39.725 72.3651 39.74C72.8611 39.184 73.2481 38.54 73.5051 37.84C74.7351 35.69 75.825 33.46 77.235 31.4C77.835 30.52 78.4251 29.62 79.0751 28.78C79.4051 28.36 79.5451 27.87 79.8251 27.44C79.8751 27.369 79.951 27.32 80.037 27.303C80.122 27.286 80.211 27.303 80.285 27.35C80.415 27.41 80.4251 27.55 80.3951 27.68C80.2111 28.381 79.8691 29.031 79.3951 29.58C77.3701 32.29 75.596 35.179 74.095 38.21C74.01 38.448 73.9601 38.698 73.9451 38.95C74.2071 38.838 74.4421 38.67 74.6321 38.458C74.8221 38.245 74.963 37.993 75.045 37.72C75.955 35.66 77.4451 33.97 78.5851 32.07C79.2851 30.89 80.0351 29.75 80.7751 28.59C80.9051 28.38 81.0451 28.16 81.2051 27.95C81.2521 27.878 81.3251 27.827 81.4081 27.807C81.4921 27.786 81.5801 27.798 81.6551 27.84C81.7021 27.867 81.743 27.904 81.774 27.948C81.805 27.992 81.8271 28.043 81.8361 28.097C81.8461 28.15 81.843 28.205 81.829 28.257C81.815 28.31 81.7901 28.358 81.7551 28.4C81.2051 29.21 80.635 30.01 80.105 30.84C78.955 32.64 77.8251 34.46 76.7051 36.27C76.6351 36.429 76.5911 36.597 76.5751 36.77C76.4951 36.85 76.3951 36.93 76.3151 37.02C76.2351 37.11 76.0551 37.29 76.2451 37.41C76.4351 37.53 76.5251 37.34 76.5751 37.19C76.6101 37.075 76.6371 36.958 76.6551 36.84C78.2351 34.84 79.7951 32.77 81.3851 30.75C82.2051 29.75 83.065 28.69 83.915 27.67C83.999 27.574 84.0971 27.489 84.2051 27.42C84.4651 27.23 84.7651 27.07 84.9951 27.42C85.2251 27.77 84.9951 27.86 84.7551 28.05C82.5651 30.41 80.5591 32.934 78.7551 35.6C78.6851 35.7 78.5851 35.81 78.7551 35.99C80.9701 33.489 83.407 31.193 86.035 29.13C86.125 29.06 86.2751 29.06 86.4651 29.25C85.6251 30.79 84.0051 31.64 83.0051 33.09C83.6351 32.62 84.255 32.14 84.915 31.71C85.55 31.14 86.3161 30.735 87.1451 30.53C86.2451 31.53 85.1451 32 84.5551 33.17C85.3891 32.913 86.2041 32.599 86.9951 32.23C87.4651 32.06 88.1651 31.47 88.4351 32.23C88.6351 32.78 87.7351 32.8 87.3151 33.02C86.4151 33.341 85.5531 33.76 84.7451 34.27L86.345 33.86C86.645 33.78 86.9251 33.66 87.2151 33.6C87.5051 33.54 88.215 33.27 88.345 33.79C88.475 34.31 87.8051 34.29 87.4351 34.39C85.7331 34.806 84.0621 35.34 82.4351 35.99C83.5351 35.85 84.625 35.7 85.725 35.57C85.984 35.545 86.2451 35.545 86.5051 35.57C86.6651 35.57 86.865 35.57 86.915 35.8C86.965 36.03 86.7751 36.21 86.5751 36.24C85.6751 36.4 84.7751 36.53 83.8751 36.65C82.1151 36.839 80.3691 37.132 78.6451 37.53C79.9551 37.585 81.2681 37.485 82.5551 37.23C83.5551 37.13 84.635 37.13 85.675 37.07C85.8951 37.07 86.1251 37.13 86.1251 37.4C86.1251 37.67 85.955 37.69 85.785 37.72C85.315 37.8 84.8451 37.87 84.3751 37.91C82.2951 38.09 80.2251 38.24 78.1551 38.44C77.3321 38.425 76.5231 38.658 75.8351 39.11C76.6271 39.156 77.4221 39.156 78.2151 39.11C80.2851 38.86 82.3751 38.96 84.4551 38.81C84.5841 38.795 84.715 38.795 84.845 38.81C85.165 38.87 85.665 38.81 85.665 39.22C85.665 39.63 85.1251 39.56 84.8251 39.57C82.4051 39.66 79.975 39.71 77.545 39.78C76.504 39.805 75.4671 39.915 74.4451 40.11C74.0801 40.149 73.7281 40.265 73.4111 40.449C73.0941 40.633 72.819 40.882 72.605 41.18C71.821 41.451 71.114 41.907 70.545 42.51C71.787 42.575 73.0331 42.487 74.2551 42.25C76.5761 41.927 78.9131 41.723 81.2551 41.64C81.4711 41.625 81.6881 41.625 81.9051 41.64C82.0751 41.64 82.2751 41.64 82.3051 41.9C82.3351 42.16 82.1051 42.27 81.9051 42.3C81.4771 42.359 81.0461 42.392 80.6151 42.4C76.925 42.53 73.2551 42.79 69.6151 43.21C69.3641 43.199 69.114 43.253 68.889 43.367C68.665 43.481 68.4741 43.651 68.3351 43.86C70.3351 44.05 72.2151 43.46 74.1251 43.33C76.0211 43.045 77.94 42.945 79.855 43.03C79.703 43.254 79.4941 43.433 79.2491 43.549C79.0051 43.665 78.7341 43.714 78.4651 43.69C75.2151 43.91 71.965 44.15 68.725 44.47C67.941 44.531 67.176 44.745 66.475 45.1L70.3051 45.03C71.6851 44.96 73.0751 44.84 74.4651 44.82C75.8221 44.658 77.1971 44.739 78.5251 45.06C78.2351 45.61 77.8051 45.53 77.3951 45.53C74.3951 45.53 71.3951 45.53 68.3951 45.63C67.4851 45.63 66.5851 45.74 65.675 45.84C65.3221 45.855 64.977 45.954 64.67 46.128C64.362 46.301 64.1001 46.546 63.9051 46.84C66.4051 46.96 68.715 46.51 71.035 46.55C73.355 46.59 75.665 46.18 77.985 46.64C77.855 47.26 77.4551 47.17 77.1351 47.18C75.8351 47.18 74.525 47.18 73.225 47.18C70.665 47.18 68.105 47.29 65.545 47.41C62.985 47.53 60.7251 48.18 59.0051 50.2C59.3551 50.46 59.7451 50.27 60.1151 50.25C64.535 50 68.9551 49.76 73.3851 49.94C73.9861 49.898 74.585 50.048 75.095 50.37C74.765 50.9 74.225 50.73 73.795 50.69C68.85 50.398 63.8911 50.512 58.9651 51.03C58.2221 51.101 57.5101 51.359 56.8951 51.78C58.7851 51.78 60.4851 51.72 62.175 51.56C65.3351 51.24 68.5051 51.2 71.675 51.19C71.848 51.175 72.0221 51.175 72.1951 51.19C72.2591 51.192 72.3191 51.218 72.3661 51.262C72.4121 51.307 72.4401 51.366 72.4451 51.43C72.4541 51.493 72.4381 51.558 72.4011 51.61C72.3631 51.662 72.3081 51.698 72.2451 51.71C71.9911 51.761 71.733 51.788 71.475 51.79C68.995 51.88 66.4751 51.89 64.0551 52.06C61.6351 52.23 59.285 52.18 56.915 52.49C56.732 52.478 56.5501 52.517 56.3881 52.601C56.2251 52.686 56.0901 52.813 55.9951 52.97H59.8651C63.465 52.97 67.065 53.09 70.665 53.29C70.838 53.275 71.0121 53.275 71.1851 53.29C71.3951 53.35 71.5951 53.45 71.5651 53.72C71.5351 53.99 71.2651 54 71.0651 54C70.6351 54 70.1951 54 69.7651 53.89C67.7441 53.607 65.704 53.493 63.665 53.55C61.665 53.65 59.7651 53.36 57.8051 53.55C56.8051 53.64 55.9051 53.72 54.9551 53.77C54.5761 53.838 54.2271 54.019 53.9551 54.29C50.7171 56.65 47.86 59.493 45.485 62.72C44.961 63.447 44.396 64.145 43.795 64.81C44.681 65.086 45.621 65.145 46.535 64.98C48.865 64.83 51.185 64.54 53.535 64.3H53.665C54.568 64.19 55.4811 64.19 56.3851 64.3C56.5951 65.19 56.8651 66.08 57.0251 66.98C57.0351 67.282 56.984 67.582 56.876 67.864C56.767 68.145 56.6041 68.403 56.3951 68.62C55.7491 69.524 55.3561 70.584 55.2551 71.69C54.9151 74.36 54.6151 77.02 54.2551 79.69C54.0301 80.791 53.8891 81.908 53.8351 83.03C53.8351 84.34 53.5351 85.6 53.5651 86.9C53.5951 88.2 53.565 89.54 53.725 90.9C53.74 91.382 53.6071 91.857 53.3441 92.261C53.0811 92.665 52.7011 92.978 52.2551 93.16C51.5151 93.408 50.756 93.592 49.985 93.71C46.725 94.16 43.4651 94.71 40.1851 94.98C37.2291 95.238 34.2651 94.582 31.6951 93.1C31.4531 92.974 31.25 92.784 31.108 92.552C30.965 92.319 30.8881 92.053 30.8851 91.78C30.5051 88.08 30.4951 84.37 30.2551 80.67C30.2151 78.705 29.912 76.754 29.355 74.87C29.259 74.545 29.2021 74.209 29.1851 73.87C29.0941 72.924 28.717 72.027 28.105 71.3C27.48 70.484 26.9781 69.581 26.6151 68.62C26.4031 68.118 26.354 67.562 26.475 67.03C26.715 66.03 26.9851 65.77 28.0851 65.82C30.5431 65.941 33.0071 65.831 35.4451 65.49C35.4951 65.35 35.565 65.25 35.545 65.2C34.645 63.52 34.745 61.63 34.425 59.84C34.4081 59.567 34.3091 59.306 34.1411 59.09C33.9741 58.874 33.745 58.714 33.485 58.63C32.606 58.264 31.782 57.779 31.035 57.19C30.655 56.9 30.0351 56.71 30.4351 55.99C30.5851 55.67 30.1351 55.52 29.9051 55.36C29.3791 55.049 28.9601 54.585 28.7051 54.03C29.7051 54.15 30.2651 54.96 31.0851 55.36C31.8431 55.882 32.6901 56.261 33.5851 56.48C32.7051 55.66 31.7851 54.88 30.9451 54.02C29.9791 53.249 29.0971 52.377 28.3151 51.42C30.6751 52.29 31.9951 54.52 34.1551 55.9C34.1751 55.712 34.1491 55.522 34.0771 55.348C34.0051 55.173 33.8911 55.019 33.7451 54.9C31.9551 53.42 30.365 51.71 28.475 50.33C28.335 50.221 28.172 50.147 27.998 50.112C27.825 50.077 27.646 50.083 27.475 50.13C25.715 50.43 24.0151 50.95 22.2751 51.32C22.0681 51.41 21.8411 51.444 21.6161 51.42C21.3921 51.395 21.1781 51.312 20.9951 51.18C22.0261 50.747 23.1031 50.432 24.2051 50.24C25.2751 49.9 26.3651 49.64 27.4351 49.35C27.4351 48.94 27.1451 48.8 26.9651 48.91C25.9651 49.53 24.8651 49.32 23.8251 49.53C21.8751 49.93 19.885 50.18 17.925 50.53C17.753 50.562 17.5791 50.586 17.4051 50.6C17.2971 50.614 17.1891 50.585 17.1031 50.52C17.0161 50.454 16.9601 50.357 16.9451 50.25C16.8951 49.97 17.1051 49.86 17.3351 49.88C18.7651 49.846 20.1871 49.655 21.5751 49.31C22.9051 49.09 24.2251 48.82 25.5751 48.58C25.6831 48.568 25.7881 48.531 25.8801 48.472C25.9711 48.413 26.049 48.334 26.105 48.24C23.135 48.298 20.1821 48.701 17.3051 49.44C16.9911 49.577 16.6451 49.626 16.3051 49.58C16.1251 49.52 15.9651 49.43 15.9651 49.25C15.9721 49.163 16.0101 49.082 16.0731 49.021C16.1351 48.96 16.2181 48.925 16.3051 48.92L22.6951 47.81C23.2951 47.71 23.9051 47.64 24.4951 47.55C24.7151 47.55 24.945 47.46 24.925 47.18C24.905 46.9 24.715 46.94 24.545 46.88C23.556 46.666 22.533 46.666 21.545 46.88C19.305 47.12 17.0751 47.48 14.8351 47.77C14.4021 47.8 13.968 47.8 13.535 47.77C13.315 47.77 13.0751 47.67 13.0651 47.42C13.0551 47.17 13.2851 47.09 13.5151 47.07C14.8051 46.94 16.1051 46.86 17.3951 46.7C19.3951 46.47 21.3251 46.3 23.3951 45.86C23.0841 45.587 22.7101 45.396 22.3061 45.305C21.9031 45.214 21.4831 45.226 21.0851 45.34L14.535 46.4C13.743 46.56 12.9271 46.56 12.1351 46.4C13.0051 45.76 14.0651 45.92 15.0151 45.69C15.9651 45.46 17.075 45.35 18.095 45.18C19.105 45.023 20.107 44.813 21.095 44.55C19.77 44.338 18.42 44.338 17.095 44.55C15.095 44.73 13.095 44.97 11.095 45.17C10.835 45.185 10.5751 45.185 10.3151 45.17C10.2281 45.18 10.141 45.158 10.069 45.108C9.99703 45.059 9.94605 44.985 9.92505 44.9C9.92505 44.63 10.125 44.57 10.355 44.55C11.735 44.41 13.1151 44.24 14.4951 44.13C16.3951 43.99 18.2851 43.8 20.2751 43.5C20.1181 43.207 19.867 42.975 19.561 42.845C19.256 42.714 18.915 42.691 18.595 42.78C15.445 43.49 12.1951 43.26 9.02509 43.78C8.98209 43.786 8.93808 43.786 8.89508 43.78C8.64508 43.78 8.31508 43.86 8.26508 43.52C8.21508 43.18 8.51509 43.12 8.77509 43.09C9.72509 42.98 10.6751 42.87 11.6251 42.78L17.3251 42.28C17.5141 42.302 17.7051 42.275 17.8801 42.202C18.0551 42.128 18.2091 42.01 18.3251 41.86C16.6391 41.754 14.9481 41.774 13.2651 41.92C11.6591 41.971 10.0561 42.108 8.46509 42.33C8.20609 42.36 7.94406 42.36 7.68506 42.33C7.40506 42.33 6.98506 42.38 6.99506 41.97C7.00506 41.56 7.37504 41.71 7.60504 41.69C9.81504 41.51 12.015 41.23 14.235 41.19C14.978 41.293 15.7341 41.238 16.4551 41.03C14.9401 40.91 13.4191 40.91 11.9051 41.03C10.2151 41.03 8.52508 41.14 6.83508 41.2H6.57507C6.30507 41.2 5.98509 41.2 5.96509 40.84C5.94509 40.48 6.27503 40.48 6.53503 40.47C7.75503 40.47 8.96506 40.41 10.1851 40.4C11.3561 40.447 12.5301 40.403 13.6951 40.27C13.9851 40.22 14.5351 40.38 14.4951 39.9C14.4551 39.42 14.0151 39.6 13.6551 39.63C12.4051 39.75 11.1451 39.83 9.89508 39.92C8.55808 39.929 7.22208 40.012 5.89508 40.17C5.77308 40.215 5.64304 40.231 5.51404 40.215C5.38504 40.2 5.26209 40.153 5.15509 40.08C5.09509 39.71 5.34504 39.64 5.60504 39.57C6.37204 39.414 7.15206 39.337 7.93506 39.34C9.47406 39.31 11.0081 39.163 12.5251 38.9C11.4751 38.38 11.4751 38.37 9.68506 38.48C8.16506 38.56 6.63507 38.56 5.13507 38.78C4.02507 38.94 3.55505 38.18 2.92505 37.65C2.61505 37.38 2.92509 37.11 3.27509 37.03C3.62509 36.95 4.04506 37.17 4.56506 36.89C3.63506 36.89 2.85508 36.89 2.08508 36.89C1.78908 36.85 1.51606 36.71 1.31006 36.494C1.10506 36.277 0.979078 35.997 0.955078 35.7C0.955078 35.39 1.20505 35.28 1.48505 35.25C1.76505 35.22 1.91507 35.25 2.13507 35.25H2.76508C2.81508 34.42 2.03506 34.05 1.68506 33.31C2.96506 33.38 3.54506 34.56 4.68506 34.82C4.68506 34.21 4.16507 34.09 3.88507 33.82C3.60507 33.55 3.10509 33.26 3.40509 32.92C3.70509 32.58 4.06507 33.07 4.32507 33.3C4.88507 33.78 5.40509 34.3 6.02509 34.75C6.02509 33.85 5.02504 33.35 5.22504 32.31C6.09504 32.72 6.22505 33.63 6.73505 34.17C7.25805 34.744 7.81904 35.282 8.41504 35.78C7.92504 35.03 7.41508 34.28 6.95508 33.51C6.80508 33.28 6.42503 33.01 6.78503 32.75C7.14503 32.49 7.35505 32.88 7.48505 33.13C7.99005 33.977 8.53706 34.798 9.12506 35.59C9.34006 36.062 9.72107 36.439 10.1951 36.65C10.5051 36.41 10.2851 36.21 10.1951 36C9.71507 35.15 9.19507 34.29 8.75507 33.43C8.61907 33.266 8.53904 33.064 8.52704 32.851C8.51404 32.639 8.57006 32.429 8.68506 32.25C9.86506 33.63 10.2451 35.43 11.6351 36.82C11.4351 35.4 10.4551 34.45 10.5551 33.15C11.8551 34.72 12.1751 36.86 13.7551 38.6C13.5521 37.657 13.2331 36.744 12.8051 35.88C12.4371 35.151 12.242 34.347 12.235 33.53C13.385 35.32 13.5951 37.53 15.0851 39.13C15.1451 39.2 15.3251 39.13 15.5751 39.21C15.1351 37.45 14.285 35.87 13.975 33.97C14.157 34.022 14.32 34.125 14.446 34.267C14.571 34.409 14.6541 34.583 14.6851 34.77C15.2251 36.26 15.765 37.77 16.285 39.23C16.393 39.55 16.579 39.838 16.824 40.07C17.07 40.302 17.3691 40.47 17.6951 40.56C17.2151 38.41 16.4751 36.5 15.9951 34.48C16.5951 34.48 16.5851 34.77 16.6551 35L18.2551 40.3C18.2891 40.567 18.4021 40.818 18.5811 41.019C18.7591 41.221 18.9941 41.364 19.2551 41.43C18.8451 39.5 18.4551 37.68 18.0551 35.86C18.0551 35.66 17.935 35.45 17.915 35.25C17.917 35.189 17.934 35.129 17.9641 35.075C17.993 35.021 18.0351 34.975 18.0851 34.94C18.2751 34.87 18.4151 34.99 18.4651 35.18C18.5151 35.37 18.555 35.59 18.605 35.8C19.055 37.53 19.2051 39.34 19.8151 41.03C19.9121 41.512 20.117 41.966 20.415 42.358C20.713 42.749 21.096 43.068 21.535 43.29C20.955 40.53 20.6051 37.94 19.8351 35.37C20.5051 35.37 20.465 35.69 20.545 35.92C21.165 37.84 21.285 39.86 21.735 41.81C21.905 42.54 22.5251 43.15 22.3151 43.98C22.3151 44.08 22.5851 44.28 22.7651 44.39C22.8231 44.415 22.8861 44.428 22.9501 44.428C23.0131 44.428 23.0761 44.415 23.1351 44.39C23.3451 44.33 23.325 44.15 23.285 43.97C22.939 42.695 22.6791 41.399 22.5051 40.09C22.3761 39.16 22.1931 38.238 21.9551 37.33C21.7691 36.872 21.7691 36.358 21.9551 35.9C22.3611 36.408 22.5991 37.03 22.6351 37.68C22.9651 39.3 23.2851 40.94 23.5251 42.58C23.6751 43.58 24.1851 44.49 24.3051 45.52C24.3051 45.99 24.9951 46.07 25.6451 46.52L23.6451 37.82C24.2851 38.06 24.3151 38.54 24.4051 38.91C24.7051 40.03 24.975 41.15 25.175 42.28C25.4 43.601 25.7621 44.894 26.2551 46.14C26.3691 46.412 26.4 46.711 26.345 47C26.345 47.29 26.485 47.47 26.985 47.51C26.605 45.26 25.9851 43.07 26.2551 40.8C26.6451 41.24 26.4351 41.8 26.5251 42.23C26.8551 43.77 27.1951 45.31 27.5251 46.86C27.5251 47.06 27.585 47.3 27.785 47.42C29.855 48.7 31.4351 50.54 33.3651 51.99C33.4951 52.1 33.6351 52.2 33.9351 51.99C31.8351 50.29 30.0751 48.3 28.1351 46.51C28.4451 46.09 28.6551 46.3 28.8351 46.51C29.8351 47.45 30.8351 48.37 31.8351 49.35C32.2351 49.76 32.7151 50.04 33.1351 50.41C33.2751 50.54 33.475 50.75 33.675 50.5C33.875 50.25 33.6751 50.1 33.5251 49.96C32.6371 49.276 31.826 48.498 31.105 47.64C30.105 46.64 29.185 45.56 28.235 44.51C28.146 44.445 28.0781 44.356 28.0411 44.252C28.0031 44.149 27.9981 44.037 28.0251 43.93C28.3351 43.7 28.4451 43.93 28.6251 44.16C29.6251 45.24 30.7051 46.31 31.7651 47.38C31.8991 47.486 32.0471 47.574 32.2051 47.64C32.3351 48.01 32.4251 48.43 33.0051 48.38C33.0051 47.88 32.6651 47.69 32.2651 47.57C31.0751 46.11 29.8951 44.64 28.7051 43.19C28.4351 42.86 27.985 42.58 28.605 42.19C28.815 42.06 28.605 41.9 28.605 41.77C28.605 41.64 28.1551 41.35 28.2751 40.77C29.9451 42.06 30.935 43.91 32.665 44.98C32.072 43.873 31.2941 42.875 30.3651 42.03C29.6151 41.2 28.845 40.39 28.095 39.56C27.925 39.38 27.7251 39.13 28.0251 38.92C28.3251 38.71 28.4251 38.92 28.5751 39.14L31.2551 42.14C31.4651 42.38 31.645 42.7 32.165 42.58C31.771 41.837 31.2611 41.162 30.6551 40.58C29.9151 39.75 29.1451 38.94 28.3751 38.13C28.0151 37.75 28.0751 37.43 28.3751 36.99C28.6751 36.55 28.795 36.48 29.175 36.74C29.345 36.86 29.4551 37.06 29.6851 37.04C29.9151 37.02 29.745 36.71 29.795 36.56C29.915 36.16 30.1851 36.08 30.4551 36.38C30.6761 36.696 30.87 37.031 31.035 37.38C31.635 37.12 31.3151 36.49 31.6951 36.11C32.2951 36.77 31.695 37.51 31.915 38.31L32.6351 36.92C32.8551 38.19 32.3751 39.39 32.4651 40.82C33.3851 39.88 32.865 38.59 33.795 37.65C33.655 39.53 33.0451 41.15 33.2551 42.87C33.9851 41.75 34.085 40.37 34.855 39.26C34.935 41.26 33.915 43 33.605 45.05C33.85 44.931 34.0661 44.761 34.2391 44.55C34.4121 44.339 34.536 44.094 34.605 43.83C34.961 42.691 35.42 41.586 35.975 40.53C36.033 40.421 36.0641 40.299 36.0641 40.175C36.0641 40.051 36.033 39.929 35.975 39.82C35.495 38.54 35.035 37.26 34.595 35.97C34.498 35.688 34.342 35.431 34.136 35.215C33.931 34.999 33.6811 34.83 33.4051 34.72C30.4051 33.28 27.3251 32.01 24.2551 30.72C23.3451 30.33 22.4451 29.89 21.5651 29.43C21.3451 29.32 20.9351 29.13 21.2151 28.77C21.4951 28.41 21.6851 28.77 21.9051 28.89C25.1251 30.78 28.745 31.79 32.095 33.4C32.249 33.439 32.4061 33.459 32.5651 33.46C32.3351 33.01 31.9451 32.94 31.6251 32.8C28.9651 31.64 26.3551 30.41 23.7751 29.08C22.5851 28.46 21.425 27.81 20.235 27.2C20.005 27.09 19.675 26.97 19.855 26.67C20.035 26.37 20.3151 26.51 20.5551 26.67C21.5051 27.19 22.4551 27.67 23.3951 28.22C25.7651 29.56 28.2951 30.59 30.7651 31.74C30.9751 31.84 31.1951 32.05 31.5551 31.89C31.3161 31.504 30.9681 31.198 30.5551 31.01L23.3051 27.03C22.3051 26.5 21.3051 25.94 20.3751 25.38C19.8881 25.123 19.4641 24.761 19.1351 24.32C19.5951 24.03 19.8451 24.37 20.1351 24.53C23.3851 26.41 26.7451 28.11 30.0651 29.88C30.4151 30.136 30.8241 30.298 31.2551 30.35C31.4121 30.62 31.6361 30.845 31.9061 31.003C32.1761 31.161 32.482 31.246 32.795 31.25C32.633 30.988 32.406 30.772 32.136 30.623C31.867 30.474 31.5631 30.397 31.2551 30.4C30.6751 29.34 29.535 29 28.595 28.4C25.645 26.62 22.595 24.94 19.595 23.22C19.342 23.099 19.1201 22.922 18.9471 22.701C18.7741 22.481 18.653 22.224 18.595 21.95C19.789 22.544 20.9441 23.212 22.0551 23.95C23.1951 24.56 24.295 25.24 25.415 25.9C26.535 26.56 27.5451 27.22 28.6551 27.79C29.7381 28.492 30.8641 29.126 32.0251 29.69C32.1151 29.2 31.7351 29.15 31.5251 28.99C28.9601 27.156 26.247 25.537 23.415 24.15C21.987 23.344 20.629 22.421 19.355 21.39C19.182 21.287 19.038 21.14 18.938 20.965C18.838 20.79 18.786 20.592 18.785 20.39C19.674 20.83 20.5041 21.381 21.2551 22.03C22.1051 22.54 22.9051 23.14 23.7551 23.64C24.6051 24.14 25.5251 24.55 26.3951 25.04C27.2651 25.53 28.1051 26.04 28.9551 26.54C29.7261 27.144 30.573 27.645 31.475 28.03C31.625 27.2 31.025 26.9 30.545 26.6C28.775 25.45 26.965 24.36 25.175 23.23C23.195 22.03 21.2551 20.74 19.2551 19.48C18.9551 19.29 18.3551 19.11 18.6251 18.71C18.8951 18.31 19.3051 18.76 19.6251 18.96L29.6251 25.24C29.7761 25.301 29.934 25.344 30.095 25.37C30.004 25.145 29.868 24.94 29.696 24.768C29.525 24.596 29.32 24.461 29.095 24.37C27.405 23.26 25.7451 22.1 23.9451 21.14C22.0831 20.043 20.3141 18.795 18.6551 17.41C18.4951 17.29 18.305 17.15 18.355 16.89C18.675 16.59 18.8951 16.89 19.1251 17.03C20.8251 18.36 22.6351 19.52 24.4451 20.7C25.1501 21.169 25.897 21.574 26.675 21.91C26.262 21.294 25.723 20.773 25.095 20.38L18.9051 15.9C18.6251 15.69 18.345 15.49 18.095 15.26C17.845 15.03 17.475 14.9 17.795 14.57C18.115 14.24 18.3451 14.57 18.5751 14.75L27.9551 21.82C28.2651 22.05 28.5951 22.26 28.9551 22.46C29.1051 22.55 29.295 22.61 29.425 22.46C29.555 22.31 29.4251 22.07 29.2751 21.93C28.0351 20.99 26.8351 20.01 25.5751 19.11C23.3011 17.472 21.1331 15.692 19.0851 13.78C18.7251 13.45 17.965 13.03 18.345 12.63C18.725 12.23 19.1651 12.95 19.4951 13.26C21.9071 15.476 24.4521 17.543 27.1151 19.45C27.5451 19.75 27.8751 20.26 28.5551 20.33C28.6251 19.76 28.2351 19.54 27.9351 19.26C26.4921 17.963 24.9731 16.754 23.3851 15.64C21.7651 14.38 20.2551 13.03 18.7551 11.68C18.4951 11.45 17.9351 11.16 18.2551 10.8C18.5751 10.44 18.945 10.94 19.175 11.17C21.735 13.73 24.7551 15.73 27.6351 18.03C27.9151 17.48 27.6351 17.22 27.2751 16.95C25.7151 15.65 24.1551 14.36 22.6251 13.04C21.3251 11.92 20.0551 10.77 18.7751 9.62C18.6231 9.477 18.4881 9.31501 18.3751 9.14001C18.3551 9.10301 18.345 9.06202 18.345 9.02002C18.345 8.97802 18.3551 8.93702 18.3751 8.90002C18.3891 8.87002 18.41 8.84302 18.436 8.82202C18.461 8.80002 18.4911 8.78402 18.5231 8.77502C18.5551 8.76602 18.588 8.76303 18.621 8.76703C18.654 8.77203 18.6861 8.78299 18.7151 8.79999C18.9651 8.96599 19.202 9.14998 19.425 9.34998C21.355 11.03 23.2551 12.79 25.2551 14.49C25.7911 15.007 26.414 15.427 27.095 15.73C26.825 14.84 26.6351 14.37 25.8051 13.99C24.6981 13.345 23.6881 12.547 22.8051 11.62C21.4851 10.47 20.255 9.25003 19.035 8.03003C18.915 7.91003 18.785 7.79998 18.665 7.66998C18.602 7.61298 18.562 7.53397 18.553 7.44897C18.544 7.36497 18.5661 7.28002 18.6151 7.21002C18.6431 7.17602 18.6781 7.14898 18.7181 7.13098C18.7581 7.11198 18.801 7.10303 18.845 7.10303C18.889 7.10303 18.932 7.11198 18.972 7.13098C19.011 7.14898 19.0471 7.17602 19.0751 7.21002C19.3751 7.45002 19.6551 7.70998 19.9351 7.97998C21.4971 9.58198 23.139 11.104 24.855 12.54C25.175 12.885 25.5781 13.143 26.0251 13.29C26.0401 12.954 25.9641 12.619 25.8061 12.322C25.6481 12.025 25.4121 11.775 25.1251 11.6C23.0721 10.021 21.1121 8.32502 19.2551 6.52002C19.0751 6.36002 18.7351 6.21999 18.8751 5.92999C19.0151 5.63999 19.3651 5.71001 19.6551 5.82001C19.9451 5.93001 20.0751 5.92999 20.2751 5.98999C20.2751 6.46999 20.5651 6.74999 20.8951 7.04999C21.7851 7.84999 22.665 8.67 23.535 9.5C23.899 9.935 24.3871 10.249 24.9351 10.4C23.5751 8.75002 21.8151 7.50003 20.2551 6.03003ZM56.8751 48.03C56.6751 48.25 56.445 48.47 56.665 48.79C56.665 48.79 56.8451 48.88 56.8751 48.85C57.1651 48.58 56.9351 48.31 56.8751 48.04C57.3851 46.4 56.725 44.79 56.725 43.16C56.73 43.052 56.694 42.946 56.623 42.864C56.552 42.782 56.453 42.73 56.345 42.72C56.218 42.699 56.0881 42.714 55.9691 42.763C55.8511 42.813 55.7491 42.895 55.675 43C55.633 43.096 55.6111 43.2 55.6111 43.305C55.6111 43.41 55.633 43.514 55.675 43.61C55.925 44.85 56.165 46.09 56.415 47.33C56.436 47.473 56.4891 47.61 56.5681 47.73C56.6471 47.851 56.7521 47.954 56.8751 48.03ZM29.6551 71.68C30.2031 74.01 30.6301 76.366 30.9351 78.74C31.0951 80.74 31.2451 82.65 31.4551 84.6C31.5651 85.67 31.615 85.67 32.595 85.77C34.324 85.967 36.0661 86.033 37.8051 85.97C40.8051 85.78 43.8651 85.6 46.8951 85.34C48.6241 85.205 50.3381 84.913 52.0151 84.47C52.5551 84.32 52.8151 84.1 52.8751 83.54C53.2851 79.93 53.7051 76.34 54.1251 72.74C54.2151 71.95 54.3051 71.16 54.3951 70.42C46.1251 70.95 37.9251 71.33 29.6551 71.68ZM44.8651 61.8C45.0331 61.781 45.194 61.72 45.332 61.622C45.47 61.524 45.5811 61.393 45.6551 61.24C48.0031 58.209 50.7751 55.532 53.8851 53.29C54.1761 53.108 54.4151 52.854 54.5801 52.553C54.7451 52.252 54.8291 51.913 54.8251 51.57C54.7681 49.265 54.402 46.977 53.735 44.77C53.445 43.88 53.3551 43.83 52.4451 44.21C50.9251 44.84 49.4451 45.46 47.9351 46.21C46.9481 46.654 46.001 47.183 45.105 47.79C44.865 47.935 44.6631 48.134 44.5151 48.373C44.3671 48.611 44.2781 48.881 44.2551 49.16C43.8351 51.727 43.7041 54.334 43.8651 56.93C43.8801 57.1 43.8801 57.27 43.8651 57.44C43.9081 58.945 44.2481 60.427 44.8651 61.8ZM39.665 94.22C41.255 94.3 42.7451 93.75 44.3051 93.62C46.6381 93.446 48.9571 93.112 51.2451 92.62C51.4801 92.606 51.7091 92.544 51.9181 92.435C52.1261 92.327 52.3101 92.176 52.4561 91.992C52.6031 91.808 52.7081 91.595 52.7671 91.367C52.8251 91.139 52.835 90.902 52.795 90.67C52.81 90.417 52.81 90.163 52.795 89.91C52.525 87.63 52.4451 87.57 50.1351 88.07C49.5221 88.286 48.8891 88.437 48.2451 88.52C45.0351 88.52 41.865 89.09 38.665 89.1C36.755 89.1 34.8451 89.1 32.9351 89.1C31.7251 89.05 31.7251 88.99 31.7651 90.17C31.7651 90.46 31.7651 90.76 31.8251 91.06C31.8531 91.466 31.9911 91.858 32.2261 92.191C32.4601 92.524 32.7821 92.787 33.1551 92.95C35.2181 93.805 37.432 94.236 39.665 94.22ZM46.4051 68.03C48.6971 68.003 50.9851 67.826 53.2551 67.5C53.9881 67.426 54.7021 67.223 55.3651 66.9C55.4711 66.851 55.566 66.78 55.644 66.691C55.721 66.603 55.7791 66.499 55.8141 66.387C55.8491 66.275 55.8601 66.157 55.8461 66.04C55.8331 65.924 55.795 65.811 55.735 65.71C55.66 65.46 55.4911 65.249 55.2631 65.122C55.0351 64.995 54.7671 64.962 54.5151 65.03C53.1451 65.3 51.7351 65.11 50.3751 65.32C47.2421 65.713 44.0911 65.937 40.9351 65.99C38.5151 66.09 36.095 66.21 33.675 66.4C32.162 66.533 30.6431 66.587 29.1251 66.56C28.7361 66.516 28.3431 66.543 27.9651 66.64C27.8651 66.673 27.776 66.734 27.709 66.815C27.642 66.896 27.6001 66.995 27.5861 67.099C27.5731 67.204 27.5891 67.31 27.6331 67.405C27.6771 67.501 27.7471 67.582 27.8351 67.64C28.2401 67.894 28.6871 68.074 29.1551 68.17C30.3911 68.389 31.6401 68.523 32.8951 68.57C37.4151 68.73 41.8951 68.13 46.4051 68.03ZM40.2551 53.16C40.1181 53.188 39.9891 53.244 39.8751 53.325C39.7611 53.406 39.666 53.51 39.595 53.63C38.835 54.63 38.0851 55.63 37.3351 56.63C36.5851 57.63 36.6251 57.58 37.3351 58.35C38.5071 59.767 39.5551 61.282 40.4651 62.88C40.8351 63.45 41.1751 64.04 41.5651 64.6C41.7551 64.86 41.9351 65.23 42.3751 65.08C42.8151 64.93 42.6451 64.58 42.6451 64.3C42.6451 64.02 42.585 63.45 42.545 63.03C42.323 60.746 41.9081 58.484 41.3051 56.27C41.1561 55.176 40.7991 54.12 40.2551 53.16ZM40.8951 65.16C40.3321 63.911 39.6631 62.714 38.8951 61.58C38.2441 60.514 37.498 59.51 36.665 58.58C36.365 58.17 36.015 58.18 35.735 58.58C35.589 58.792 35.462 59.016 35.355 59.25C34.795 60.49 35.5751 64.18 36.5751 65.04C36.6511 65.116 36.7411 65.175 36.8411 65.215C36.9411 65.254 37.0481 65.273 37.1551 65.27L40.8951 65.16ZM45.035 46.87C47.421 45.571 49.8751 44.4 52.3851 43.36C52.7181 43.261 52.998 43.034 53.165 42.73C53.315 42.41 53.5251 42.25 53.8751 42.47C54.0451 42.58 54.205 42.59 54.295 42.41C54.335 42.343 54.351 42.265 54.342 42.187C54.332 42.11 54.2971 42.038 54.2421 41.983C54.1871 41.928 54.115 41.893 54.037 41.883C53.96 41.873 53.8821 41.89 53.8151 41.93C53.6551 41.988 53.498 42.055 53.345 42.13C52.175 42.66 50.9851 43.13 49.8251 43.74C48.3251 44.48 46.7651 45.12 45.3251 45.98C44.9551 46.26 44.9651 46.48 45.0751 46.91L45.035 46.87ZM39.4551 51.03C38.7331 51.916 38.0651 52.844 37.4551 53.81C36.9751 54.52 36.4551 55.22 36.0251 55.94C35.9711 56.009 35.9421 56.093 35.9421 56.18C35.9421 56.267 35.9711 56.351 36.0251 56.42C36.2451 56.62 36.4251 56.42 36.5651 56.29C37.7061 55.052 38.7341 53.713 39.6351 52.29C39.7181 52.201 39.779 52.094 39.816 51.977C39.852 51.861 39.862 51.738 39.845 51.617C39.827 51.496 39.7831 51.381 39.7161 51.28C39.6491 51.178 39.5591 51.093 39.4551 51.03ZM35.3051 55.42C35.9621 54.849 36.5191 54.173 36.9551 53.42C37.6851 52.32 38.4251 51.23 39.1451 50.13C39.3151 49.86 39.3851 49.52 39.0551 49.35C38.7251 49.18 38.5951 49.51 38.4551 49.7C37.9951 50.36 37.565 51.05 37.095 51.7C36.316 52.83 35.7131 54.07 35.3051 55.38V55.42ZM38.3051 46.97C37.0751 49.03 35.7451 50.76 35.0051 53.03C35.3451 52.89 35.5051 52.87 35.5651 52.79C36.4951 51.41 37.4251 50.02 38.3351 48.62C38.4971 48.364 38.5771 48.065 38.5621 47.762C38.5481 47.46 38.4411 47.169 38.2551 46.93L38.3051 46.97ZM54.605 43.84C54.586 45.056 54.7441 46.269 55.0751 47.44C55.3551 48.64 55.405 49.89 55.795 51.08C56.275 48.584 55.8381 45.999 54.5651 43.8L54.605 43.84ZM41.0151 70.38H42.6951C43.1951 70.38 43.515 70.2 43.485 69.63C43.455 69.06 43.0551 69.1 42.6551 69.13C42.2551 69.16 41.655 69.22 41.535 69.9C41.521 69.976 41.4811 70.046 41.4221 70.096C41.3621 70.145 41.2871 70.173 41.2101 70.173C41.1321 70.173 41.057 70.145 40.998 70.096C40.938 70.046 40.8981 69.976 40.8851 69.9C40.6651 69.08 40.1051 69.13 39.4951 69.19C39.1251 69.19 38.7851 69.27 38.8351 69.76C38.8301 69.857 38.8471 69.953 38.8851 70.043C38.9231 70.132 38.9811 70.211 39.0541 70.275C39.1281 70.338 39.214 70.384 39.308 70.41C39.401 70.435 39.5 70.438 39.595 70.42C40.065 70.36 40.5451 70.38 41.0151 70.38ZM28.0151 68.85C28.3151 69.74 28.5951 70.39 29.5551 70.51V69.92C29.5551 69.7 29.555 69.46 29.855 69.46C30.023 69.483 30.177 69.568 30.285 69.7C30.38 69.838 30.445 69.995 30.475 70.16C30.615 70.82 31.1051 70.88 31.6551 70.84C31.9551 70.84 32.3151 70.84 32.3851 70.49C32.4241 70.321 32.4101 70.145 32.3461 69.984C32.2811 69.823 32.1691 69.685 32.0251 69.59C31.8291 69.502 31.624 69.435 31.415 69.39C30.375 69.03 29.255 69.29 28.035 68.85H28.0151ZM37.1151 86.85V86.92C36.6851 86.92 36.2551 86.84 35.8251 86.83C35.5751 86.83 35.2551 86.76 35.175 87.09C35.036 87.447 35.036 87.843 35.175 88.2C35.345 88.48 35.7251 88.37 36.0251 88.36C36.5651 88.36 36.3951 87.88 36.4651 87.58C36.5351 87.28 36.5851 87.14 36.8251 87.11C36.8891 87.102 36.9551 87.109 37.0161 87.13C37.0781 87.151 37.1341 87.185 37.1811 87.229C37.2271 87.274 37.264 87.329 37.287 87.39C37.31 87.45 37.3201 87.515 37.3151 87.58C37.2351 88.4 37.7651 88.31 38.3151 88.34C39.0451 88.34 39.045 87.91 39.095 87.44C39.145 86.97 38.765 86.84 38.345 86.85H37.1151ZM36.8851 43.31C35.8851 45.31 34.605 47.04 34.425 49.31C34.511 49.317 34.5981 49.317 34.6851 49.31C35.4851 47.57 36.375 45.88 37.295 44.21C37.515 43.8 37.3251 43.53 36.9051 43.26L36.8851 43.31ZM34.9951 50.99C36.0181 49.478 36.9371 47.897 37.7451 46.26C37.8751 45.93 38.0551 45.65 37.5651 45.26C36.4131 47.003 35.5521 48.921 35.0151 50.94L34.9951 50.99ZM34.2551 46.99C35.0451 45.32 35.8051 43.7 36.5551 42.08C36.6651 41.83 36.6751 41.53 36.3751 41.43C36.0751 41.33 35.9851 41.65 35.8851 41.87C35.1751 43.41 34.7551 45.07 33.8851 46.56C33.8751 46.58 33.9551 46.72 34.2551 46.91V46.99ZM42.045 86.74C41.558 86.639 41.0591 86.615 40.5651 86.67C40.1751 86.67 39.905 86.79 39.925 87.25C39.945 87.71 39.8551 88.1 40.4351 88.25C41.4551 88.47 41.8551 88.12 42.0651 86.66L42.045 86.74ZM45.045 86.51C44.733 86.363 44.38 86.327 44.045 86.41C43.883 86.409 43.7231 86.439 43.5731 86.5C43.4241 86.56 43.2871 86.65 43.1721 86.763C43.0571 86.876 42.965 87.011 42.902 87.16C42.839 87.309 42.8061 87.468 42.8051 87.63C42.7911 87.682 42.7901 87.736 42.8 87.788C42.81 87.841 42.831 87.89 42.863 87.933C42.895 87.976 42.9351 88.012 42.9821 88.037C43.0291 88.063 43.0811 88.077 43.1351 88.08C44.3751 88.24 44.9851 87.74 45.0551 86.43L45.045 86.51ZM55.3651 68.03L52.485 68.56C52.377 68.574 52.2741 68.615 52.1871 68.68C52.0991 68.745 52.03 68.831 51.985 68.93C51.936 69.024 51.91 69.129 51.91 69.235C51.91 69.341 51.936 69.446 51.985 69.54C52.034 69.637 52.1171 69.713 52.2181 69.753C52.3201 69.794 52.432 69.796 52.535 69.76C53.205 69.59 54.045 69.76 54.355 68.84C54.425 68.62 54.6751 68.61 54.8951 68.59C55.1151 68.57 55.3551 68.46 55.3651 68.03ZM48.045 86.13C46.485 86.07 46.255 86.13 45.975 86.97C45.765 87.57 45.8851 87.75 46.4951 87.76C47.4851 87.79 47.675 87.59 48.045 86.13ZM48.8751 87.39C49.3251 87.32 49.8751 87.26 50.3251 87.17C50.5351 87.17 50.7251 86.99 50.6951 86.73C50.6651 86.47 50.745 86.1 50.475 85.89C50.321 85.812 50.1521 85.767 49.9791 85.759C49.8071 85.75 49.6351 85.779 49.4741 85.842C49.3131 85.906 49.1681 86.002 49.0471 86.126C48.9271 86.25 48.8341 86.398 48.7751 86.56C48.7241 86.696 48.7061 86.843 48.7241 86.987C48.7411 87.132 48.7931 87.27 48.8751 87.39ZM33.1451 69.51C33.2351 70.93 33.3751 71 35.2751 70.51C34.8351 69.4 34.8351 69.4 33.1451 69.51ZM35.985 69.51C36.325 70.64 36.4251 70.71 37.4351 70.57C37.6951 70.57 38.005 70.52 38.035 70.21C38.051 70.125 38.0491 70.038 38.0311 69.954C38.0131 69.87 37.9781 69.79 37.9291 69.719C37.8801 69.648 37.8171 69.588 37.7441 69.542C37.6711 69.496 37.5901 69.464 37.5051 69.45C37.0011 69.339 36.478 69.36 35.985 69.51ZM45.3151 68.91C44.4951 68.91 44.3951 68.91 44.3151 69.43C44.2351 69.95 44.595 70.13 45.095 70.12C45.935 70.12 46.2351 69.94 46.1951 69.44C46.1551 68.94 45.6751 68.95 45.3151 68.91ZM48.035 70.03C48.425 69.93 49.035 70.19 49.035 69.43C49.035 68.67 48.445 68.85 48.035 68.85C47.325 68.85 47.035 69.09 47.1151 69.63C47.1951 70.17 47.685 69.93 48.035 70.03ZM34.2551 87.63C34.2551 87.1 34.065 86.8 33.675 86.76C33.285 86.72 32.9151 87.02 32.9051 87.55C32.8951 88.08 33.2351 88.21 33.6451 88.24C34.0551 88.27 34.2551 87.95 34.2551 87.63ZM55.535 42.13C56.105 42.13 56.535 41.73 56.535 41.34C56.532 41.284 56.5171 41.23 56.4891 41.181C56.4611 41.132 56.4221 41.091 56.3751 41.061C56.3281 41.03 56.2741 41.012 56.2191 41.006C56.1631 41.001 56.1071 41.009 56.0551 41.03C55.4651 41.11 55.0551 41.46 55.0551 41.83C55.0551 42.2 55.305 42.14 55.535 42.13ZM51.2551 85.66L51.785 86.51C51.839 86.602 51.9241 86.671 52.0251 86.706C52.1261 86.741 52.2351 86.739 52.3351 86.7C52.5851 86.62 52.6051 86.4 52.6251 86.19C52.6451 85.47 52.4151 85.37 51.2551 85.66ZM49.9651 69.87C50.1871 69.87 50.4081 69.846 50.6251 69.8C51.0351 69.68 51.0551 69.33 51.0251 68.98C51.0201 68.897 50.9821 68.819 50.9211 68.763C50.8591 68.707 50.7781 68.677 50.6951 68.68C50.3051 68.68 50.0251 68.75 49.9551 69.17C49.9251 69.37 49.7751 69.55 49.9651 69.87ZM31.8751 51.67C32.4011 52.487 33.1101 53.172 33.9451 53.67C33.5151 52.78 32.6051 52.31 31.8751 51.67ZM33.2551 47.03C33.0731 46.593 32.8011 46.2 32.4561 45.876C32.1111 45.552 31.7021 45.304 31.2551 45.15C31.9851 45.82 32.2551 46.69 33.2551 47.03ZM31.3851 56.28C32.2951 57.38 32.3851 57.43 33.3851 57.58L31.3851 56.28ZM29.2151 49.62C28.9451 48.86 28.9451 48.86 27.9551 48.5C28.2591 48.958 28.676 49.33 29.165 49.58L29.2151 49.62ZM5.81506 36.89V36.96H7.81506V36.89H5.81506ZM31.8151 87.73C31.9301 87.549 31.9871 87.337 31.9781 87.122C31.9691 86.908 31.8951 86.701 31.7651 86.53C31.6901 86.613 31.6331 86.711 31.5961 86.817C31.5591 86.923 31.5441 87.035 31.5521 87.147C31.5591 87.259 31.589 87.368 31.639 87.468C31.69 87.568 31.76 87.657 31.845 87.73H31.8151ZM5.00507 37.92H4.95508H5.89508H5.00507ZM30.0851 38.75C30.0851 38.75 30.0851 38.82 30.0851 38.85C30.0851 38.953 30.1181 39.053 30.1791 39.136C30.2401 39.219 30.326 39.28 30.425 39.31C30.535 39.31 30.7251 39.31 30.7151 39.23C30.7051 39.15 30.5451 38.96 30.4351 38.84C30.4181 38.811 30.3961 38.785 30.3691 38.764C30.3421 38.744 30.3121 38.729 30.2791 38.72C30.2461 38.712 30.2121 38.71 30.1791 38.715C30.1451 38.72 30.1131 38.732 30.0851 38.75ZM57.2551 50.03C57.2461 49.954 57.212 49.883 57.16 49.828C57.108 49.772 57.0401 49.734 56.9651 49.72C56.8251 49.72 56.8551 49.9 56.8651 50.01C56.875 50.12 56.865 50.26 57.035 50.27C57.205 50.28 57.2551 50.2 57.2551 50.03ZM30.035 49.91C29.925 49.91 29.8051 49.99 29.8051 50.02C29.8051 50.21 29.945 50.29 30.095 50.34C30.245 50.39 30.3751 50.4 30.3251 50.23C30.2751 50.06 30.0951 50.03 30.0051 49.92L30.035 49.91ZM30.035 23.82C30.035 23.68 29.9651 23.56 29.8151 23.55C29.7741 23.552 29.7351 23.564 29.7001 23.585C29.6651 23.606 29.6361 23.635 29.6151 23.67C29.5651 23.83 29.6851 23.92 29.8251 23.92C29.9651 23.92 29.9451 23.87 30.0151 23.83L30.035 23.82Z" fill="#537F4D"/>
<path d="M70.4051 48.8704C68.9751 48.8704 67.5451 48.8704 66.1151 48.8704C64.7551 48.8944 63.4061 49.1244 62.1151 49.5504C61.7371 49.6534 61.3531 49.7294 60.9651 49.7804C60.8801 49.7964 60.7931 49.7814 60.7191 49.7364C60.6451 49.6924 60.5901 49.6224 60.5651 49.5404C60.5051 49.3204 60.695 49.2304 60.845 49.1904C61.808 48.9484 62.7821 48.7544 63.7651 48.6104C67.4161 48.1874 71.0901 47.9964 74.7651 48.0404C75.1521 48.0434 75.5401 48.0664 75.9251 48.1104C76.1051 48.1104 76.2651 48.2304 76.2651 48.4304C76.2651 48.6304 76.0651 48.7104 75.9051 48.7204C75.1251 48.7204 74.3451 48.7204 73.5651 48.8004C72.5111 48.7334 71.4541 48.7564 70.4051 48.8704Z" fill="#537F4D"/>
<path d="M72.595 41.0303C74.061 40.6443 75.569 40.4363 77.085 40.4103C79.085 40.2703 81.085 39.9603 83.165 40.0203C83.425 40.0203 83.685 40.0203 83.945 40.0203C84.205 40.0203 84.405 40.0903 84.375 40.3603C84.345 40.6303 84.175 40.6403 84.005 40.6703C83.575 40.7203 83.145 40.7603 82.715 40.7703C79.595 40.8503 76.485 41.0433 73.385 41.3503C73.065 41.4703 72.645 41.6203 72.595 41.0303Z" fill="#537F4D"/>
<path d="M43.255 38.3002C42.495 38.1002 42.465 37.3002 42.165 36.8202C41.543 35.7822 41.021 34.6872 40.605 33.5502C40.885 33.4702 40.985 33.5503 41.045 33.6503C41.755 34.9503 42.335 36.3202 43.145 37.5702C43.275 37.7602 43.205 38.0702 43.235 38.3202L43.255 38.3002Z" fill="#537F4D"/>
<path d="M44.015 32.9502C43.366 32.2372 42.897 31.3802 42.645 30.4502C42.112 29.4442 41.802 28.3362 41.735 27.2002C42.631 29.0642 43.387 30.9932 43.995 32.9702L44.015 32.9502Z" fill="#537F4D"/>
<path d="M45.3151 28.7697C44.8851 27.0997 43.9651 25.5697 43.7151 23.6797C44.4051 24.2697 45.2551 26.9497 45.3151 28.7697Z" fill="#537F4D"/>
<path d="M42.185 32.4502C41.778 32.0672 41.459 31.6002 41.249 31.0832C41.038 30.5652 40.941 30.0082 40.965 29.4502C41.667 30.3012 42.086 31.3502 42.165 32.4502H42.185Z" fill="#537F4D"/>
<path d="M39.025 39.8999C38.135 39.3899 37.975 38.3999 37.475 37.6299C38.195 38.2499 38.985 38.8099 39.075 39.8599L39.025 39.8999Z" fill="#537F4D"/>
<path d="M43.9849 39.9098C43.6249 39.4198 43.1149 38.9998 43.2549 38.2998C43.5419 38.4448 43.7709 38.6838 43.9029 38.9758C44.0359 39.2688 44.0649 39.5988 43.9849 39.9098Z" fill="#537F4D"/>
<path d="M46.355 31.1097C46.355 31.2197 46.355 31.3998 46.195 31.3298C46.035 31.2598 46.045 31.0797 46.005 30.9297C46.017 30.8627 46.053 30.8028 46.105 30.7598C46.305 30.7898 46.335 30.9497 46.355 31.1097Z" fill="#537F4D"/>
<path d="M39.8851 31.3398C39.8851 31.4098 39.985 31.4698 39.985 31.5398C39.985 31.6098 39.9051 31.6698 39.8251 31.6098C39.7451 31.5498 39.7451 31.4898 39.7151 31.4298L39.8851 31.3398Z" fill="#537F4D"/>
<path d="M39.825 31.4297C40.245 32.6597 40.8409 33.8217 41.5949 34.8797" stroke="#9EE5CE" stroke-width="0.5" stroke-miterlimit="10"/>
<path d="M44.845 26.3701C45.005 27.1701 45.225 27.9501 45.445 28.7401L45.885 30.2802C46.177 31.4602 46.582 32.6081 47.095 33.7101" stroke="#9EE5CE" stroke-width="0.5" stroke-miterlimit="10"/>
<path d="M43.5649 32.0303C43.9629 32.6673 44.2159 33.3842 44.3049 34.1302" stroke="#9EE5CE" stroke-width="0.5" stroke-miterlimit="10"/>
<path d="M43.0549 37.29C43.6549 38.683 44.166 40.1121 44.585 41.5701" stroke="#9EE5CE" stroke-width="0.5" stroke-miterlimit="10"/>
<path d="M41.735 31.1504C42.241 32.1304 42.627 33.1674 42.885 34.2404" stroke="#9EE5CE" stroke-width="0.5" stroke-miterlimit="10"/>
</svg>
