<svg width="91" height="55" viewBox="0 0 91 55" fill="none" xmlns="http://www.w3.org/2000/svg">
<path d="M21.405 51.5922C20.444 52.0042 19.433 52.2902 18.398 52.4422C17.981 52.4982 17.565 52.5612 17.148 52.6152C16.479 52.6902 15.827 52.8762 15.219 53.1662C13.7 53.8222 12.141 54.3802 10.55 54.8342C10.397 54.8862 10.201 54.9622 10.086 54.7892C9.96902 54.6132 10.129 54.4781 10.232 54.3501C10.737 53.6751 11.137 52.9272 11.417 52.1312C11.944 50.8642 12.651 49.6792 13.518 48.6152C13.6 48.5112 13.723 48.4151 13.685 48.2461C13.455 48.0911 13.199 48.2442 12.954 48.1922C12.465 48.1152 12.025 47.8532 11.724 47.4612C11.423 47.0692 11.283 46.5762 11.334 46.0852C11.416 44.8212 11.803 43.5972 12.461 42.5162C12.533 42.3962 12.632 42.2912 12.693 42.1662C12.752 42.0452 12.83 41.9032 12.713 41.7752C12.59 41.6392 12.452 41.7242 12.337 41.7932C12.121 41.9232 11.916 42.0712 11.704 42.2092C10.263 43.2032 8.566 43.7612 6.817 43.8162C5.775 43.8902 4.73401 43.6682 3.81401 43.1752C3.43901 42.9752 3.14803 42.6482 2.99303 42.2532C2.61203 41.1942 2.50103 40.0571 2.67003 38.9441C2.84103 37.9651 3.35401 37.0792 4.11601 36.4422C4.37101 36.2192 4.58602 35.9652 4.82302 35.7302C5.21302 35.3452 5.21002 35.1752 4.72002 34.9032C4.20902 34.5632 3.71803 34.1922 3.25203 33.7932C2.53103 33.2122 1.85701 32.5762 1.23601 31.8912C0.94701 31.5112 0.596008 31.1842 0.197008 30.9222C-0.0709919 30.7922 -0.0579967 30.5642 0.192003 30.4002C1.878 29.1382 3.76402 28.1682 5.77202 27.5312C6.11902 27.4182 6.48201 27.3612 6.84801 27.3612C7.25201 27.3872 7.32002 27.1922 7.27202 26.8542C7.18702 26.2112 7.25101 25.5562 7.46001 24.9422C7.66101 24.4012 7.97703 23.9102 8.38503 23.5032C8.79403 23.0962 9.28601 22.7822 9.82701 22.5842C10.163 22.4972 10.485 22.3602 10.781 22.1792C10.376 21.7602 9.92401 21.3892 9.43401 21.0732C8.57101 20.2342 7.75002 19.3522 6.97502 18.4302C6.70502 18.1452 6.44903 17.8472 6.20903 17.5362C5.90403 17.1592 5.94603 17.0552 6.40303 16.9172C7.49803 16.5352 8.688 16.5222 9.791 16.8812C9.897 16.9132 10.006 16.9341 10.117 16.9441C10.137 16.9471 10.161 16.9152 10.232 16.8672C10.065 15.9462 9.83501 15.0382 9.54201 14.1492C9.30401 13.1412 8.99003 12.1522 8.60103 11.1912C8.55103 11.0692 8.44902 10.9402 8.56902 10.8052C8.71402 10.6452 8.87201 10.7052 9.02101 10.7992C9.96901 11.3952 10.949 11.9482 11.856 12.6012C12.924 13.3712 13.957 14.1962 14.955 15.0552C16.197 16.0622 17.238 17.2952 18.019 18.6902C18.087 18.7892 18.164 18.8822 18.249 18.9662C18.592 18.7582 18.569 18.3762 18.716 18.0982C18.805 17.8762 18.937 17.6742 19.104 17.5032C19.272 17.3322 19.471 17.1952 19.691 17.1022C20.199 16.8632 20.749 16.7262 21.31 16.7012C21.871 16.6752 22.431 16.7602 22.959 16.9512C23.275 17.0682 23.563 17.2492 23.804 17.4842C24.53 18.2882 25.467 18.9312 25.741 20.0802C25.775 20.2232 25.937 20.3482 26.061 20.4562C26.824 21.0792 27.413 21.8882 27.774 22.8042C27.793 22.8852 27.837 22.9572 27.9 23.0122C27.963 23.0662 28.041 23.0992 28.124 23.1072C29.587 23.3622 31.015 23.7942 32.374 24.3932C32.455 24.4122 32.538 24.4212 32.622 24.4212C32.834 24.1972 32.728 23.9342 32.709 23.6982C32.62 21.6242 32.743 19.5461 33.075 17.4961C33.123 17.1071 33.348 17.0502 33.662 17.0912C34.553 17.2072 35.445 17.3151 36.334 17.4441C39.038 17.8371 41.227 19.2901 43.352 20.8711C43.487 20.9711 43.597 21.1062 43.735 21.1982C43.78 21.2432 43.834 21.2772 43.894 21.2972C43.954 21.3172 44.018 21.3232 44.08 21.3142C44.143 21.3052 44.202 21.2812 44.254 21.2452C44.306 21.2082 44.348 21.1602 44.378 21.1052C44.713 20.6712 45.137 20.3142 45.622 20.0592C46.107 19.8042 46.642 19.6561 47.189 19.6261C48.037 19.4291 48.916 19.4022 49.775 19.5472C50.48 19.7242 51.169 19.9602 51.834 20.2522C51.986 20.3232 52.127 20.4221 52.282 20.4831C53.052 20.7881 53.078 20.7722 53.348 19.9982C53.738 18.8832 54.418 17.8912 55.318 17.1252C56.72 16.0022 58.207 14.9911 59.766 14.1001C60.093 13.8931 60.286 13.7762 60.106 13.3342C59.788 12.2252 59.714 11.0612 59.889 9.92217C59.967 8.15217 60.342 6.40817 60.998 4.76317C61.174 4.20217 61.316 3.63219 61.423 3.05419C61.62 2.28019 61.585 2.34117 62.23 2.77117C63.259 3.55117 64.148 4.49918 64.861 5.57518C65.185 6.00018 65.26 6.56316 65.683 7.01116C65.872 6.39016 66.095 5.78016 66.35 5.18316C66.663 4.49716 67.188 3.93017 67.848 3.56517C68.508 3.20017 69.268 3.05715 70.015 3.15715C70.471 3.26415 70.95 3.23118 71.387 3.06218C71.825 2.89418 72.201 2.59717 72.468 2.21117C72.853 1.81117 73.347 1.53417 73.889 1.41417C74.432 1.29417 74.997 1.3372 75.515 1.5382C77.091 1.9182 78.638 2.42319 80.185 2.91619C80.422 2.99819 80.677 3.01717 80.924 2.96917C81.171 2.92117 81.401 2.80918 81.59 2.64318C82.491 1.87518 83.554 1.32118 84.7 1.02318C85.502 0.865182 86.277 0.61915 87.07 0.44115C87.644 0.31215 88.21 0.150154 88.786 0.0321539C89.295 -0.0718461 89.439 0.0701593 89.303 0.550159C89.017 1.92116 88.615 3.26616 88.101 4.56816C87.858 5.16516 87.549 5.73417 87.18 6.26317C86.944 6.53717 86.775 6.86316 86.687 7.21416C87.193 7.11616 87.679 7.05918 88.142 6.92418C88.716 6.78518 89.311 6.75515 89.897 6.83715C90.529 6.89215 90.697 7.12115 90.676 7.78215C90.667 8.17515 90.59 8.56518 90.448 8.93218C90.08 10.1402 89.519 11.2802 88.788 12.3092C88.396 12.7822 88.065 13.3072 87.703 13.8062C86.069 15.9282 83.96 17.6362 81.545 18.7932C81.331 18.9052 81.064 18.9532 80.9 19.2662C82.005 19.3862 83.091 19.6472 84.13 20.0442C84.575 20.2162 85.007 20.4172 85.424 20.6482C85.839 20.8682 85.863 20.9822 85.557 21.3552C84.89 22.1542 84.125 22.8652 83.279 23.4712C81.918 24.4612 80.636 25.5552 79.221 26.4772C77.218 27.8292 75.025 28.8752 72.714 29.5812C71.834 29.7662 71.052 30.2682 70.517 30.9912C69.975 31.6472 69.352 32.2302 68.661 32.7272C69.499 33.1112 70.281 33.6062 70.987 34.1982C71.155 34.2992 71.317 34.4082 71.474 34.5252C72.044 34.9882 72.033 35.0772 71.476 35.5722C71.035 35.9622 70.62 36.3811 70.191 36.7851C69.504 37.4901 68.711 38.0832 67.841 38.5432C67.643 38.6202 67.477 38.7611 67.37 38.9441C67.262 39.1271 67.22 39.3402 67.249 39.5502C67.273 40.3122 67.116 41.0682 66.791 41.7572C66.562 42.2382 66.384 42.7411 66.259 43.2591C66.186 43.6411 65.969 43.7692 65.59 43.6662C64.825 43.4692 64.022 43.4632 63.254 43.6502C62.834 43.6902 62.412 43.6142 62.032 43.4312C61.853 43.3492 61.651 43.3342 61.462 43.3882C61.274 43.4422 61.11 43.5612 61.001 43.7242C60.855 43.9322 60.662 44.1022 60.438 44.2212C60.214 44.3412 59.965 44.4051 59.711 44.4101C59.572 44.4221 59.435 44.4532 59.304 44.5042C58.391 44.8612 57.388 44.9192 56.439 44.6712C56.191 44.9462 56.295 45.2412 56.288 45.5102C56.315 46.4762 55.974 47.4162 55.336 48.1422C54.697 48.8672 53.807 49.3242 52.846 49.4202C51.371 49.6042 49.887 49.7072 48.402 49.7312C47.73 49.7742 47.066 49.8912 46.421 50.0802C45.609 50.3062 44.764 50.3882 43.924 50.3222C43.507 50.2892 43.092 50.4111 42.759 50.6651C41.974 51.3041 41.061 51.7671 40.081 52.0221C39.812 52.0971 39.536 52.1481 39.257 52.1731C37.879 52.1981 36.545 52.6151 35.162 52.6261C34.797 52.6591 34.445 52.7812 34.139 52.9822C33.956 53.0842 33.742 53.2821 33.519 53.1341C33.287 52.9801 33.434 52.7232 33.456 52.5152C33.466 50.9322 33.288 49.3531 32.928 47.8111C32.466 48.1971 31.981 48.5662 31.538 48.9802C30.78 49.7322 29.97 50.4292 29.114 51.0662C28.968 51.2022 28.79 51.2982 28.596 51.3462C28.403 51.3942 28.2 51.3922 28.008 51.3392C28.053 50.8782 28.455 50.5462 28.407 50.0582C28.313 50.0672 28.22 50.0901 28.132 50.1261C26.002 51.3741 23.788 52.4762 21.508 53.4242C21.205 53.5692 20.909 53.7331 20.595 53.8501C20.428 53.9131 20.202 54.0512 20.052 53.8562C19.886 53.6402 20.115 53.5012 20.237 53.3652C20.744 52.8612 21.142 52.2572 21.405 51.5922ZM45.726 30.9772C45.234 29.1752 44.798 27.4682 44.296 25.7802C44.205 25.2342 43.959 24.7272 43.588 24.3182C43.216 23.9082 42.735 23.6152 42.201 23.4712C41.807 23.3172 41.384 23.2491 40.961 23.2721C40.539 23.2951 40.126 23.4092 39.751 23.6052C38.719 24.2892 37.82 25.1552 37.098 26.1612C36.894 26.4662 36.645 26.7261 36.42 27.0091C35.283 28.1661 34.289 29.4552 33.459 30.8482C33.129 31.3702 32.929 31.9642 32.877 32.5792C32.824 33.1942 32.92 33.8122 33.157 34.3822C33.464 35.0462 33.572 35.7852 33.467 36.5102C33.372 37.3752 33.329 38.2442 33.337 39.1142C33.299 39.6532 33.469 40.1852 33.813 40.6012C34.157 41.0172 34.648 41.2852 35.184 41.3492C36.041 41.5042 36.915 41.5322 37.78 41.4322C38.595 41.3782 39.379 41.1032 40.049 40.6352C40.744 40.1602 41.429 39.6762 42.158 39.2502C42.737 38.9122 43.278 38.5082 43.827 38.1192C44.052 37.9592 44.346 37.7902 44.344 37.4932C44.316 37.1042 44.414 36.7171 44.625 36.3891C44.835 36.0601 45.147 35.8091 45.512 35.6731C45.466 35.5731 45.457 35.4982 45.418 35.4772C45.176 35.3452 44.853 35.2662 44.887 34.9132C44.92 34.5782 45.195 34.4832 45.495 34.4392C45.667 34.4142 45.847 34.3262 45.849 34.1352C45.816 33.9132 45.844 33.6872 45.929 33.4792C46.014 33.2722 46.153 33.0912 46.331 32.9552C46.506 32.8342 46.373 32.5752 46.245 32.4302C46.077 32.2392 45.961 32.4412 45.83 32.5282C45.718 32.6102 45.596 32.6761 45.466 32.7251C45.001 32.8741 44.734 32.5492 44.459 32.2732C44.186 31.9992 44.422 31.7582 44.529 31.5102C44.75 30.9972 45.25 31.0562 45.726 30.9772ZM15.78 34.5382C16.394 34.5642 17.009 34.5052 17.607 34.3622C17.859 34.3102 18.274 34.3992 18.346 34.0832C18.438 33.6802 18.878 33.3932 18.724 32.9272C18.625 32.6242 18.762 32.5302 19.036 32.4822C19.395 32.4182 19.75 32.3342 20.099 32.2292C20.306 32.1662 20.49 31.9762 20.272 31.7992C19.682 31.3192 19.898 30.8002 20.157 30.2922C20.269 30.0652 20.299 29.8062 20.243 29.5602C20.146 29.0662 19.988 28.5862 19.773 28.1322C19.102 26.6442 18.123 25.3162 16.902 24.2342C15.91 23.2292 14.613 22.5812 13.213 22.3912C11.975 22.2882 10.734 22.5392 9.63301 23.1152C9.23301 23.2912 8.87203 23.5472 8.57503 23.8672C8.27703 24.1872 8.04803 24.5652 7.90203 24.9782C7.60303 25.8972 7.67303 26.8962 8.09603 27.7662C8.81803 29.1812 10.059 30.2632 11.561 30.7842C12.283 31.0892 13.025 31.3492 13.755 31.6382C14.144 31.7922 14.55 32.1592 14.8 31.4512C14.856 31.2932 15.081 31.3112 15.254 31.3002C15.433 31.2892 15.621 31.4832 15.797 31.2792C15.737 31.0672 15.698 30.8492 15.681 30.6302C15.724 30.3662 15.86 30.1262 16.065 29.9542C16.27 29.7822 16.53 29.6902 16.797 29.6932C16.915 29.7102 17.028 29.7512 17.13 29.8132C17.231 29.8762 17.318 29.9592 17.385 30.0582C17.452 30.1562 17.498 30.2671 17.52 30.3841C17.541 30.5011 17.538 30.6221 17.511 30.7381C17.44 31.3391 17.101 31.6202 16.313 31.6362C16.071 31.6412 15.924 31.6322 15.959 31.9122C15.983 32.1032 15.712 32.2382 15.862 32.4462C16.079 32.5602 16.341 32.6452 16.48 32.4272C16.777 31.9642 17.154 32.1322 17.526 32.2292C18.104 32.3812 18.257 32.6032 18.156 33.1022C18.019 33.7852 17.862 33.8842 17.188 33.8042C17.02 33.7882 16.858 33.7322 16.715 33.6422C16.572 33.5522 16.453 33.4292 16.366 33.2842C16.271 33.1272 16.142 32.9942 15.989 32.8932C15.835 32.7932 15.661 32.7282 15.479 32.7032C14.653 32.5352 13.803 32.5212 12.971 32.6622C11.051 33.0652 9.17801 33.6712 7.38701 34.4722C5.97701 35.1742 4.76303 36.2142 3.85103 37.4972C3.48603 38.0332 3.24302 38.6432 3.13802 39.2822C3.03302 39.9222 3.06903 40.5772 3.24303 41.2022C3.28403 41.7532 3.52701 42.2701 3.92601 42.6521C4.32501 43.0341 4.85103 43.2562 5.40303 43.2732C7.44803 43.5752 9.53401 43.1311 11.279 42.0221C12.288 41.4031 12.289 41.4262 11.566 40.5002C11.213 40.1002 10.961 39.6202 10.832 39.1022C10.703 38.5832 10.7 38.0421 10.824 37.5221C10.949 37.0031 11.196 36.5212 11.545 36.1162C11.894 35.7122 12.336 35.3982 12.832 35.2012C13.613 35.0312 14.384 34.8192 15.142 34.5652C14.45 33.9852 14.3 33.6181 14.567 33.1861C14.689 33.0351 14.86 32.9302 15.051 32.8902C15.241 32.8502 15.44 32.8782 15.613 32.9682C16.071 33.2522 16.146 33.7772 15.78 34.5382ZM48.896 35.7812C48.845 35.9082 48.814 35.9842 48.785 36.0602C48.736 36.2212 48.651 36.3702 48.536 36.4942C48.422 36.6182 48.281 36.7151 48.124 36.7771C47.756 36.9131 47.568 36.6772 47.333 36.4632C47.113 36.2642 46.904 36.3952 46.828 36.6442C46.799 36.8382 46.784 37.0332 46.785 37.2282C46.655 38.2322 46.004 38.6742 45.058 38.2922C44.871 38.2082 44.661 38.1872 44.461 38.2312C44.26 38.2752 44.079 38.3832 43.945 38.5382C42.814 39.4632 41.833 40.5461 40.762 41.5351C40.211 42.0111 39.725 42.5592 39.318 43.1632C38.952 43.8902 38.711 44.6732 38.605 45.4802C38.544 45.7542 38.538 46.0372 38.59 46.3132C38.641 46.5892 38.747 46.8522 38.903 47.0852C39.238 47.5702 39.642 48.0041 40.103 48.3711C40.868 49.0591 41.788 49.5512 42.784 49.8062C43.781 50.0602 44.824 50.0691 45.825 49.8321C47.38 49.4761 48.969 49.2902 50.564 49.2792C51.49 49.3302 52.418 49.2132 53.302 48.9312C54.954 48.3742 55.721 47.5472 55.772 45.9372C55.784 45.5742 55.781 45.2102 55.775 44.8462C55.78 44.7052 55.754 44.5642 55.698 44.4342C55.643 44.3042 55.559 44.1872 55.454 44.0932C54.987 43.6512 54.595 43.1361 54.293 42.5691C53.997 42.0901 53.778 41.5772 53.487 41.0992C52.35 39.4352 51.116 37.8392 49.791 36.3212C49.685 36.1762 49.552 36.0532 49.398 35.9612C49.244 35.8682 49.074 35.8072 48.896 35.7812ZM51.525 33.4881C52.891 33.1171 54.199 32.5592 55.413 31.8312C56.948 31.0072 58.228 29.7792 59.115 28.2792C59.448 27.7242 59.62 27.0882 59.612 26.4412C59.603 25.7932 59.415 25.1612 59.067 24.6152C58.627 23.9302 58.053 23.3392 57.38 22.8792C56.707 22.4202 55.948 22.1002 55.149 21.9392C53.967 21.5962 52.816 21.1562 51.707 20.6232C50.818 20.1452 49.83 19.8782 48.82 19.8442C47.811 19.8102 46.808 20.0102 45.888 20.4272C45.345 20.6312 44.891 21.0212 44.609 21.5282C44.326 22.0352 44.233 22.6262 44.346 23.1962C44.553 23.8932 44.694 24.6081 44.765 25.3321C45.18 27.3581 45.711 29.3582 46.355 31.3232C46.398 31.4862 46.46 31.6421 46.541 31.7901C47.044 32.7091 47.564 33.6032 48.864 33.3442C48.904 33.3322 48.947 33.3302 48.989 33.3362C49.031 33.3422 49.071 33.3572 49.106 33.3802C49.142 33.4032 49.172 33.4332 49.195 33.4692C49.218 33.5042 49.233 33.5442 49.24 33.5862C49.311 33.8862 49.475 34.1212 49.823 34.0332C50.064 33.9622 50.295 33.8582 50.507 33.7232C50.7 33.6112 50.555 33.4201 50.564 33.2641C50.577 33.0311 50.617 32.7972 50.898 32.7532C51.203 32.7052 51.36 32.8851 51.429 33.1651C51.453 33.2661 51.385 33.3901 51.525 33.4881ZM70.455 11.8332C70.45 11.8612 70.443 11.8882 70.441 11.9162C70.304 13.9912 70.453 16.0662 70.446 18.1402C70.445 18.4482 70.646 18.5562 70.892 18.6742C71.553 18.9922 72.275 19.1252 72.955 19.3832C73.139 19.4552 73.344 19.4542 73.527 19.3802C73.71 19.3072 73.858 19.1652 73.941 18.9862C74.37 18.3642 74.841 17.7722 75.299 17.1712C76.774 15.4102 78.143 13.5642 79.399 11.6412C80.088 10.5522 80.709 9.4212 81.257 8.2542C81.664 7.3562 81.872 6.38117 81.866 5.39617C81.914 5.02917 81.846 4.65718 81.67 4.33318C81.494 4.00818 81.221 3.74717 80.888 3.58617C80.373 3.36917 79.848 3.17919 79.314 3.01519C78.02 2.65619 76.734 2.26817 75.436 1.92717C75.082 1.80317 74.707 1.75219 74.333 1.77819C73.959 1.80319 73.594 1.90418 73.26 2.07518C72.926 2.24518 72.63 2.48219 72.39 2.77019C72.15 3.05819 71.971 3.39215 71.863 3.75115C71.307 5.36815 70.906 7.03518 70.666 8.72918C70.519 9.76118 70.593 10.8032 70.455 11.8332ZM50.23 36.1001C50.273 36.1721 50.3 36.2802 50.362 36.3082C50.741 36.4812 51.055 36.6932 51.093 37.1612C51.099 37.2272 51.2 37.2862 51.257 37.3482C52.1 38.3582 52.863 39.4321 53.539 40.5611C54.006 41.2621 54.382 42.0132 54.836 42.7192C55.147 43.2742 55.626 43.7162 56.204 43.9812C56.782 44.2462 57.429 44.3211 58.052 44.1941C58.354 44.1301 58.661 44.0921 58.97 44.0821C59.336 44.0691 59.694 43.9792 60.022 43.8162C60.35 43.6522 60.639 43.4212 60.869 43.1372C61.441 42.5502 61.809 41.7942 61.917 40.9812C62.158 39.3702 62.651 37.8081 63.377 36.3501C63.973 35.3281 64.273 34.1591 64.242 32.9751C64.211 32.2721 63.93 31.6042 63.451 31.0882C62.949 30.5532 62.297 30.1802 61.581 30.0182C60.865 29.8552 60.117 29.9102 59.432 30.1762C58.24 30.5092 57.133 31.0942 56.187 31.8912C55.769 32.2212 55.318 32.5082 54.842 32.7472C53.641 33.4112 52.36 33.9182 51.029 34.2532C51.268 35.1792 51.598 35.3411 50.23 36.1001ZM10.953 54.2002C12.414 53.8512 13.837 53.3642 15.205 52.7452C15.807 52.4372 16.464 52.2512 17.138 52.1982C18.922 52.0082 20.663 51.5262 22.292 50.7732C24.916 49.6902 27.3 48.0992 29.307 46.0922C30.598 44.8432 31.502 43.2452 32.979 42.1702C33.372 41.8842 33.193 41.3882 32.696 41.3402C32.198 41.2502 31.688 41.2552 31.192 41.3552C30.68 41.5142 30.14 41.5612 29.609 41.4932C29.051 41.4262 28.485 41.4752 27.948 41.6372C27.242 41.8202 26.528 41.9692 25.825 42.1572C23.631 42.6192 21.568 43.5682 19.79 44.9342C18.706 45.8252 17.504 46.5612 16.218 47.1222C15.47 47.4832 14.787 47.9662 14.197 48.5512C12.597 50.0532 11.943 52.1112 10.953 54.2002ZM59.853 28.9612C60.143 29.1252 60.479 29.1892 60.809 29.1442C61.4 29.1342 61.986 29.2451 62.532 29.4701C63.079 29.6951 63.573 30.0292 63.985 30.4512C64.184 30.6412 64.478 30.7202 64.589 31.0122C64.989 31.8182 65.202 32.7032 65.213 33.6032C65.2 33.7802 65.08 33.9842 65.346 34.1802C66.063 33.7412 66.863 33.4232 67.615 32.9892C69.42 31.9422 70.858 30.3622 71.732 28.4662C72.281 27.3332 72.762 26.1662 73.392 25.0712C73.733 24.4772 74.048 23.8691 74.394 23.2331C73.708 22.9761 73.038 23.0492 72.43 22.8512C70.629 22.3322 68.793 21.9462 66.936 21.6952C65.542 21.4742 64.114 21.6272 62.799 22.1382C62.585 22.2022 62.389 22.3132 62.225 22.4642C62.061 22.6142 61.933 22.8002 61.851 23.0072C61.602 23.6322 61.287 24.2272 60.91 24.7842C60.713 25.0172 60.569 25.2912 60.488 25.5862C60.408 25.8802 60.393 26.1892 60.444 26.4902C60.501 26.8822 60.447 27.2822 60.289 27.6452C60.136 28.0612 60.009 28.4862 59.853 28.9612ZM19.598 32.9342C19.961 33.2432 20.001 33.7532 20.54 33.7712C20.674 33.7762 20.722 33.8622 20.745 33.9862C20.828 34.2572 21.006 34.4892 21.247 34.6402C22.546 35.7532 23.719 36.9972 24.938 38.1922C26.148 39.4562 27.701 40.3402 29.406 40.7352C30.38 40.8542 31.368 40.7842 32.316 40.5282C32.603 40.4802 32.656 40.2902 32.617 40.0312C32.564 39.5002 32.572 38.9651 32.642 38.4361C32.824 36.8481 32.611 35.2392 32.021 33.7542C31.816 33.3502 31.718 32.9002 31.739 32.4482C31.761 31.9962 31.899 31.5572 32.142 31.1752C32.357 30.9302 32.494 30.6262 32.535 30.3032C31.853 30.0532 31.203 29.7212 30.602 29.3132C30.085 29.0322 29.49 28.9262 28.908 29.0102C26.733 29.3112 24.657 30.1082 22.839 31.3392C21.872 32.0762 20.772 32.6182 19.598 32.9342ZM24.67 38.9742C23.863 38.2542 23.122 37.5782 22.367 36.9192C21.661 36.2392 21.007 35.5072 20.411 34.7292C20.294 34.5572 20.122 34.4292 19.924 34.3662C19.725 34.3032 19.511 34.3092 19.316 34.3822C18.022 34.7442 16.694 34.9682 15.353 35.0502C14.54 35.0962 13.74 35.2742 12.984 35.5792C12.356 35.8312 11.839 36.3012 11.526 36.9012C11.213 37.5022 11.126 38.1942 11.278 38.8542C11.428 39.4682 11.71 40.0411 12.104 40.5351C12.498 41.0281 12.995 41.4301 13.56 41.7121C14.288 42.0681 15.078 42.2822 15.887 42.3442C19.423 42.8292 22.198 41.3902 24.67 38.9742ZM65.558 20.7851C65.641 20.7601 65.716 20.7142 65.776 20.6512C65.836 20.5882 65.877 20.5102 65.897 20.4262C66.357 19.3122 66.729 18.1642 67.01 16.9922C67.244 16.2332 67.228 15.4202 66.964 14.6712C66.535 13.4852 66.167 12.2782 65.861 11.0542C65.617 10.3062 65.517 9.51817 65.567 8.73217C65.587 8.45217 65.557 8.17017 65.477 7.90117C65.073 6.58317 64.385 5.36914 63.462 4.34514C63.121 3.93614 62.724 3.57819 62.281 3.28319C61.993 3.10119 61.816 3.13015 61.728 3.46215C61.633 3.95815 61.508 4.44717 61.352 4.92717C60.654 6.73717 60.265 8.65218 60.203 10.5912C60.03 11.5772 60.212 12.5922 60.717 13.4562C61.166 13.1382 61.584 12.8082 62.035 12.5332C62.501 12.2482 62.802 11.7212 63.418 11.5652C63.344 12.2582 63.242 12.8942 63.215 13.5322C63.156 14.9322 63.267 16.3392 63.092 17.7352C63.062 17.9842 63.091 18.2372 63.176 18.4742C63.261 18.7102 63.4 18.9242 63.581 19.0982C64.169 19.7532 64.979 20.1261 65.558 20.7851ZM25.295 20.1582C25.309 20.0822 25.306 20.0042 25.287 19.9292C25.267 19.8552 25.231 19.7852 25.181 19.7262C24.75 19.1062 24.268 18.5252 23.739 17.9872C23.502 17.7092 23.209 17.4852 22.879 17.3302C22.549 17.1742 22.189 17.0912 21.824 17.0862C21.404 17.0852 20.986 17.1362 20.578 17.2372C20.232 17.2912 19.906 17.4362 19.634 17.6582C19.363 17.8802 19.155 18.1712 19.033 18.5002C18.509 19.7812 18.395 21.1932 18.707 22.5422C19.07 24.3222 19.575 26.0692 20.218 27.7682C20.444 28.3122 20.593 28.8842 20.661 29.4692C20.649 29.5952 20.675 29.7222 20.736 29.8332C20.797 29.9442 20.889 30.0352 21.001 30.0942C21.226 30.2142 21.425 30.3802 21.583 30.5802C21.742 30.7812 21.857 31.0121 21.922 31.2591C22.327 30.9251 22.755 30.6212 23.203 30.3492C23.401 30.2502 23.572 30.1022 23.698 29.9192C23.824 29.7362 23.901 29.5242 23.923 29.3032C23.977 29.0002 23.996 28.6922 23.98 28.3852C23.927 26.6512 23.751 24.9222 23.454 23.2132C23.318 22.4612 23.444 21.6862 23.812 21.0162C23.954 20.7482 24.168 20.5262 24.43 20.3742C24.693 20.2222 24.992 20.1482 25.295 20.1582ZM62.862 12.3962C61.329 13.5722 59.723 14.6502 58.054 15.6242C56.953 16.2942 55.926 17.0792 54.99 17.9652C54.419 18.5852 53.99 19.3222 53.734 20.1252C53.697 20.1942 53.678 20.2721 53.678 20.3501C53.677 20.4291 53.696 20.5062 53.731 20.5762C53.767 20.6462 53.819 20.7062 53.883 20.7522C53.948 20.7972 54.022 20.8261 54.099 20.8371C54.547 20.9971 55.002 21.1342 55.463 21.2482C56.485 21.3832 57.456 21.7752 58.286 22.3872C59.115 23.0002 59.775 23.8122 60.205 24.7492C60.211 24.7692 60.22 24.7882 60.233 24.8042C60.246 24.8202 60.263 24.8342 60.281 24.8432C60.299 24.8532 60.32 24.8582 60.34 24.8602C60.361 24.8612 60.382 24.8582 60.401 24.8512C60.554 24.8022 60.598 24.6581 60.662 24.5401C61.74 22.6981 62.423 20.6512 62.665 18.5302C62.849 16.4912 62.915 14.4432 62.862 12.3962ZM85.601 11.7032C85.634 11.2752 85.558 10.8462 85.381 10.4562C85.225 10.1782 85.311 9.74316 84.923 9.62316C84.468 9.48216 84.855 9.05115 84.565 8.79015C84.03 8.30815 83.688 7.63115 83.105 7.17315C82.969 7.03215 82.805 6.92118 82.624 6.84618C82.364 6.77818 82.145 6.75918 82.063 7.13018C81.972 7.54018 81.838 7.93918 81.662 8.32018C80.2 11.2882 78.369 14.0602 76.212 16.5702C75.557 17.3732 74.924 18.1952 74.287 19.0132C74.189 19.1382 74.047 19.3172 74.179 19.4502C74.214 19.4852 74.256 19.5132 74.302 19.5322C74.349 19.5502 74.398 19.5592 74.448 19.5582C74.498 19.5572 74.547 19.5462 74.592 19.5262C74.638 19.5052 74.679 19.4762 74.712 19.4392C75.04 19.1732 75.429 18.9952 75.844 18.9202C78.518 18.0732 81.048 16.8292 83.351 15.2292C84.487 14.3502 85.283 13.1032 85.601 11.7032ZM72.004 29.3512C76.393 28.5802 83.35 23.3612 85.14 21.1362C85 20.8912 84.774 20.7072 84.505 20.6202C83.554 20.2052 82.555 19.9102 81.531 19.7412C80.724 19.6462 79.907 19.7752 79.169 20.1152C77.845 20.6662 76.707 21.5682 75.365 22.0792C75.31 22.0972 75.263 22.1322 75.231 22.1792C75.198 22.2262 75.182 22.2822 75.184 22.3392C75.227 22.3692 75.272 22.3962 75.319 22.4212C75.943 22.7042 75.944 22.7102 75.543 23.2132C75.243 23.5462 74.961 23.8951 74.7 24.2591C73.698 25.8491 73.026 27.6062 72.004 29.3512ZM43.273 22.7442C43.851 21.7542 43.277 21.2272 42.595 20.7452C42.389 20.5992 42.176 20.4642 41.968 20.3222C41.112 19.7362 40.18 19.2822 39.283 18.7672C37.642 17.9642 35.841 17.5422 34.015 17.5312C33.947 17.5142 33.875 17.5121 33.806 17.5271C33.737 17.5421 33.673 17.5732 33.618 17.6182C33.564 17.6622 33.52 17.7192 33.491 17.7832C33.463 17.8472 33.449 17.9171 33.453 17.9881C33.407 18.4051 33.318 18.8181 33.25 19.2331C33.005 20.8441 32.952 22.4782 33.093 24.1012C33.092 24.2822 33.149 24.4592 33.257 24.6062C33.364 24.7522 33.515 24.8611 33.689 24.9151C34.37 25.1741 35.016 25.5222 35.608 25.9482C35.656 25.9992 35.716 26.0382 35.782 26.0622C35.848 26.0862 35.919 26.0942 35.989 26.0862C36.059 26.0792 36.126 26.0552 36.186 26.0172C36.245 25.9802 36.295 25.9292 36.332 25.8692C36.806 25.3922 37.253 24.8892 37.671 24.3622C37.852 24.0752 38.092 23.8312 38.376 23.6462C39.064 23.1212 39.866 22.7662 40.717 22.6092C41.567 22.4532 42.443 22.4992 43.273 22.7442ZM19.128 25.7422C19.011 25.3172 18.884 24.8942 18.778 24.4662C18.314 23.0542 18.101 21.5712 18.148 20.0852C18.172 19.8622 18.124 19.6382 18.011 19.4452C17.175 17.8922 16.058 16.5072 14.717 15.3602C13.121 13.9992 11.413 12.7742 9.61202 11.6972C9.52102 11.6432 9.42201 11.5612 9.28401 11.7282C9.73601 13.2762 10.2 14.8532 10.657 16.4312C11.335 18.9142 12.918 21.0542 15.094 22.4282C16.028 22.9962 16.893 23.6712 17.67 24.4392C18.049 24.9802 18.548 25.4262 19.128 25.7422ZM69.949 18.2682C70.076 17.8922 70.12 17.4922 70.077 17.0972C70.077 16.5642 70.036 16.0312 70.042 15.4992C70.06 13.9002 70.109 12.3032 70.161 10.7052C70.211 8.68519 70.539 6.68117 71.135 4.75017C71.203 4.53717 71.242 4.31418 71.311 4.10118C71.375 3.90418 71.33 3.78215 71.13 3.71215C70.386 3.44915 69.577 3.43019 68.821 3.65819C68.066 3.88719 67.403 4.35117 66.929 4.98217C66.389 5.87317 66.072 6.88119 66.004 7.92119C65.875 8.72619 65.895 9.54919 66.064 10.3482C66.33 11.3792 66.655 12.3922 66.956 13.4122C67.392 14.9502 68.048 16.4172 68.906 17.7672C69.001 17.9532 69.154 18.1031 69.343 18.1941C69.531 18.2841 69.744 18.3102 69.949 18.2682ZM38.896 42.0102C38.565 42.0352 38.237 42.0872 37.914 42.1672C37.436 42.3262 36.93 42.3852 36.428 42.3412C35.584 42.2862 35.507 42.3482 35.285 43.1932C34.989 44.4502 34.424 45.6291 33.629 46.6471C33.49 46.7881 33.41 46.9772 33.404 47.1742C33.367 47.7052 33.385 48.2382 33.458 48.7652C33.78 50.0442 33.929 51.3602 33.901 52.6782C34.949 52.0242 36.04 52.2452 37.077 52.0532C37.818 51.9042 38.569 51.8062 39.324 51.7582C40.056 51.7242 40.768 51.5121 41.398 51.1391C41.974 50.7951 41.978 50.5282 41.413 50.1742C40.878 49.8152 40.314 49.5022 39.725 49.2392C39.047 48.9082 38.492 48.3702 38.14 47.7022C37.788 47.0342 37.658 46.2722 37.768 45.5262C37.905 44.7252 38.144 43.9442 38.478 43.2032C38.698 42.8392 38.84 42.4332 38.896 42.0102ZM0.692003 30.6842C1.184 31.1742 1.65802 31.6032 2.08202 32.0772C2.90402 32.9592 3.81702 33.7502 4.80602 34.4382C5.05002 34.6462 5.35703 34.7662 5.67803 34.7782C5.99803 34.7902 6.31301 34.6932 6.57201 34.5042C8.49401 33.4662 10.57 32.7442 12.721 32.3652C13.032 32.3282 13.327 32.2092 13.577 32.0212C12.789 31.6992 12.088 31.4292 11.401 31.1272C9.91602 30.5912 8.65601 29.5702 7.82201 28.2312C7.72901 28.0642 7.65901 27.8812 7.40901 27.8682C6.85401 27.7772 6.28603 27.8121 5.74703 27.9701C5.25403 28.1681 4.74702 28.3312 4.25902 28.5412C2.98502 29.1022 1.786 29.8222 0.692003 30.6842ZM73.723 22.6001C74.347 22.3291 74.823 21.8582 75.45 21.6362C75.811 21.4882 76.16 21.3102 76.492 21.1042C77.982 20.2762 79.494 19.4842 80.991 18.6662C82.359 18.0142 83.65 17.2152 84.843 16.2812C87.064 14.3782 88.818 11.9912 89.973 9.30516C90.18 8.81216 90.294 8.28619 90.311 7.75219C90.322 7.69019 90.319 7.6252 90.303 7.5642C90.288 7.5022 90.259 7.44415 90.219 7.39415C90.179 7.34415 90.13 7.30316 90.073 7.27416C90.016 7.24516 89.954 7.22817 89.891 7.22417C88.577 7.00717 87.231 7.31614 86.143 8.08214C85.792 8.36814 85.528 8.74617 85.379 9.17217C85.247 9.52617 85.568 9.85018 85.701 10.1822C85.99 10.7682 86.058 11.4392 85.89 12.0712C85.566 13.3312 84.862 14.4602 83.874 15.3062C82.512 16.3422 81.032 17.2142 79.466 17.9032C78.331 18.3782 77.161 18.7722 76.007 19.2022C75.612 19.3492 75.071 19.3582 75.299 20.0512C75.339 20.1712 75.188 20.3572 75.121 20.5102C74.791 21.2892 74.317 21.9981 73.723 22.6001ZM11.841 45.6252C11.829 45.8492 11.806 46.0741 11.808 46.2981C11.787 46.4661 11.801 46.6382 11.848 46.8012C11.895 46.9642 11.974 47.1172 12.081 47.2492C12.188 47.3812 12.321 47.4902 12.471 47.5702C12.621 47.6492 12.785 47.6982 12.955 47.7132C13.283 47.7952 13.627 47.7802 13.947 47.6702C16.106 46.9652 18.103 45.8372 19.82 44.3512C21.021 43.2962 22.281 42.3182 23.496 41.2822C24.049 40.8102 24.581 40.3112 25.116 39.8182C25.208 39.7332 25.366 39.6292 25.23 39.4792C25.178 39.4312 25.111 39.4012 25.04 39.3952C24.969 39.3892 24.898 39.4072 24.839 39.4462C24.744 39.5052 24.654 39.5732 24.571 39.6482C24.24 39.9072 23.908 40.1642 23.579 40.4272C22.264 41.5762 20.664 42.3492 18.947 42.6662C17.23 42.9832 15.46 42.8312 13.822 42.2272C13.686 42.1562 13.529 42.1382 13.381 42.1792C13.234 42.2192 13.107 42.3152 13.027 42.4452C12.321 43.3622 11.908 44.4702 11.841 45.6252ZM88.759 0.473194C88.649 0.486194 88.542 0.494181 88.437 0.510181C87.353 0.677181 86.326 1.08518 85.252 1.28118C83.941 1.60218 82.715 2.20217 81.657 3.03917C81.418 3.20317 81.392 3.37414 81.608 3.58214C81.848 3.82114 82.033 4.10917 82.15 4.42717C82.267 4.74517 82.312 5.08515 82.283 5.42315C82.226 5.67615 82.268 5.94215 82.402 6.16515C82.536 6.38815 82.751 6.55119 83.002 6.61919C83.596 6.94319 84.089 7.42615 84.424 8.01415C84.609 8.29115 84.757 8.60619 85.112 8.71819C87.261 5.98719 88.787 2.54819 88.759 0.473194ZM25.818 23.4162C25.821 23.7822 25.956 24.1342 26.197 24.4082C27.319 26.0222 28.705 27.4362 30.296 28.5902C30.818 29.0162 31.385 29.3822 31.988 29.6812C32.985 30.1002 33.026 30.1102 33.639 29.2632C34.188 28.4172 34.801 27.6142 35.47 26.8602C35.721 26.6042 35.642 26.4402 35.361 26.2742C34.582 25.8462 33.781 25.4572 32.963 25.1092C31.725 24.5272 30.446 24.0372 29.137 23.6432C28.052 23.3712 26.929 23.2952 25.818 23.4162ZM63.952 39.4101C64.466 39.3831 64.976 39.3202 65.48 39.2192C67.917 38.6042 69.641 36.9162 71.359 35.2282C71.514 35.0752 71.5 34.9012 71.33 34.8062C70.553 34.2142 69.74 33.6712 68.895 33.1802C68.72 33.0922 68.524 33.0542 68.329 33.0712C68.134 33.0872 67.947 33.1561 67.788 33.2721C67.354 33.5801 66.884 33.8332 66.387 34.0252C65.846 34.1542 65.355 34.4372 64.972 34.8412C64.589 35.2442 64.332 35.7502 64.232 36.2972C64.209 36.4542 64.073 36.5922 64.014 36.7482C63.771 37.3992 63.539 38.0532 63.263 38.6932C63.016 39.2632 63.135 39.3901 63.952 39.4101ZM33.049 42.6612C32.456 43.1072 31.92 43.6231 31.452 44.1991C30.548 45.4141 29.506 46.5212 28.347 47.4952C26.651 48.9702 24.729 50.1632 22.654 51.0282C22.474 51.1072 22.163 51.1641 22.141 51.2771C22.011 51.9351 21.372 52.3312 21.237 53.0182C21.533 52.9802 21.818 52.8882 22.079 52.7452C23.375 52.1412 24.678 51.5501 25.962 50.9231C27.667 50.1341 29.182 48.9882 30.404 47.5632C31.627 46.1372 32.529 44.4662 33.049 42.6612ZM27.198 22.5332C26.96 21.9382 26.577 21.4122 26.083 21.0042C25.937 20.8402 25.749 20.7202 25.539 20.6562C25.329 20.5932 25.106 20.5882 24.894 20.6442C24.682 20.6992 24.489 20.8121 24.337 20.9701C24.185 21.1281 24.079 21.3252 24.032 21.5392C23.831 22.1272 23.782 22.7552 23.889 23.3672C24.145 24.9122 24.311 26.4711 24.386 28.0351C24.417 28.5001 24.405 28.9672 24.414 29.4792C24.785 29.4032 25.142 29.2682 25.471 29.0782C25.814 28.9592 26.178 28.9061 26.541 28.9231C26.588 28.9191 26.634 28.8662 26.674 28.8292C26.936 28.5532 27.103 28.2012 27.149 27.8232C27.195 27.4462 27.118 27.0631 26.93 26.7331C26.189 25.8471 25.926 24.6692 25.101 23.8462C25.047 23.7812 25.006 23.7072 24.98 23.6272C24.743 23.0732 24.862 22.8412 25.449 22.7702C25.754 22.7332 26.064 22.7452 26.372 22.7322C26.662 22.7682 26.956 22.6972 27.198 22.5332ZM74.846 20.0732C74.404 19.9942 73.969 19.8922 73.527 19.8432C73.084 19.7862 72.647 19.6852 72.223 19.5412C71.126 19.1232 70.006 18.7672 68.869 18.4772C68.501 18.4052 68.351 18.4532 68.277 18.8082C68.164 19.5012 68.192 20.2102 68.357 20.8932C68.408 21.1562 68.593 21.2302 68.842 21.2682C69.75 21.4232 70.646 21.6412 71.523 21.9222C73.099 22.3952 74.308 22.0122 74.846 20.0732ZM6.67702 17.3702C7.63402 18.6502 8.70601 19.8402 9.87901 20.9262C10.405 21.3682 11.022 21.6892 11.687 21.8652C12.351 22.0422 13.047 22.0702 13.723 21.9472C12.501 20.8612 11.515 19.5362 10.827 18.0532C10.765 17.9122 10.674 17.7862 10.561 17.6822C10.448 17.5772 10.314 17.4982 10.168 17.4482C9.05802 16.9712 7.80702 16.9432 6.67702 17.3702ZM62.009 42.9831C62.381 43.2131 62.817 43.3212 63.254 43.2922C63.973 43.1672 64.709 43.1621 65.43 43.2771C65.664 43.3211 65.897 43.2922 65.955 43.0002C66.176 42.2772 66.44 41.5682 66.745 40.8752C66.917 40.3542 66.96 39.7992 66.87 39.2572C66.806 39.2132 66.731 39.1882 66.653 39.1842C66.576 39.1802 66.499 39.1982 66.431 39.2352C65.522 39.6132 64.539 39.7782 63.557 39.7182C63.468 39.7042 63.377 39.7091 63.291 39.7331C63.205 39.7571 63.124 39.7992 63.056 39.8572C62.987 39.9152 62.932 39.9872 62.893 40.0682C62.855 40.1492 62.834 40.2372 62.833 40.3272C62.722 41.2552 62.443 42.1551 62.009 42.9831ZM28.802 50.6462C28.934 50.6442 29.064 50.6142 29.183 50.5562C29.302 50.4982 29.407 50.4152 29.49 50.3122C30.19 49.7092 30.888 49.1031 31.584 48.4961C32.667 47.4801 33.574 46.2932 34.271 44.9812C34.422 44.6502 34.552 44.3101 34.658 43.9621C34.874 43.4421 34.541 43.0402 34.334 42.6462C34.167 42.3292 33.813 42.3892 33.621 42.7102C33.448 42.9982 33.29 43.2952 33.147 43.5992C32.461 45.4672 31.37 47.1612 29.952 48.5582C29.76 48.7202 29.6 48.9162 29.482 49.1372C29.179 49.6022 28.949 50.1112 28.802 50.6462ZM28.577 41.0252C27.761 40.5252 26.823 40.4072 26.175 39.7452C25.987 39.5532 25.814 39.7382 25.671 39.8652C25.127 40.3472 24.59 40.8352 24.048 41.3182C23.491 41.7202 22.998 42.2032 22.584 42.7522C24.502 41.9532 26.578 41.7562 28.577 41.0252ZM67.584 16.4722C67.088 17.9552 66.741 19.4242 66.156 20.8132C66.051 21.0622 66.085 21.2552 66.401 21.2992C66.893 21.4172 67.4 21.4542 67.904 21.4112C67.877 20.7192 67.866 20.0552 67.819 19.3932C67.783 19.2002 67.787 19.0021 67.83 18.8111C67.874 18.6201 67.956 18.4392 68.071 18.2812C68.62 17.8282 68.267 17.5291 68.047 17.1731C67.916 16.9631 67.886 16.6922 67.584 16.4722ZM62.414 21.8642C62.978 21.7012 63.43 21.5872 63.871 21.4372C64.318 21.2862 64.846 21.4372 65.312 21.0932C64.59 20.3812 63.772 19.9102 63.042 19.1112L62.414 21.8642ZM27.276 28.9852C28.038 28.6592 28.765 28.8292 29.448 28.5062C29.012 28.0932 28.637 27.7232 28.244 27.3722C28.035 27.1852 27.851 27.1942 27.755 27.5102C27.626 27.9342 27.482 28.3552 27.276 28.9852ZM49.919 34.4512C49.45 34.4982 49.295 34.8122 49.106 35.0132C48.951 35.1782 49.189 35.3542 49.365 35.4412C49.53 35.5232 49.612 35.4252 49.657 35.2662C49.724 35.0322 49.805 34.8022 49.919 34.4512Z" fill="#537F4D"/>
<path d="M44.3931 34.6185C44.4011 34.8295 44.3251 35.0365 44.1831 35.1935C44.0411 35.3505 43.8431 35.4445 43.6311 35.4575C43.4341 35.4685 43.2401 35.4035 43.0901 35.2755C42.9391 35.1485 42.8421 34.9685 42.8201 34.7725C42.8211 34.5465 42.9081 34.3295 43.0621 34.1645C43.2171 33.9995 43.4291 33.8995 43.6541 33.8845C43.7521 33.8775 43.8511 33.8925 43.9431 33.9265C44.0351 33.9615 44.1191 34.0155 44.1891 34.0845C44.2591 34.1535 44.3131 34.2375 44.3481 34.3295C44.3841 34.4215 44.3991 34.5195 44.3931 34.6185Z" fill="#537F4D"/>
<path d="M43.491 32.1692C42.005 30.7932 40.283 29.7302 38.725 28.4502C39.656 28.8832 40.529 29.4292 41.326 30.0762C42.113 30.6922 43.101 31.1232 43.491 32.1692Z" fill="#537F4D"/>
<path d="M39.425 30.7691C39.538 30.7191 39.6631 30.7012 39.7851 30.7182C39.9071 30.7352 40.0231 30.7861 40.1181 30.8651C40.8431 31.2821 41.5631 31.7051 42.2801 32.1351C42.4311 32.2261 42.6941 32.3221 42.5031 32.5651C42.3611 32.7441 42.2081 32.5722 42.0781 32.4762C41.3551 31.9082 40.5701 31.4251 39.7371 31.0371C39.6691 31.0171 39.6061 30.9831 39.5521 30.9361C39.4981 30.8901 39.455 30.8331 39.425 30.7691Z" fill="#537F4D"/>
<path d="M43.842 36.6924C43.789 37.0154 43.319 37.3734 43.044 37.2814C42.808 37.2024 42.561 37.0904 42.578 36.7754C42.615 36.5974 42.717 36.4404 42.865 36.3364C43.012 36.2314 43.194 36.1854 43.374 36.2094C43.616 36.2724 43.858 36.3754 43.842 36.6924Z" fill="#537F4D"/>
<path d="M39.327 32.202C39.741 32.169 40.156 32.243 40.532 32.419C41.011 32.641 41.512 32.811 42.027 32.926C42.192 32.943 42.381 33.0659 42.307 33.2589C42.234 33.4499 42.031 33.3839 41.876 33.3209C41.542 33.1839 41.21 33.0429 40.879 32.8969C40.409 32.6889 39.941 32.477 39.327 32.202Z" fill="#537F4D"/>
<path d="M43.6109 32.6035C43.8279 32.6085 43.9519 32.6886 43.9459 32.8996C43.9389 33.1326 43.8999 33.3575 43.5949 33.3405C43.3889 33.3295 43.3409 33.1606 43.3299 32.9856C43.3169 32.7696 43.3709 32.6015 43.6109 32.6035Z" fill="#537F4D"/>
<path d="M19.104 30.1529C18.938 30.1599 18.7729 30.1139 18.6359 30.0199C18.4989 29.9269 18.395 29.7908 18.342 29.6338C18.291 29.5318 18.28 29.4158 18.311 29.3068C18.342 29.1978 18.4119 29.1038 18.5069 29.0438C18.5889 28.9658 18.6959 28.9179 18.8089 28.9079C18.9219 28.8989 19.034 28.9279 19.129 28.9909C19.279 29.1139 19.41 29.2598 19.518 29.4218C19.579 29.4998 19.615 29.5938 19.622 29.6928C19.629 29.7908 19.607 29.8898 19.557 29.9748C19.439 30.1818 19.225 30.1409 19.104 30.1529Z" fill="#537F4D"/>
<path d="M18.815 30.6719C18.891 30.6709 18.9661 30.686 19.0361 30.715C19.1061 30.744 19.169 30.7859 19.223 30.8389C19.277 30.8929 19.319 30.9559 19.348 31.0259C19.377 31.0959 19.392 31.1709 19.392 31.2469C19.392 31.3229 19.376 31.3979 19.344 31.4669C19.313 31.5359 19.267 31.5979 19.21 31.6479C19.153 31.6979 19.086 31.7349 19.013 31.7569C18.941 31.7789 18.864 31.7849 18.789 31.7749C18.719 31.7749 18.65 31.7589 18.586 31.7299C18.523 31.6999 18.466 31.6579 18.421 31.6049C18.375 31.5519 18.3411 31.4899 18.3211 31.4229C18.3011 31.3559 18.295 31.2849 18.305 31.2159C18.3 31.1459 18.3111 31.0759 18.3341 31.0109C18.3581 30.9449 18.395 30.8849 18.443 30.8339C18.49 30.7829 18.548 30.742 18.612 30.715C18.676 30.687 18.745 30.6719 18.815 30.6719Z" fill="#537F4D"/>
<path d="M46.4711 38.6787C45.1891 41.4787 44.1721 44.3937 43.4361 47.3837C43.2261 46.4997 43.666 44.6377 44.499 42.7657C44.992 41.3297 45.6541 39.9577 46.4711 38.6787Z" fill="#537F4D"/>
<path d="M48.192 39.7344C48.451 41.3294 48.255 42.9653 47.626 44.4543C47.648 43.6513 47.766 42.8544 47.977 42.0804C48.08 41.3044 48.153 40.5274 48.192 39.7344Z" fill="#537F4D"/>
<path d="M48.507 38.1409C48.497 38.3099 48.421 38.4679 48.295 38.5809C48.168 38.6939 48.003 38.7519 47.834 38.7419C47.757 38.7409 47.681 38.7229 47.612 38.6879C47.542 38.6539 47.482 38.6049 47.434 38.5439C47.386 38.4839 47.353 38.4129 47.336 38.3379C47.319 38.2629 47.318 38.1849 47.335 38.1099C47.335 38.0319 47.351 37.9559 47.382 37.8849C47.413 37.8149 47.458 37.7509 47.515 37.6989C47.572 37.6459 47.639 37.6069 47.712 37.5819C47.785 37.5569 47.862 37.5469 47.939 37.5539C48.016 37.5529 48.091 37.5679 48.162 37.5979C48.232 37.6279 48.296 37.6709 48.349 37.7259C48.402 37.7809 48.443 37.8459 48.47 37.9169C48.498 37.9889 48.51 38.0649 48.507 38.1409Z" fill="#537F4D"/>
<path d="M46.355 42.4003C46.368 41.5193 46.583 40.6543 46.983 39.8703C46.994 39.8443 47.01 39.8203 47.031 39.8013C47.051 39.7813 47.075 39.7663 47.102 39.7563C47.128 39.7463 47.156 39.7413 47.184 39.7423C47.213 39.7433 47.24 39.7503 47.266 39.7623C47.292 39.7713 47.316 39.7853 47.336 39.8043C47.356 39.8233 47.372 39.8463 47.383 39.8723C47.393 39.8983 47.398 39.9253 47.397 39.9533C47.397 39.9803 47.39 40.0083 47.377 40.0323C47.322 40.2193 47.248 40.4003 47.157 40.5723C46.821 41.1483 46.552 41.7623 46.355 42.4003Z" fill="#537F4D"/>
<path d="M49.4739 36.4766C49.5779 36.5426 49.6609 36.6376 49.7109 36.7496C49.7619 36.8626 49.7779 36.9876 49.7569 37.1096C49.7059 37.3356 49.5949 37.5816 49.3219 37.5166C49.2589 37.5046 49.1989 37.4806 49.1459 37.4456C49.0919 37.4106 49.0469 37.3646 49.0109 37.3116C48.9759 37.2576 48.952 37.1986 48.94 37.1356C48.928 37.0726 48.9289 37.0076 48.9429 36.9456C48.9609 36.8166 49.025 36.6985 49.122 36.6125C49.219 36.5265 49.3439 36.4786 49.4739 36.4766Z" fill="#537F4D"/>
<path d="M47.894 30.7778C47.909 30.2728 48.0099 29.7737 48.1939 29.3027C48.4749 28.2207 48.6939 27.1228 48.8489 26.0148C48.9829 25.2418 49.1939 24.4848 49.4789 23.7548C49.5479 23.5648 49.645 23.3968 49.881 23.3848C50.054 23.5598 49.8859 23.6968 49.8239 23.8348C49.4049 25.0208 49.0989 26.2448 48.9099 27.4888C48.6849 28.4128 48.4669 29.3388 48.2159 30.2568C48.1659 30.4388 48.1869 30.7278 47.8779 30.7598L47.894 30.7778Z" fill="#537F4D"/>
<path d="M49.241 31.5497C49.345 31.5477 49.449 31.5667 49.546 31.6047C49.642 31.6437 49.731 31.7007 49.805 31.7737C49.879 31.8477 49.938 31.9348 49.979 32.0308C50.019 32.1268 50.039 32.2298 50.039 32.3348C50.026 32.5708 49.925 32.7947 49.756 32.9607C49.586 33.1267 49.361 33.2228 49.124 33.2308C48.848 33.2078 48.491 32.6528 48.491 32.2468C48.485 32.1498 48.501 32.0517 48.538 31.9607C48.574 31.8707 48.631 31.7888 48.702 31.7228C48.774 31.6558 48.859 31.6057 48.952 31.5757C49.045 31.5457 49.144 31.5367 49.241 31.5497Z" fill="#537F4D"/>
<path d="M49.7319 30.8553C51.0749 29.3043 52.293 27.8633 53.424 26.3193C53.625 26.6113 53.4239 26.7574 53.3199 26.8904C52.3399 28.1414 51.3459 29.3823 50.3559 30.6263C50.2489 30.7603 50.1139 30.8433 49.7319 30.8553Z" fill="#537F4D"/>
<path d="M50.605 26.9688C50.189 28.1647 49.638 29.3098 48.963 30.3818C49.343 29.1708 49.896 28.0208 50.605 26.9688Z" fill="#537F4D"/>
<path d="M47.878 30.7598C47.935 31.0018 47.938 31.2518 47.886 31.4948C47.848 31.7558 47.746 31.9808 47.443 32.0018C47.249 32.0148 47.153 31.8708 47.099 31.7048C47.056 31.5878 47.053 31.4588 47.093 31.3398C47.133 31.2218 47.211 31.1198 47.317 31.0518C47.488 30.9248 47.754 30.9807 47.895 30.7787L47.878 30.7598Z" fill="#537F4D"/>
<path d="M74.133 11.3633C73.521 12.8963 72.999 14.4643 72.57 16.0583C72.405 16.5913 72.285 17.1383 72.21 17.6913C72.194 17.8463 72.192 18.0773 71.953 18.0233C71.72 17.9703 71.835 17.7573 71.852 17.6063C71.971 16.7763 72.173 15.9613 72.455 15.1733C72.794 14.1113 73.195 13.0683 73.58 12.0223C73.677 11.7413 73.874 11.5073 74.133 11.3633Z" fill="#537F4D"/>
<path d="M75.556 11.4124C74.454 13.5134 73.512 15.6944 72.737 17.9374C72.627 17.7864 72.564 17.6054 72.555 17.4194C72.547 17.2324 72.594 17.0474 72.69 16.8864C73.235 15.5084 73.851 14.1594 74.536 12.8444C74.819 12.3384 75.091 11.8274 75.367 11.3184L75.556 11.4124Z" fill="#537F4D"/>
<path d="M52.913 36.4873C54.082 37.9813 55.795 38.4883 57.322 39.3003C57.45 39.3693 57.663 39.3713 57.66 39.5993C57.632 39.6163 57.601 39.6493 57.586 39.6433C55.996 39.1273 54.515 38.3233 53.216 37.2713C53.019 37.0853 52.779 36.9153 52.913 36.4873Z" fill="#537F4D"/>
<path d="M58.268 36.3462C57.413 36.2222 56.559 36.0872 55.701 35.9782C54.819 35.9572 53.937 36.0612 53.083 36.2862C53.935 35.4932 56.647 35.5132 58.268 36.3462Z" fill="#537F4D"/>
<path d="M56.471 34.7397C55.126 35.1497 53.72 35.3247 52.316 35.2567C53.67 34.8937 55.069 34.7207 56.471 34.7397Z" fill="#537F4D"/>
<path d="M59.9289 33.956C59.0679 34.185 58.2079 34.416 57.3449 34.639C57.2759 34.657 57.1899 34.614 56.9299 34.564C57.8679 34.118 58.883 33.855 59.92 33.792L59.9289 33.956Z" fill="#537F4D"/>
</svg>
