<svg width="85" height="87" viewBox="0 0 85 87" fill="none" xmlns="http://www.w3.org/2000/svg">
<path d="M41.253 6.15797C41.696 5.68697 42.283 5.37695 42.922 5.27595C43.56 5.17395 44.214 5.28793 44.781 5.59993C45.977 6.24993 46.997 5.52995 47.947 4.82795C48.783 4.03195 49.741 3.37496 50.785 2.87996C51.5079 2.52696 52.315 2.38293 53.116 2.46693C55.219 2.95893 56.256 4.98396 58.03 6.00196C58.903 6.50296 58.965 7.71298 58.902 8.68098C58.829 9.79998 59.013 10.4989 60.266 10.7949C60.914 10.9739 61.513 11.2989 62.018 11.7429C62.523 12.1879 62.92 12.741 63.179 13.361C63.54 14.075 64.05 14.702 64.675 15.2C65.301 15.698 66.026 16.0539 66.803 16.2449C68.238 16.7069 69.6109 17.3979 71.0689 17.7479C72.0519 18.0329 72.969 18.5109 73.766 19.1539C74.564 19.7959 75.225 20.5899 75.713 21.4899C76.201 22.3899 76.506 23.3779 76.609 24.3969C76.713 25.4159 76.613 26.4449 76.316 27.4249C75.916 28.8659 75.444 30.2869 75.005 31.7169C75.691 32.5339 76.525 32.235 77.27 32.184C78.333 32.078 79.406 32.1839 80.428 32.4959C83.316 33.4619 84.158 34.819 83.4 37.734C82.743 40.261 82.576 42.6229 84.376 44.7869C84.599 45.0729 84.736 45.4159 84.771 45.7769C84.807 46.1379 84.74 46.501 84.577 46.825C83.304 49.626 82.563 52.775 79.7069 54.58C78.826 55.137 78.939 55.658 79.441 56.512C80.818 58.853 80.546 60.313 78.639 62.203C78.582 62.271 78.516 62.331 78.443 62.382C75.139 64.215 73.769 67.279 73 70.773C72.725 71.802 72.354 72.803 71.893 73.763C70.981 75.887 70.092 76.2859 67.965 75.5159C67.392 75.2829 66.795 75.1179 66.184 75.0239C63.229 74.6779 62.802 74.9029 61.824 77.7089C61 80.1509 59.727 82.418 58.07 84.39C56.519 86.22 56.061 86.5799 54.015 85.6199C51.538 84.4599 49.163 84.8799 46.736 85.4199C44.591 85.8999 43.305 85.56 42.315 83.682C41.707 82.528 41.1699 82.2609 40.0819 82.9379C39.4749 83.3089 38.834 83.62 38.168 83.867C35.375 84.92 32.804 84.7799 30.565 82.5189C29.689 81.5049 28.592 80.7049 27.36 80.1779C24.999 79.3639 23.659 77.864 23.663 75.3569C22.583 75.1189 21.471 75.061 20.372 75.185C15.819 75.202 14.065 73.701 13.663 69.179C13.679 68.429 13.481 67.69 13.092 67.049C12.704 66.407 12.14 65.89 11.468 65.557C8.56999 64.071 8.43398 63.422 10.065 60.192C7.78298 59.502 6.52397 57.756 5.53397 55.726C4.99197 54.805 4.28995 53.989 3.46195 53.314C2.47595 52.344 1.746 51.1459 1.335 49.8259C0.923999 48.5059 0.844958 47.105 1.10496 45.747C1.31096 44.326 2.00396 43.022 3.06596 42.056C4.07696 41.069 5.16299 40.0049 5.09599 38.4429C4.97599 35.6749 6.53197 34.0129 8.65397 32.6619C8.92297 32.5619 9.16598 32.4009 9.36198 32.1909C9.55798 31.9809 9.702 31.728 9.783 31.452C9.2 31.042 8.64396 30.594 8.11796 30.111C6.05996 28.028 5.83398 25.4129 6.07298 22.6849C6.15298 21.7719 6.84699 21.331 7.51499 20.89C8.37699 20.428 9.31999 20.1359 10.291 20.0289C10.953 19.9469 11.584 19.704 12.13 19.322C12.675 18.939 13.119 18.429 13.421 17.835C15.125 14.323 17.858 12.78 21.847 13.27C24.151 13.553 24.212 13.312 25.228 11.023C25.362 10.6 25.59 10.2139 25.893 9.89094C27.899 8.29394 28.547 5.98692 29.311 3.70692C30.603 -0.151079 32.271 -0.833049 35.946 0.900951C37.556 1.67395 38.922 2.87595 39.893 4.37495C40.281 4.95195 40.442 5.70197 41.253 6.15797ZM21.182 21.0659C22.279 21.6449 23.2449 22.4419 24.0219 23.4089C24.986 24.6839 26.219 25.7329 27.633 26.4799C26.51 24.6749 25.211 22.986 23.756 21.437C22.394 19.827 20.788 18.353 19.948 16.387L20.459 16.002C22.118 17.961 23.777 19.9199 25.756 22.2559C25.878 18.9139 22.403 18.312 21.98 15.913C22.587 15.573 22.771 15.948 23.029 16.151C23.367 16.417 23.582 16.872 24.104 16.859C24.803 14.295 24.802 14.2879 22.337 14.4409C21.274 14.5059 20.208 14.5739 19.151 14.7009C18.344 14.7259 17.559 14.97 16.88 15.408C16.202 15.847 15.656 16.461 15.301 17.187C14.817 18.387 14.006 19.428 12.96 20.192C11.915 20.955 10.677 21.4099 9.38596 21.5059C9.12096 21.5469 8.86698 21.638 8.63798 21.775C7.30098 22.526 6.48196 25.6199 7.64396 26.4119C8.55796 27.0009 9.66197 27.2199 10.732 27.0239C10.489 25.6059 8.77495 25.3429 8.68595 23.7379C10.229 23.8959 10.789 25.201 11.793 25.794C12.257 26.068 12.66 26.461 13.164 25.872C13.656 25.297 13.317 24.909 12.889 24.536C12.232 23.962 11.123 23.679 11.459 22.177C13.988 23.687 15.771 26.0499 19.016 26.8759C17.409 25.4139 16.111 24.2599 14.849 23.0679C14.551 22.7859 14.1449 22.37 14.5689 21.937C15.0249 21.472 15.363 21.9819 15.67 22.2459C17.892 24.1579 20.021 26.188 22.336 27.978C25.233 30.218 27.69 33.0769 31.253 34.4329C29.843 32.6689 28.241 31.0679 26.476 29.6589C24.812 28.1949 23.0519 26.8319 21.4699 25.2849C19.8949 23.7459 17.799 22.632 17.159 20.2239C20.538 22.9119 23.535 26.043 27.169 28.776C27.143 28.51 27.065 28.2509 26.939 28.0159C26.814 27.7799 26.642 27.572 26.435 27.403C24.732 25.255 22.521 23.547 21.048 21.2L21.182 21.0659ZM40.089 45.322C40.052 44.439 40.613 43.313 39.263 42.4479C33.669 38.8629 28.208 35.0659 22.549 31.5889C20.409 30.1419 18.033 29.0789 15.528 28.4479C13.877 28.1079 13.183 28.364 12.969 29.846C12.684 31.825 11.507 32.699 9.85496 33.431C8.08596 34.214 6.58397 35.5149 6.43797 37.5449C6.29397 39.6739 5.37496 41.6769 3.85496 43.1749C2.74696 44.4639 2.188 46.135 2.296 47.83C2.404 49.526 3.17096 51.1129 4.43296 52.2509C5.66196 53.2779 6.64398 54.569 7.30698 56.028C7.59598 56.678 8.03598 57.2479 8.59098 57.6929C9.14598 58.1369 9.79895 58.4419 10.4959 58.5809C13.5909 59.4669 16.894 59.279 19.869 58.049C23.177 56.709 26.056 54.593 29.298 53.14C32.212 51.833 35.004 50.254 37.905 48.918C40.045 47.933 40.085 48.02 40.089 45.322ZM75.488 25.617C75.576 24.229 75.215 22.8499 74.458 21.6829C73.702 20.5159 72.59 19.624 71.287 19.137C69.561 18.44 67.802 17.8139 66.029 17.2429C64.402 16.7529 63.02 15.6649 62.161 14.1989C60.423 11.3579 58.6899 11.273 56.6209 13.921C55.0999 15.784 53.93 17.908 53.169 20.189C51.898 24.255 50.739 28.3539 49.283 32.3649C48.499 34.5269 48.061 36.8149 47.471 39.0469C47.107 40.4269 47.77 41.3439 48.675 42.3369C49.603 43.3539 50.346 42.942 51.254 42.53C51.599 42.452 51.949 42.4 52.302 42.377C58.586 40.741 64.749 38.8219 70.168 35.0549C73.481 32.7509 74.962 29.466 75.488 25.617ZM49.38 46.9619C46.505 49.4289 46.2489 52.088 47.9959 55.432C50.3369 59.911 52.738 64.3619 55.019 68.8729C55.855 70.3399 56.884 71.688 58.078 72.882C59.034 73.944 60.357 74.8689 61.851 74.31C64.056 73.5929 66.442 73.666 68.599 74.517C68.798 74.619 69.018 74.673 69.242 74.676C69.466 74.679 69.688 74.63 69.89 74.534C70.092 74.437 70.268 74.295 70.407 74.119C70.545 73.943 70.641 73.738 70.687 73.518C71.152 72.465 71.553 71.383 71.886 70.28C72.17 68.534 72.81 66.8649 73.765 65.3759C74.719 63.8869 75.9689 62.6089 77.436 61.6209C79.945 59.9329 79.495 57.785 76.993 56.1119C73.455 53.6909 69.228 52.484 64.946 52.671C60.556 52.827 56.623 51.1759 52.73 49.4019C51.425 48.8069 50.805 47.2859 49.38 46.9619ZM44.033 38.0679C43.699 34.8869 43.397 32.1529 43.126 29.4149C42.401 22.0879 42.09 14.7119 39.922 7.58192C39.377 5.50792 38.108 3.69895 36.343 2.48195C33.371 0.468945 31.485 1.10698 30.265 4.45198C29.809 5.70298 29.321 6.94197 28.84 8.18397C28.596 8.94997 28.148 9.63598 27.545 10.168C25.675 11.662 25.559 13.6349 26.125 15.7299C27.882 22.1739 30.978 28.1759 35.21 33.3449C35.722 33.9779 36.51 34.8319 37.1 34.6909C39.184 34.1929 39.303 35.8249 39.933 36.9409C40.412 37.7909 40.8599 38.658 41.3319 39.513C41.5059 39.8279 41.927 40.2499 42.11 40.0289C42.665 39.3549 43.448 39.3759 44.113 39.0629C44.677 38.7959 44.029 38.1189 44.033 38.0679ZM41.415 53.9089C38.945 55.7469 36.888 58.0819 35.376 60.7639C33.901 63.4969 32.076 66.027 29.947 68.289C28.294 69.903 26.882 71.749 25.757 73.767C24.824 75.588 25.043 77.638 26.525 78.213C28.681 79.05 30.196 80.621 31.921 81.989C34.514 84.05 39.921 83.093 41.53 80.231C42.61 78.486 43.243 76.501 43.373 74.453C43.444 69.049 43.633 63.659 44.007 58.268C44.16 56.065 43.788 53.838 44.067 51.622C44.118 51.217 44.311 50.7269 43.414 50.5839C40.875 60.4299 35.714 69.2869 32.639 78.9749C32.412 78.4779 32.308 77.9339 32.336 77.3889C32.363 76.8439 32.52 76.313 32.795 75.841C34.102 72.739 35.4 69.6339 36.726 66.5399C38.424 62.5769 39.897 58.5339 41.415 53.9089ZM59.6209 48.5839C63.0079 50.3549 63.008 50.357 66.104 50.403C67.435 50.341 68.769 50.3639 70.097 50.4739C73.078 50.909 76.281 50.952 78.01 53.991C81.682 52.696 81.955 49.1559 83.29 46.3469C83.335 46.1789 83.3449 46.0029 83.3189 45.8309C83.2929 45.6589 83.231 45.4939 83.137 45.3469C82.339 44.1119 81.85 42.703 81.712 41.239C81.574 39.775 81.791 38.299 82.344 36.937C82.505 36.563 82.54 36.146 82.443 35.75C82.346 35.3549 82.122 35.0019 81.805 34.7449C79.827 33.1249 77.452 33.611 75.176 33.416C73.585 33.28 74.071 34.706 73.43 35.249C72.361 36.183 71.209 37.0159 69.989 37.7399C69.367 38.0969 68.553 38.2589 68.012 39.3709C71.184 38.4649 74.023 37.6549 76.863 36.8439C72.181 39.9569 66.321 39.7909 61.554 42.6699C63.472 42.6539 65.386 42.493 67.28 42.189C70.703 41.693 74.12 41.156 77.543 40.663C77.869 40.545 78.226 40.5479 78.55 40.6719C78.874 40.7949 79.143 41.0309 79.307 41.3359C72.107 42.361 65.131 43.1049 58.258 44.6649C64.826 44.8859 71.329 46.102 78.473 44.981C78.059 45.411 77.559 45.747 77.005 45.968C76.451 46.189 75.857 46.29 75.261 46.263C71.534 46.45 67.799 46.355 64.087 45.976C61.534 45.717 59.031 45.5069 56.265 46.7009C62.792 47.9049 69.112 48.6059 75.375 49.6799C72.687 50.3239 70.094 49.6629 67.477 49.3419C64.859 49.0199 62.284 48.2619 59.6209 48.5839ZM55.221 79.004L54.695 79.189C52.283 74.028 51.015 68.4099 48.687 63.1879C49.367 66.3959 50.04 69.575 50.622 72.771C51.212 76.007 52.578 79.0509 53.012 82.336C51.359 80.35 51.215 77.8319 50.525 75.5239C49.825 73.1779 49.329 70.7709 48.744 68.3909C48.27 72.7299 49.089 76.91 49.111 81.158C47.289 76.295 48.407 70.9589 46.719 65.7249C46.096 67.0759 45.831 68.566 45.952 70.049C46.161 72.611 46.189 75.19 46.204 77.762C46.206 78.041 46.473 78.514 45.568 78.909C44.274 79.474 43.886 81.4049 43.254 82.8189C43.111 83.1389 43.507 83.6389 43.872 83.9279C44.223 84.1899 44.6349 84.3599 45.0689 84.4099C45.5029 84.4699 45.944 84.42 46.351 84.25C49.003 83.581 51.681 82.863 54.355 84.39C55.372 84.98 56.31 84.6499 57.136 83.6439C58.602 81.8579 59.761 79.8409 60.565 77.6749C60.891 76.8079 60.749 76.272 59.775 76.205C58.491 76.109 57.254 75.685 56.182 74.974C55.959 75.892 56.6999 76.525 56.1079 77.369C55.5689 76.084 55.173 74.91 54.597 73.833C54.078 72.862 54.291 71.3939 52.563 70.8339C53.503 73.7239 54.362 76.364 55.221 79.004ZM43.663 12.3129C44.245 11.2189 43.189 9.99396 44.499 8.49696C45.336 13.672 44.582 18.485 45.666 23.135C46.446 21.662 45.97 20.0589 46.183 18.5369C46.404 16.9579 46.432 15.3509 46.652 13.7709C46.853 12.3319 46.248 10.6779 47.98 9.00093C47.571 15.6129 46.44 21.654 46.753 27.793C47.498 27.705 47.615 27.338 47.639 27.004C47.873 23.814 48.698 20.711 48.912 17.51C49.088 14.866 49.588 12.242 49.981 9.61396C50.047 9.17396 50.071 8.54294 50.982 8.66694C50.602 13.4249 49.491 18.0879 49.567 22.8599C50.153 21.6589 50.624 20.406 50.974 19.117C51.331 17.929 51.685 16.74 52.017 15.544C52.373 14.264 52.655 12.962 53.056 11.697C53.424 10.538 53.429 9.18697 54.929 7.82997C54.448 9.88497 54.097 11.325 53.783 12.773C53.71 13.107 53.723 13.491 54.163 13.63C54.332 13.69 54.517 13.69 54.687 13.629C54.856 13.568 54.999 13.45 55.091 13.296C55.549 12.537 55.843 11.5729 56.636 11.1729C57.071 10.9649 57.428 10.6219 57.654 10.1959C57.88 9.76893 57.962 9.28097 57.889 8.80397C57.908 8.26997 57.76 7.74295 57.465 7.29695C57.169 6.85195 56.742 6.50892 56.243 6.31892C55.599 6.01992 55.0059 5.62397 54.4829 5.14497C52.9749 3.69397 51.828 3.61196 50.089 4.82496C49.219 5.43196 48.408 6.12593 47.568 6.77693C47.229 7.06393 46.825 7.26397 46.392 7.36097C45.958 7.45897 45.508 7.44995 45.078 7.33595C42.169 6.62995 41.975 6.80092 42.692 9.62092C42.918 10.5109 42.848 11.5619 43.663 12.3129ZM34.2719 57.642C28.497 61.352 23.338 65.9429 18.981 71.2459C18.605 71.7139 18.3479 72.5349 17.2719 72.1359C18.5429 70.0649 20.088 68.176 21.864 66.518C25.447 62.682 29.743 59.656 33.708 56.252C34.18 55.847 34.95 55.6039 34.747 54.6719C34.537 54.7149 34.332 54.784 34.139 54.877C28.269 59.173 22.772 63.926 17.261 68.661C16.754 69.156 16.273 69.6769 15.821 70.2219C15.6 70.4439 15.461 70.7339 15.428 71.0449C15.395 71.3559 15.469 71.669 15.638 71.932C15.84 72.312 16.127 72.6399 16.478 72.8909C16.828 73.1409 17.232 73.306 17.657 73.372C18.083 73.439 18.518 73.406 18.928 73.275C19.338 73.145 19.712 72.92 20.021 72.6199C21.95 70.544 23.834 68.427 25.79 66.377C28.593 63.442 31.4419 60.551 34.2719 57.642ZM29.801 57.004C28.997 56.991 28.212 57.248 27.572 57.734C24.29 59.486 21.002 61.2269 17.736 63.0059C15.608 64.1659 13.615 64.375 11.823 62.403C11.759 62.342 11.688 62.288 11.612 62.242C11.391 62.086 11.143 61.9559 10.896 62.1309C10.752 62.2379 10.645 62.386 10.588 62.556C10.531 62.725 10.527 62.908 10.577 63.08C10.728 63.777 11.352 64.0389 11.908 64.2659C12.7 64.5639 13.398 65.0699 13.929 65.7299C14.459 66.3889 14.803 67.18 14.923 68.018C14.962 68.217 15.27 68.364 15.609 68.682C20.262 64.853 24.895 61.041 29.801 57.004ZM20.764 73.695C22.133 74.431 23.044 74.5829 23.412 73.2069C23.757 72.2949 24.326 71.484 25.065 70.848C26.854 68.876 28.642 66.8999 30.34 64.8499C30.802 64.4239 31.17 63.906 31.421 63.33C31.672 62.753 31.8 62.131 31.796 61.502C27.885 65.753 23.83 69.146 20.764 73.695ZM32.01 55.3519C32.135 55.1569 32.056 54.9319 31.86 54.9869C31.538 55.088 31.242 55.2579 30.992 55.4849C30.957 55.5149 30.933 55.5549 30.923 55.5999C30.913 55.6449 30.919 55.6919 30.938 55.7329C30.957 55.7749 30.989 55.8089 31.03 55.8309C31.07 55.8519 31.117 55.86 31.162 55.853C31.335 55.851 31.504 55.804 31.653 55.716C31.802 55.628 31.925 55.5029 32.01 55.3519Z" fill="#537F4D"/>
<path d="M36.31 43.3275C37.224 44.7425 37.041 45.6855 35.746 46.1035C35.4 46.1845 35.048 46.2334 34.693 46.2514C29.208 46.9764 23.654 47.0294 18.18 47.9354C23.35 46.3164 28.82 46.6814 34.008 45.3954C33.531 44.6904 32.232 45.6384 31.82 44.3974C32.213 44.2244 32.64 44.1394 33.069 44.1464C33.499 44.1544 33.922 44.2554 34.309 44.4414C34.515 44.5284 34.739 44.5674 34.963 44.5554C35.187 44.5434 35.406 44.4814 35.602 44.3734C35.799 44.2644 35.968 44.1134 36.098 43.9304C36.228 43.7474 36.314 43.5374 36.351 43.3164L36.31 43.3275Z" fill="#537F4D"/>
<path d="M28.417 44.3433C21.775 43.7333 15.091 43.7372 8.44897 44.3572C15.097 42.6542 21.756 43.3313 28.417 44.3433Z" fill="#537F4D"/>
<path d="M29.504 42.3933C27.692 42.2163 25.936 41.6643 24.349 40.7743C26.423 40.6883 27.422 40.9873 29.504 42.3933Z" fill="#537F4D"/>
<path d="M16.426 38.5047C18.019 38.0477 19.394 38.7817 20.759 39.6187L16.342 39.1037L16.426 38.5047Z" fill="#537F4D"/>
<path d="M36.351 43.316C34.631 43.664 32.922 43.892 31.365 42.582C33.007 42.834 34.653 43.0841 36.302 43.3331C36.318 43.3261 36.334 43.32 36.351 43.316Z" fill="#537F4D"/>
<path d="M51.435 33.8672C51.715 34.8782 50.967 35.6562 50.814 36.6352C54.218 33.3112 57.117 29.5722 60.709 26.4912C58.139 30.5292 54.104 33.4002 51.798 37.7452C56.591 34.9732 60.772 31.1742 66.344 29.0472C66.191 29.4042 65.969 29.7262 65.689 29.9952C65.409 30.2642 65.078 30.4742 64.716 30.6122C60.579 32.8322 56.642 35.4062 52.95 38.3052C51.709 39.2942 50.121 39.1972 48.591 40.1372C48.659 37.4322 50.099 35.6882 51.493 33.9242L51.435 33.8672Z" fill="#537F4D"/>
<path d="M62.32 20.5507C61.731 21.3837 61.192 22.2597 60.543 23.0427C58.628 25.4047 56.593 27.6677 54.447 29.8217C56.565 26.3547 59.045 23.1226 61.848 20.1816L62.32 20.5507Z" fill="#537F4D"/>
<path d="M51.493 33.9238C51.633 33.5098 51.804 33.1078 52.005 32.7208C52.204 32.4328 52.498 32.2258 52.836 32.1348C52.691 32.9618 52.55 33.7807 51.436 33.8677L51.493 33.9238Z" fill="#537F4D"/>
<path d="M56.282 62.1172C58.581 63.4752 59.718 66.1082 62.92 67.1662C60.149 67.3582 57.914 65.5112 56.282 62.1172Z" fill="#537F4D"/>
<path d="M61.054 61.8623C63.057 63.0173 64.712 64.6893 65.845 66.7043C63.921 65.4503 62.288 63.7993 61.054 61.8623Z" fill="#537F4D"/>
<path d="M58.99 59.6674C57.457 58.9024 56.204 57.6723 55.412 56.1523C56.945 56.9183 58.197 58.1484 58.99 59.6674Z" fill="#537F4D"/>
<path d="M51.421 56.4788C53.295 57.2628 53.944 59.0878 54.933 60.6238C53.331 59.6628 52.108 58.1808 51.469 56.4268L51.421 56.4788Z" fill="#537F4D"/>
<path d="M51.469 56.4265C50.631 55.3075 49.362 54.4145 49.374 52.2695C50.471 53.4295 51.186 54.8975 51.424 56.4755L51.469 56.4265Z" fill="#537F4D"/>
<path d="M50.913 51.631C52.171 51.732 52.341 52.961 53.003 53.676C52.497 53.564 52.034 53.306 51.672 52.934C51.31 52.562 51.064 52.093 50.965 51.583L50.913 51.631Z" fill="#537F4D"/>
<path d="M50.9651 51.5834C50.7601 51.4464 50.563 51.2985 50.373 51.1405C50.197 50.9805 49.956 50.8004 50.139 50.5234C50.189 50.4684 50.251 50.4244 50.32 50.3964C50.39 50.3684 50.464 50.3565 50.539 50.3615C50.662 50.3805 50.773 50.4454 50.849 50.5444C50.925 50.6424 50.96 50.7664 50.948 50.8894C50.958 51.1354 50.928 51.3815 50.915 51.6295L50.9651 51.5834Z" fill="#537F4D"/>
<path d="M41.293 28.5215C40.112 25.1395 39.479 21.6095 38.242 18.2575C37.11 14.7715 35.682 11.3885 33.973 8.14648C35.529 8.99248 35.576 8.97153 37.083 12.4205C37.859 14.1945 38.476 16.0435 39.084 17.8855C39.715 19.6285 40.228 21.4115 40.619 23.2235C40.941 24.9585 41.801 26.6385 41.293 28.5215Z" fill="#537F4D"/>
<path d="M42.106 37.889C39.537 33.492 37.277 28.921 35.343 24.209C37.066 25.78 41.538 34.886 42.106 37.889Z" fill="#537F4D"/>
<path d="M35.176 27.8317C34.927 27.7897 34.564 27.8388 34.447 27.6918C32.771 25.8608 31.663 23.5828 31.257 21.1348L31.205 21.1758C32.653 22.3058 32.839 24.1968 33.862 25.5908C34.338 26.3268 34.766 27.0918 35.144 27.8828L35.176 27.8317Z" fill="#537F4D"/>
<path d="M31.257 21.1354C29.859 19.7964 29.608 18.0535 29.35 16.0645C30.731 17.4705 31.145 18.6895 31.206 21.1765L31.257 21.1354Z" fill="#537F4D"/>
<path d="M35.144 27.8826C35.352 29.2716 36.882 30.0856 36.793 31.9176C35.608 30.6246 34.856 29.4596 35.171 27.8386C35.176 27.8316 35.144 27.8826 35.144 27.8826Z" fill="#537F4D"/>
<path d="M41.425 60.5449C41.31 63.7179 38.981 72.4189 37.81 74.4709C38.458 69.7019 39.672 65.0269 41.425 60.5449Z" fill="#537F4D"/>
<path d="M21.048 21.2004C19.753 20.8074 19.226 19.7073 18.127 18.3193C20.285 18.6483 20.615 19.9793 21.182 21.0663L21.048 21.2004Z" fill="#537F4D"/>
</svg>
